<?xml version="1.0" encoding="UTF-8" standalone="yes"?>
<svg xmlns="http://www.w3.org/2000/svg" xmlns:xlink="http://www.w3.org/1999/xlink" width="643.326pt" height="582.560pt" version="1.1" viewBox="533.031 417.959 643.326 582.560">
  <!--
	Exported with Concepts: Smarter Sketching
	Version: 2024.11.2 on Microsoft Windows NT 10.0.26100.0
	https://concepts.app/
	-->
  <title>Drawing</title>
  <desc>Drawing exported from Concepts: Smarter Sketching</desc>
  <defs></defs>
  <g id="Pen" opacity="1.000">
    <path id="STROKE_79887390-eee7-4dfb-8958-5b216a8b3f75" opacity="1.000" fill="none" stroke="#000000" stroke-width="3.952" stroke-opacity="1.000" stroke-linecap="round" stroke-linejoin="round" d="M 554.903 871.212 Q 554.905 871.220 556.413 866.461 Q 557.921 861.702 560.438 855.855 Q 562.955 850.009 564.889 846.620 Q 566.824 843.232 570.452 839.191 Q 574.080 835.151 579.017 832.145 Q 583.953 829.138 588.465 826.975 Q 592.976 824.812 599.025 822.840 Q 605.073 820.867 610.712 819.839 Q 616.351 818.811 622.442 818.261 Q 628.534 817.710 635.234 817.906 Q 641.933 818.102 647.585 819.223 Q 653.237 820.345 658.895 822.681 Q 664.554 825.017 669.658 828.441 Q 674.762 831.866 679.378 836.425 Q 683.993 840.985 688.083 847.108 Q 692.173 853.232 695.557 860.371 Q 698.940 867.509 700.722 871.451 Q 702.504 875.393 704.590 882.018 Q 706.676 888.642 707.825 894.924 Q 708.975 901.207 709.144 908.528 Q 709.313 915.849 708.271 922.547 Q 707.228 929.246 705.172 934.708 Q 703.115 940.171 701.335 943.880 Q 699.555 947.589 695.069 953.552 Q 690.583 959.514 687.396 962.768 Q 684.210 966.023 680.590 969.164 Q 676.971 972.305 672.259 975.207 Q 667.548 978.108 664.548 979.540 Q 661.549 980.971 655.303 983.246 Q 649.058 985.522 640.656 987.316 Q 632.255 989.111 625.080 989.532 Q 617.904 989.953 611.604 989.430 Q 605.303 988.908 598.552 987.103 Q 591.800 985.299 587.013 982.813 Q 582.225 980.327 579.685 978.581 Q 577.145 976.834 573.721 974.082 Q 570.298 971.329 565.201 964.866 Q 560.103 958.403 556.051 951.892 Q 551.999 945.381 549.629 938.989 Q 547.259 932.597 546.125 928.971 Q 544.991 925.346 544.088 919.430 Q 543.184 913.514 543.195 907.771 Q 543.205 902.028 544.531 895.977 Q 545.856 889.926 547.352 885.703 Q 548.848 881.480 552.743 875.078 Q 556.639 868.675 560.338 863.954 Q 564.038 859.232 566.904 855.474 Q 569.770 851.716 571.312 849.168 Q 572.853 846.620 574.154 844.013 "></path>
    <path id="STROKE_5a6b0119-0916-4de4-a0be-b9303d41e24b" opacity="1.000" fill="none" stroke="#000000" stroke-width="3.952" stroke-opacity="1.000" stroke-linecap="round" stroke-linejoin="round" d="M 1021.423 834.123 Q 1021.663 833.849 1022.086 833.409 Q 1022.508 832.968 1023.258 832.222 Q 1024.008 831.475 1024.472 830.969 Q 1024.936 830.463 1029.691 826.299 Q 1034.445 822.134 1037.397 819.923 Q 1040.350 817.712 1043.292 815.622 Q 1046.233 813.531 1051.945 810.504 Q 1057.657 807.477 1066.213 805.564 Q 1074.769 803.651 1079.362 802.818 Q 1083.954 801.985 1090.463 801.813 Q 1096.972 801.640 1103.232 802.756 Q 1109.492 803.873 1114.308 806.159 Q 1119.124 808.445 1121.703 810.050 Q 1124.283 811.656 1129.039 815.762 Q 1133.796 819.868 1139.278 827.002 Q 1144.760 834.136 1148.758 841.836 Q 1152.755 849.537 1154.707 854.082 Q 1156.659 858.627 1159.665 867.815 Q 1162.672 877.004 1164.408 884.260 Q 1166.145 891.517 1166.699 897.886 Q 1167.252 904.254 1167.156 908.096 Q 1167.061 911.938 1166.607 917.520 Q 1166.154 923.102 1163.348 931.605 Q 1160.543 940.108 1158.109 945.041 Q 1155.675 949.974 1154.075 952.906 Q 1152.476 955.839 1149.651 959.981 Q 1146.827 964.124 1141.649 969.343 Q 1136.472 974.563 1132.708 977.585 Q 1128.944 980.607 1123.528 983.746 Q 1118.112 986.886 1109.912 988.898 Q 1101.712 990.910 1090.853 991.600 Q 1079.993 992.290 1071.523 991.552 Q 1063.052 990.813 1058.506 990.236 Q 1053.960 989.659 1045.299 987.458 Q 1036.637 985.256 1029.908 982.619 Q 1023.179 979.982 1017.262 976.125 Q 1011.345 972.267 1006.887 968.373 Q 1002.429 964.478 998.761 959.445 Q 995.094 954.412 992.583 948.814 Q 990.073 943.215 988.330 936.780 Q 986.587 930.345 986.031 922.542 Q 985.475 914.740 986.358 906.913 Q 987.242 899.086 987.849 895.633 Q 988.456 892.180 989.820 886.271 Q 991.184 880.361 993.900 872.968 Q 996.616 865.576 999.915 859.714 Q 1003.214 853.853 1007.069 848.883 Q 1010.924 843.914 1015.094 839.888 Q 1019.264 835.863 1022.093 833.781 Q 1024.922 831.700 1029.686 828.950 Q 1034.449 826.200 1040.098 823.409 "></path>
    <path id="STROKE_99b0cce7-2dd1-4d2b-b970-1b3436011cbf" opacity="1.000" fill="none" stroke="#000000" stroke-width="3.952" stroke-opacity="1.000" stroke-linecap="round" stroke-linejoin="round" d="M 846.560 434.312 Q 846.882 434.219 846.978 434.155 Q 847.075 434.091 851.614 432.245 Q 856.154 430.400 862.388 429.516 Q 868.622 428.633 871.889 428.304 Q 875.156 427.974 879.058 428.242 Q 882.960 428.509 886.365 429.805 Q 889.769 431.101 892.214 432.733 Q 894.658 434.365 898.013 437.118 Q 901.369 439.871 905.363 443.755 Q 909.357 447.640 911.655 450.472 Q 913.953 453.304 915.352 455.449 Q 916.750 457.593 917.596 458.776 Q 918.441 459.959 920.846 464.090 Q 923.251 468.220 925.344 474.481 Q 927.436 480.742 928.525 488.159 Q 929.615 495.575 929.643 501.832 Q 929.670 508.088 928.926 514.873 Q 928.181 521.657 926.548 527.112 Q 924.914 532.567 923.687 535.630 Q 922.459 538.693 918.959 544.433 Q 915.459 550.173 912.678 553.999 Q 909.896 557.824 906.560 561.166 Q 903.225 564.507 898.655 568.637 Q 894.085 572.768 890.398 575.361 Q 886.710 577.955 882.061 580.386 Q 877.412 582.818 873.174 585.130 Q 868.935 587.442 863.442 589.080 Q 857.949 590.718 854.123 591.251 Q 850.297 591.784 846.369 591.820 Q 842.442 591.857 838.880 591.609 Q 835.318 591.362 829.861 590.297 Q 824.405 589.233 819.501 587.424 Q 814.598 585.615 811.223 583.825 Q 807.849 582.034 806.155 581.035 Q 804.460 580.035 803.177 579.231 Q 801.894 578.428 800.602 577.622 Q 799.310 576.815 795.955 573.163 Q 792.601 569.510 790.710 566.550 Q 788.819 563.591 787.004 560.842 Q 785.189 558.094 783.324 553.741 Q 781.460 549.388 780.443 546.113 Q 779.427 542.838 778.506 537.399 Q 777.585 531.960 777.286 528.671 Q 776.986 525.381 776.835 519.545 Q 776.684 513.710 777.445 507.814 Q 778.206 501.918 779.085 498.033 Q 779.965 494.148 780.830 491.006 Q 781.695 487.865 783.536 483.323 Q 785.376 478.780 787.397 474.802 Q 789.418 470.824 792.042 467.050 Q 794.667 463.276 796.238 461.306 Q 797.809 459.337 801.020 455.758 Q 804.232 452.179 808.189 449.117 Q 812.147 446.056 817.600 443.873 Q 823.053 441.691 826.522 440.696 Q 829.991 439.702 835.744 438.767 Q 841.498 437.831 846.796 437.236 Q 852.094 436.640 854.810 436.261 Q 857.526 435.882 859.657 435.442 Q 861.789 435.002 866.375 433.471 "></path>
    <path id="STROKE_a4102cdd-5860-4c07-a0b0-e8a7388aa505" opacity="1.000" fill="none" stroke="#000000" stroke-width="3.952" stroke-opacity="1.000" stroke-linecap="round" stroke-linejoin="round" d="M 895.163 826.699 Q 895.459 827.116 880.143 829.543 Q 864.828 831.969 855.022 833.160 Q 845.217 834.352 840.890 834.790 Q 836.563 835.228 832.906 835.637 Q 829.249 836.046 824.261 836.545 Q 819.273 837.045 815.670 836.810 Q 812.067 836.575 810.164 836.471 Q 808.261 836.367 805.798 835.928 Q 803.335 835.489 802.099 834.852 Q 800.862 834.214 800.020 833.659 Q 799.179 833.104 798.055 831.667 Q 796.932 830.230 796.118 828.680 Q 795.303 827.130 795.061 822.525 Q 794.819 817.921 795.604 810.635 Q 796.389 803.349 796.717 797.091 Q 797.045 790.834 796.750 782.720 Q 796.456 774.607 795.754 767.994 Q 795.052 761.381 793.840 754.030 Q 792.627 746.678 791.508 739.019 Q 790.389 731.360 789.948 727.420 Q 789.508 723.479 789.289 720.490 Q 789.071 717.502 788.925 712.313 Q 788.780 707.125 788.879 703.710 Q 788.978 700.295 789.410 698.287 Q 789.842 696.280 790.827 693.876 Q 791.811 691.471 796.785 689.572 Q 801.758 687.673 806.265 686.510 Q 810.772 685.348 816.850 683.573 Q 822.928 681.798 830.651 679.808 Q 838.374 677.818 842.617 676.848 Q 846.860 675.877 853.216 675.328 Q 859.573 674.779 867.755 675.258 Q 875.937 675.737 881.143 675.993 Q 886.349 676.248 890.288 676.266 Q 894.228 676.283 896.171 676.308 Q 898.115 676.332 898.972 676.516 Q 899.829 676.699 900.507 677.107 Q 901.185 677.515 901.413 677.923 Q 901.640 678.331 901.654 678.413 Q 901.667 678.494 902.292 679.673 Q 902.916 680.853 903.214 697.257 Q 903.512 713.661 903.105 727.645 Q 902.698 741.630 902.357 754.722 Q 902.016 767.814 901.826 775.605 Q 901.636 783.396 901.673 791.928 Q 901.710 800.459 902.045 805.955 Q 902.379 811.450 903.130 816.665 Q 903.881 821.880 903.367 826.426 Q 903.122 826.525 902.671 825.696 Q 902.219 824.866 901.706 823.287 "></path>
    <path id="STROKE_18fa75e0-ecec-48af-95e3-7d554b7d1c26" opacity="1.000" fill="none" stroke="#000000" stroke-width="3.952" stroke-opacity="1.000" stroke-linecap="round" stroke-linejoin="round" d="M 881.751 699.814 Q 882.004 699.984 873.733 700.705 Q 865.462 701.427 855.328 702.205 Q 845.193 702.982 837.958 703.570 Q 830.724 704.158 827.019 704.542 Q 823.314 704.926 821.109 705.185 Q 818.905 705.444 814.783 705.738 Q 810.661 706.031 801.114 707.328 Q 801.132 707.322 804.966 706.544 "></path>
    <path id="STROKE_6029cad7-75a4-49f6-8b18-c34099ae9014" opacity="1.000" fill="none" stroke="#000000" stroke-width="3.952" stroke-opacity="1.000" stroke-linecap="round" stroke-linejoin="round" d="M 881.003 718.695 Q 881.008 719.080 868.703 719.843 Q 856.398 720.605 847.070 721.113 Q 837.741 721.622 832.607 721.823 Q 827.473 722.025 808.016 724.442 Q 808.082 724.662 821.277 722.480 "></path>
    <path id="STROKE_ba34008e-6b7b-4487-8e41-b56f2ec69a6e" opacity="1.000" fill="none" stroke="#000000" stroke-width="3.952" stroke-opacity="1.000" stroke-linecap="round" stroke-linejoin="round" d="M 879.367 740.146 Q 879.187 740.190 868.128 740.437 Q 857.070 740.683 848.732 741.526 Q 840.394 742.368 836.679 742.846 Q 832.965 743.325 827.553 744.076 Q 822.142 744.827 818.878 745.417 Q 815.613 746.006 811.111 745.777 Q 811.073 745.593 811.089 745.474 "></path>
    <path id="STROKE_6c4d733e-32f5-4488-bcfc-312be0bc323c" opacity="1.000" fill="none" stroke="#000000" stroke-width="3.952" stroke-opacity="1.000" stroke-linecap="round" stroke-linejoin="round" d="M 878.199 757.391 Q 878.292 758.856 863.693 759.660 Q 849.093 760.464 840.255 760.999 Q 831.416 761.534 826.752 762.083 Q 822.087 762.631 813.529 764.379 Q 813.524 764.356 813.566 764.308 "></path>
    <path id="STROKE_797a0bed-7fa0-400e-9d6e-57bb481653c5" opacity="1.000" fill="none" stroke="#000000" stroke-width="3.952" stroke-opacity="1.000" stroke-linecap="round" stroke-linejoin="round" d="M 875.255 776.880 Q 874.777 777.042 872.407 777.534 Q 870.038 778.026 863.378 778.857 Q 856.717 779.688 852.837 780.051 Q 848.957 780.414 846.272 780.688 Q 843.586 780.961 814.603 782.440 L 814.594 782.441 "></path>
    <path id="STROKE_0f14cf9b-ca84-477e-b8fe-bddfca3760c7" opacity="1.000" fill="none" stroke="#000000" stroke-width="3.952" stroke-opacity="1.000" stroke-linecap="round" stroke-linejoin="round" d="M 875.862 798.331 Q 875.357 798.681 861.574 799.288 Q 847.791 799.896 839.873 800.482 Q 831.956 801.068 827.862 801.624 Q 823.769 802.179 819.202 803.247 L 819.781 803.051 "></path>
    <path id="STROKE_1846a784-08bf-40af-b484-17161738cd76" opacity="1.000" fill="none" stroke="#000000" stroke-width="3.952" stroke-opacity="1.000" stroke-linecap="round" stroke-linejoin="round" d="M 884.228 812.305 Q 884.070 812.725 871.832 813.816 Q 859.593 814.907 852.836 815.354 Q 846.079 815.802 842.866 816.150 Q 839.653 816.499 835.457 816.861 Q 831.260 817.223 828.834 817.494 Q 826.407 817.764 825.073 817.976 Q 823.739 818.188 822.998 818.278 Q 822.256 818.367 821.923 818.416 Q 821.590 818.465 820.913 818.291 Q 820.935 818.152 820.996 818.053 "></path>
    <path id="STROKE_2c0f8932-ad49-4643-8458-d4233b277580" opacity="1.000" fill="none" stroke="#000000" stroke-width="1.591" stroke-opacity="1.000" stroke-linecap="round" stroke-linejoin="round" d="M 586.240 865.261 Q 585.640 865.908 585.610 865.922 Q 585.161 866.253 585.137 866.255 Q 584.369 866.701 583.109 867.824 Q 581.849 868.946 581.004 869.873 Q 580.159 870.799 579.559 871.619 Q 578.959 872.439 578.606 872.922 Q 578.252 873.406 577.482 875.133 Q 576.711 876.861 576.421 878.372 Q 576.131 879.883 576.083 880.661 Q 576.035 881.439 576.181 882.509 Q 576.327 883.579 576.664 884.496 Q 577.000 885.413 577.443 885.969 Q 577.886 886.525 578.441 887.091 Q 578.995 887.656 581.148 887.993 Q 583.301 888.329 589.932 886.151 "></path>
    <path id="STROKE_4a17284c-917f-4f64-bd77-2a585c5fc154" opacity="1.000" fill="none" stroke="#000000" stroke-width="1.591" stroke-opacity="1.000" stroke-linecap="round" stroke-linejoin="round" d="M 585.166 877.552 Q 584.489 878.098 584.307 878.237 Q 584.125 878.377 584.100 878.387 Q 584.076 878.397 583.728 878.685 Q 583.380 878.973 577.326 880.573 Q 577.264 880.509 577.314 880.356 "></path>
    <path id="STROKE_b8aa7ff4-e411-4461-b76d-6a6ed465710d" opacity="1.000" fill="none" stroke="#000000" stroke-width="1.591" stroke-opacity="1.000" stroke-linecap="round" stroke-linejoin="round" d="M 594.092 877.786 Q 593.956 878.248 593.067 879.679 Q 592.178 881.109 592.253 882.617 Q 592.328 884.125 592.673 884.658 Q 593.017 885.190 593.239 885.459 Q 593.461 885.729 594.424 886.026 Q 595.387 886.324 596.307 886.125 Q 597.227 885.926 597.874 885.640 Q 598.520 885.353 599.279 884.936 "></path>
    <path id="STROKE_64752cc4-a98c-48fc-9890-a291dd5cd377" opacity="1.000" fill="none" stroke="#000000" stroke-width="1.591" stroke-opacity="1.000" stroke-linecap="round" stroke-linejoin="round" d="M 602.784 876.944 Q 603.491 877.447 603.519 877.435 Q 604.328 877.775 605.602 878.139 Q 606.876 878.504 607.511 878.938 Q 608.146 879.372 608.118 879.377 Q 608.090 879.382 608.644 880.361 Q 609.199 881.339 607.969 882.526 Q 606.739 883.712 605.877 884.005 Q 605.016 884.298 604.484 884.520 Q 603.951 884.742 602.724 884.776 Q 601.496 884.810 600.917 884.125 Q 600.339 883.440 600.242 882.962 Q 600.145 882.483 600.641 881.101 Q 601.136 879.718 601.506 879.128 Q 601.877 878.538 602.772 877.768 Q 603.666 876.997 605.402 876.221 Q 607.138 875.445 608.915 875.827 Q 610.691 876.208 611.206 876.687 Q 611.721 877.166 612.167 877.858 Q 612.613 878.550 612.759 878.852 Q 612.905 879.155 612.914 879.167 Q 612.923 879.179 613.073 879.570 Q 613.223 879.961 613.311 880.247 Q 613.398 880.533 613.483 880.833 Q 613.568 881.132 613.594 881.099 Q 613.620 881.066 613.662 882.026 Q 613.705 882.986 613.582 883.696 Q 613.459 884.406 613.474 884.863 L 613.499 884.873 L 613.840 884.531 Q 614.068 884.229 614.426 882.972 Q 614.784 881.716 615.002 880.720 Q 615.220 879.724 615.318 879.254 Q 615.415 878.784 615.491 878.558 Q 615.567 878.332 615.763 877.903 Q 615.959 877.475 616.246 877.020 Q 616.533 876.566 616.839 876.286 Q 617.144 876.007 617.509 876.003 Q 617.875 875.999 618.129 876.069 Q 618.383 876.139 618.391 876.168 Q 618.399 876.198 618.550 876.283 Q 618.702 876.369 619.641 878.158 Q 620.581 879.948 621.553 882.532 Q 621.647 882.419 621.748 881.823 Q 621.848 881.226 621.931 880.772 Q 622.014 880.319 622.112 879.884 Q 622.210 879.450 622.271 878.801 Q 622.333 878.152 622.797 877.604 Q 623.262 877.055 623.726 876.786 Q 624.191 876.517 624.489 876.504 Q 624.787 876.491 624.809 876.505 Q 624.831 876.519 625.284 876.516 Q 625.737 876.514 627.454 876.751 Q 629.171 876.987 629.880 877.402 Q 630.589 877.817 630.875 878.169 Q 631.161 878.522 630.723 879.847 Q 630.286 881.173 628.562 881.956 Q 626.838 882.739 625.584 882.854 Q 624.330 882.970 623.688 882.644 Q 623.046 882.318 622.730 881.783 Q 622.414 881.248 622.401 880.881 Q 622.388 880.515 622.645 879.767 Q 622.901 879.020 623.109 878.667 Q 623.316 878.313 624.222 877.475 Q 625.127 876.637 626.055 876.125 Q 626.983 875.613 627.921 875.417 Q 628.859 875.222 629.641 875.193 Q 630.422 875.165 630.874 875.250 Q 631.326 875.335 631.949 875.574 Q 632.571 875.813 633.014 876.070 Q 633.456 876.326 633.980 876.722 Q 634.504 877.118 634.865 877.663 Q 635.225 878.208 635.285 878.344 Q 635.344 878.480 635.392 878.644 Q 635.440 878.808 635.458 878.933 Q 635.476 879.058 635.462 879.106 Q 635.449 879.154 635.495 879.002 Q 635.540 878.851 635.674 878.520 Q 635.807 878.188 636.000 877.799 Q 636.192 877.410 636.496 876.898 Q 636.800 876.385 637.130 875.881 Q 637.460 875.377 637.848 874.906 Q 638.235 874.436 638.243 874.436 Q 638.250 874.435 638.251 874.404 Q 638.252 874.373 638.838 874.063 Q 639.423 873.753 639.952 873.826 Q 640.480 873.899 641.234 874.481 Q 641.988 875.062 642.282 875.401 Q 642.575 875.739 642.818 876.066 Q 643.060 876.392 643.338 876.844 Q 643.616 877.296 644.081 878.099 Q 644.546 878.902 644.724 879.224 Q 644.903 879.546 645.197 879.857 Q 645.492 880.168 645.873 880.001 Q 646.254 879.834 646.557 879.348 Q 646.859 878.862 647.080 878.359 Q 647.301 877.856 647.444 877.543 Q 647.588 877.230 647.729 876.898 Q 647.870 876.565 648.115 875.961 Q 648.361 875.356 648.475 875.174 Q 648.590 874.993 648.952 874.760 Q 649.314 874.527 649.329 874.539 Q 649.344 874.552 649.476 874.608 Q 649.607 874.664 649.922 874.955 Q 650.237 875.246 650.628 875.779 Q 651.018 876.313 651.232 876.672 Q 651.446 877.030 651.784 877.705 Q 652.121 878.381 652.267 878.630 Q 652.412 878.878 652.486 878.960 Q 652.560 879.042 652.841 879.123 Q 653.112 878.774 653.168 878.239 Q 653.224 877.704 653.403 876.816 Q 653.582 875.928 653.738 875.403 Q 653.893 874.878 654.410 874.060 Q 654.927 873.243 655.710 873.393 Q 656.493 873.543 656.924 873.990 Q 657.354 874.437 657.364 874.445 Q 657.375 874.453 657.759 874.956 Q 658.143 875.458 658.464 875.948 Q 658.785 876.439 659.133 877.631 L 659.146 877.739 "></path>
    <path id="STROKE_abb7e54f-a690-45f7-aaa3-b0433e83b500" opacity="1.000" fill="none" stroke="#000000" stroke-width="1.591" stroke-opacity="1.000" stroke-linecap="round" stroke-linejoin="round" d="M 653.584 864.326 Q 654.014 865.520 655.500 866.663 "></path>
    <path id="STROKE_50c30915-ff61-40a5-96cf-ab96a567931d" opacity="1.000" fill="none" stroke="#000000" stroke-width="1.591" stroke-opacity="1.000" stroke-linecap="round" stroke-linejoin="round" d="M 667.184 868.579 Q 666.238 870.174 666.315 869.911 Q 665.878 870.251 664.719 871.366 Q 663.560 872.481 663.268 873.297 Q 662.976 874.112 663.001 874.848 Q 663.026 875.583 663.301 875.965 Q 663.576 876.346 663.885 876.601 Q 664.194 876.857 664.447 877.053 Q 664.701 877.249 665.637 877.557 Q 666.573 877.865 667.194 877.916 Q 667.815 877.967 668.462 877.905 Q 669.109 877.842 669.988 877.645 "></path>
    <path id="STROKE_0d1b2439-4048-4e1e-a91e-5831d65fa114" opacity="1.000" fill="none" stroke="#000000" stroke-width="1.591" stroke-opacity="1.000" stroke-linecap="round" stroke-linejoin="round" d="M 675.596 868.345 Q 675.574 868.729 674.733 869.403 Q 673.892 870.077 669.877 871.395 Q 670.192 871.599 673.003 872.724 Q 675.813 873.849 676.868 874.472 Q 677.923 875.094 678.680 875.951 Q 679.436 876.807 679.149 877.640 Q 678.862 878.473 677.978 878.943 Q 677.094 879.412 676.157 879.608 "></path>
    <path id="STROKE_097031f7-2fb5-4cc5-bc6c-38c0ad4fc8aa" opacity="1.000" fill="none" stroke="#000000" stroke-width="1.591" stroke-opacity="1.000" stroke-linecap="round" stroke-linejoin="round" d="M 1016.895 873.533 Q 1016.990 873.570 1017.103 872.616 Q 1017.216 871.662 1017.280 870.772 Q 1017.343 869.883 1017.342 869.182 Q 1017.341 868.481 1017.366 867.832 Q 1017.391 867.183 1017.137 865.011 Q 1016.883 862.838 1017.015 859.521 Q 1017.146 856.205 1017.428 854.122 Q 1017.710 852.040 1018.995 850.689 Q 1019.370 850.277 1020.004 853.150 Q 1020.639 856.023 1021.211 858.104 Q 1021.784 860.186 1022.353 861.255 Q 1022.923 862.324 1023.434 862.759 Q 1023.945 863.195 1024.472 863.237 Q 1025.000 863.280 1025.545 862.737 Q 1026.091 862.194 1026.527 861.305 Q 1026.964 860.417 1027.295 859.546 Q 1027.627 858.675 1027.740 858.131 Q 1027.852 857.588 1029.898 853.326 Q 1030.021 853.049 1030.798 853.811 Q 1031.575 854.573 1032.099 855.605 Q 1032.624 856.636 1033.062 857.897 Q 1033.500 859.157 1033.682 859.877 Q 1033.864 860.597 1034.140 861.582 Q 1034.416 862.566 1034.944 864.841 Q 1035.472 867.116 1035.719 868.637 Q 1035.967 870.158 1036.103 871.430 "></path>
    <path id="STROKE_e5bb4992-132c-4a0b-9507-01024fc74ac8" opacity="1.000" fill="none" stroke="#000000" stroke-width="1.591" stroke-opacity="1.000" stroke-linecap="round" stroke-linejoin="round" d="M 1040.169 861.335 Q 1040.152 861.343 1040.228 862.061 Q 1040.303 862.779 1039.854 863.499 Q 1039.405 864.220 1038.629 864.595 Q 1037.854 864.969 1037.569 865.286 Q 1037.285 865.602 1037.284 865.622 Q 1037.283 865.642 1037.046 866.175 Q 1036.809 866.707 1036.969 867.895 Q 1037.129 869.082 1037.323 869.616 Q 1037.517 870.150 1037.866 870.598 Q 1038.216 871.045 1038.248 871.088 Q 1038.280 871.132 1038.877 870.892 Q 1039.475 870.653 1039.566 870.385 Q 1039.657 870.117 1039.891 869.148 Q 1040.126 868.179 1040.121 868.042 Q 1040.117 867.906 1040.133 867.609 Q 1040.149 867.312 1040.150 867.114 Q 1040.151 866.916 1040.133 866.585 Q 1040.116 866.255 1040.712 864.754 Q 1041.181 865.015 1041.132 865.024 Q 1040.778 864.583 1044.007 870.475 L 1044.141 870.542 "></path>
    <path id="STROKE_0f839030-43d8-4dfb-af73-1925bff305fc" opacity="1.000" fill="none" stroke="#000000" stroke-width="1.591" stroke-opacity="1.000" stroke-linecap="round" stroke-linejoin="round" d="M 1045.636 863.999 Q 1045.691 864.238 1045.544 863.891 Q 1045.396 863.543 1047.396 869.534 Q 1047.557 869.523 1047.871 869.129 Q 1048.185 868.735 1048.458 868.257 Q 1048.730 867.779 1049.036 867.121 Q 1049.342 866.462 1049.441 865.841 Q 1049.540 865.219 1052.053 861.980 Q 1052.362 861.859 1052.719 863.093 Q 1053.076 864.328 1053.273 865.862 Q 1053.470 867.396 1053.721 870.232 L 1053.768 870.214 "></path>
    <path id="STROKE_55f69cba-97bd-479b-9ac1-0d31b56ad465" opacity="1.000" fill="none" stroke="#000000" stroke-width="1.591" stroke-opacity="1.000" stroke-linecap="round" stroke-linejoin="round" d="M 1055.778 860.681 Q 1055.763 860.688 1056.655 863.375 Q 1057.547 866.063 1057.902 867.273 Q 1058.257 868.482 1058.782 870.205 Q 1058.927 870.173 1059.276 868.346 Q 1059.626 866.519 1059.780 865.538 Q 1059.933 864.557 1060.046 864.056 Q 1060.158 863.555 1060.241 863.251 Q 1060.325 862.948 1060.407 862.731 Q 1060.490 862.515 1060.801 861.950 Q 1061.112 861.386 1061.234 861.259 Q 1061.356 861.132 1061.450 861.174 Q 1062.081 861.515 1062.686 864.440 Q 1063.291 867.365 1063.357 867.683 Q 1063.423 868.002 1063.591 868.470 Q 1063.758 868.939 1063.869 869.047 Q 1064.161 868.813 1064.181 868.776 Q 1064.200 868.739 1064.281 868.607 Q 1064.361 868.475 1064.356 868.509 Q 1064.351 868.543 1064.763 867.621 Q 1065.176 866.700 1065.680 865.825 Q 1066.184 864.951 1066.467 864.577 Q 1066.751 864.202 1067.291 863.768 Q 1067.831 863.333 1068.078 863.239 Q 1068.325 863.145 1068.340 863.148 Q 1068.354 863.150 1068.560 863.108 Q 1068.765 863.065 1069.252 863.105 Q 1069.739 863.146 1070.099 863.223 Q 1070.458 863.300 1070.468 863.298 Q 1070.478 863.295 1070.994 863.325 Q 1071.510 863.354 1071.818 863.315 Q 1072.125 863.275 1072.636 863.053 Q 1073.147 862.831 1073.529 862.264 Q 1073.910 861.698 1073.927 861.587 Q 1073.943 861.476 1074.028 861.054 Q 1074.113 860.632 1073.746 859.788 Q 1073.379 858.944 1072.922 858.571 Q 1072.464 858.197 1072.493 858.214 Q 1072.523 858.232 1071.853 858.031 Q 1071.183 857.830 1070.551 858.127 Q 1069.918 858.424 1069.416 860.402 Q 1068.912 862.379 1069.008 863.703 Q 1069.103 865.028 1069.270 865.948 Q 1069.438 866.869 1070.001 867.784 Q 1070.564 868.700 1071.026 868.848 Q 1071.489 868.997 1071.882 868.986 Q 1072.276 868.975 1072.424 868.926 Q 1072.572 868.877 1072.998 868.616 Q 1073.424 868.355 1073.513 868.267 Q 1073.602 868.180 1073.900 867.859 Q 1074.199 867.537 1074.376 867.267 Q 1074.554 866.996 1074.796 866.561 Q 1075.038 866.126 1075.235 865.721 Q 1075.432 865.316 1075.611 864.858 Q 1075.790 864.401 1076.043 863.739 Q 1076.297 863.078 1076.417 862.895 Q 1076.538 862.713 1076.820 862.632 Q 1077.103 862.550 1077.941 863.676 Q 1078.779 864.801 1079.312 865.817 Q 1079.846 866.834 1080.391 867.826 L 1080.413 867.824 Q 1080.461 867.142 1080.451 867.120 Q 1080.376 865.831 1080.450 865.157 Q 1080.525 864.482 1080.653 863.946 Q 1080.782 863.410 1081.087 862.637 Q 1081.392 861.863 1081.716 861.321 Q 1082.040 860.779 1082.329 860.478 Q 1082.618 860.177 1082.797 860.063 Q 1082.976 859.948 1082.976 859.922 Q 1082.977 859.895 1083.839 859.896 Q 1084.700 859.898 1085.318 860.243 Q 1085.935 860.587 1086.162 860.774 Q 1086.388 860.961 1086.442 860.994 Q 1086.495 861.027 1086.632 861.338 Q 1086.769 861.649 1086.871 862.022 Q 1086.973 862.396 1086.984 862.641 Q 1086.995 862.885 1087.016 863.129 Q 1087.037 863.373 1087.115 864.314 Q 1087.193 865.255 1087.303 865.936 Q 1087.412 866.618 1087.484 866.986 Q 1087.556 867.354 1087.656 867.738 L 1087.697 867.831 "></path>
    <path id="STROKE_cd05237e-c41c-4374-8eb8-8cd546601944" opacity="1.000" fill="none" stroke="#000000" stroke-width="1.591" stroke-opacity="1.000" stroke-linecap="round" stroke-linejoin="round" d="M 1084.473 852.642 Q 1084.732 853.427 1084.725 853.434 Q 1084.717 853.440 1084.958 854.017 Q 1085.198 854.594 1085.316 854.709 Q 1085.435 854.825 1086.108 854.839 "></path>
    <path id="STROKE_391eac6e-48c4-460c-b795-a4d59429b569" opacity="1.000" fill="none" stroke="#000000" stroke-width="1.591" stroke-opacity="1.000" stroke-linecap="round" stroke-linejoin="round" d="M 1095.268 858.858 Q 1095.561 859.475 1094.037 859.780 Q 1092.513 860.085 1091.689 860.668 Q 1090.865 861.252 1090.830 862.118 Q 1090.795 862.985 1091.321 863.633 Q 1091.847 864.281 1092.909 864.928 Q 1093.971 865.574 1094.798 865.830 Q 1095.624 866.086 1097.992 868.264 Q 1097.983 869.718 1093.586 868.766 "></path>
    <path id="STROKE_3965bead-5da2-4ea9-8b36-4b8629973bb3" opacity="1.000" fill="none" stroke="#000000" stroke-width="1.591" stroke-opacity="1.000" stroke-linecap="round" stroke-linejoin="round" d="M 1098.025 859.699 Q 1098.349 860.884 1102.179 867.638 Q 1102.642 867.187 1102.639 867.162 Q 1102.637 867.138 1102.750 866.689 Q 1102.864 866.240 1102.924 865.885 Q 1102.984 865.531 1103.329 864.092 Q 1103.675 862.654 1104.006 861.499 Q 1104.337 860.343 1104.834 859.930 Q 1105.331 859.516 1105.336 859.543 Q 1105.341 859.569 1105.513 859.698 Q 1105.686 859.827 1105.761 859.918 Q 1105.835 860.008 1106.147 860.505 Q 1106.458 861.001 1106.524 861.128 Q 1106.590 861.255 1107.110 862.411 Q 1107.630 863.566 1107.878 864.055 Q 1108.126 864.544 1108.368 864.817 Q 1108.609 865.091 1108.716 865.118 Q 1108.822 865.146 1108.909 865.131 Q 1108.996 865.116 1109.053 865.082 Q 1109.110 865.048 1109.305 864.644 Q 1109.500 864.240 1109.499 864.224 Q 1109.498 864.208 1109.621 863.722 Q 1109.744 863.236 1109.798 862.891 Q 1109.852 862.546 1110.369 861.355 Q 1110.887 860.165 1111.515 859.552 Q 1112.144 858.938 1112.719 858.740 Q 1113.293 858.541 1113.669 858.602 Q 1114.046 858.664 1114.343 858.823 Q 1114.640 858.982 1114.855 859.243 Q 1115.071 859.503 1115.196 859.517 Q 1115.321 859.531 1116.021 862.015 Q 1116.720 864.499 1116.859 867.364 "></path>
    <path id="STROKE_dbfa3f06-3fce-43e5-b3c2-01d772fddeb2" opacity="1.000" fill="none" stroke="#000000" stroke-width="1.591" stroke-opacity="1.000" stroke-linecap="round" stroke-linejoin="round" d="M 1126.720 855.026 Q 1126.803 855.658 1126.673 856.453 Q 1126.542 857.249 1126.473 857.359 Q 1126.403 857.468 1126.389 857.479 Q 1126.376 857.490 1126.037 857.933 Q 1125.699 858.375 1121.098 860.682 Q 1122.149 861.631 1124.045 862.449 Q 1125.942 863.267 1127.588 864.144 Q 1129.234 865.021 1129.981 865.748 Q 1130.727 866.475 1130.978 867.000 Q 1131.228 867.523 1131.342 867.942 Q 1131.456 868.361 1131.249 869.163 Q 1131.042 869.965 1130.736 870.285 Q 1130.429 870.605 1129.665 870.938 Q 1128.902 871.272 1128.169 871.243 "></path>
    <path id="STROKE_1562eed7-845e-4f3d-b493-4f56b4625110" opacity="1.000" fill="none" stroke="#000000" stroke-width="1.591" stroke-opacity="1.000" stroke-linecap="round" stroke-linejoin="round" d="M 812.200 481.800 Q 812.277 481.290 812.252 481.212 Q 812.323 479.917 810.572 475.367 Q 808.821 470.817 808.078 468.425 Q 807.334 466.032 807.201 464.951 Q 807.068 463.869 807.665 462.653 Q 808.261 461.437 809.583 461.672 Q 810.904 461.906 811.452 462.132 Q 812.000 462.359 812.013 462.376 Q 812.026 462.393 812.915 462.972 Q 813.804 463.552 813.966 464.084 Q 814.129 464.616 813.847 465.628 Q 813.565 466.639 811.920 468.567 Q 810.276 470.494 808.321 472.220 "></path>
    <path id="STROKE_9817e1bc-99d9-42c1-b31c-65c53c7f1731" opacity="1.000" fill="none" stroke="#000000" stroke-width="1.591" stroke-opacity="1.000" stroke-linecap="round" stroke-linejoin="round" d="M 815.658 472.827 Q 815.850 473.277 816.305 475.665 Q 816.760 478.052 817.342 479.062 Q 817.925 480.073 818.243 480.408 Q 818.560 480.742 818.876 480.852 Q 819.191 480.962 819.550 480.834 Q 819.908 480.706 820.230 480.455 Q 820.551 480.204 820.946 479.725 Q 821.341 479.245 821.520 478.843 Q 821.699 478.441 821.906 477.926 Q 822.113 477.411 822.107 477.400 Q 822.101 477.390 822.732 476.995 Q 823.442 477.293 824.832 480.339 Q 824.847 480.340 826.157 478.991 Q 826.208 478.917 827.694 479.976 Q 827.614 479.626 827.633 479.652 Q 827.703 479.976 827.552 478.594 Q 827.401 477.213 827.693 476.007 Q 827.986 474.801 828.219 474.577 Q 828.452 474.352 828.838 474.298 Q 829.224 474.243 829.187 474.252 Q 829.151 474.261 829.736 474.286 Q 830.321 474.311 832.526 477.431 Q 834.731 480.551 836.760 488.708 Q 836.808 487.782 835.578 482.932 Q 834.347 478.082 834.092 472.983 Q 834.401 472.622 836.237 472.488 Q 838.073 472.353 839.599 473.051 Q 841.125 473.749 841.898 474.376 Q 842.670 475.004 843.091 475.428 Q 843.512 475.853 843.708 476.871 Q 843.904 477.888 843.452 478.507 Q 843.001 479.125 841.441 479.964 Q 839.881 480.802 838.859 480.712 Q 837.837 480.622 836.997 480.191 Q 836.157 479.759 835.473 479.043 "></path>
    <path id="STROKE_7ae2dce0-a4d8-4fa6-859e-565fc646ea49" opacity="1.000" fill="none" stroke="#000000" stroke-width="1.591" stroke-opacity="1.000" stroke-linecap="round" stroke-linejoin="round" d="M 837.717 472.687 Q 838.041 472.427 839.778 471.680 Q 841.515 470.933 843.835 470.590 Q 846.156 470.248 847.583 470.980 Q 849.010 471.712 849.584 472.888 Q 850.158 474.063 849.936 474.765 Q 849.714 475.468 849.411 475.704 Q 849.108 475.940 847.400 476.514 Q 845.692 477.087 844.561 476.702 Q 843.430 476.317 842.798 475.833 Q 842.167 475.349 842.047 474.924 Q 841.927 474.498 841.969 473.902 "></path>
    <path id="STROKE_d3857f50-7b87-42cd-a7d5-31478633ca17" opacity="1.000" fill="none" stroke="#000000" stroke-width="1.591" stroke-opacity="1.000" stroke-linecap="round" stroke-linejoin="round" d="M 855.102 467.219 Q 854.792 467.809 854.543 468.102 Q 854.293 468.396 854.054 468.569 Q 853.814 468.741 853.297 469.085 Q 852.780 469.429 852.545 469.564 Q 852.311 469.699 851.771 470.042 Q 851.231 470.385 849.431 471.729 Q 849.366 471.862 858.586 476.564 Q 858.702 477.293 854.260 478.342 "></path>
    <path id="STROKE_89065398-95bb-4327-8bbe-0b4b2a5f79b4" opacity="1.000" fill="none" stroke="#000000" stroke-width="1.591" stroke-opacity="1.000" stroke-linecap="round" stroke-linejoin="round" d="M 857.158 473.295 Q 857.091 473.273 857.598 473.513 Q 858.104 473.753 859.229 473.494 Q 860.353 473.236 860.984 472.881 Q 861.614 472.527 861.772 472.434 Q 861.931 472.342 862.533 471.751 Q 863.135 471.161 863.200 470.813 Q 863.264 470.465 863.356 470.427 Q 863.447 470.390 862.023 470.060 Q 860.599 469.731 859.896 469.716 Q 859.193 469.700 858.949 469.717 Q 858.706 469.733 858.238 469.897 Q 857.770 470.061 857.543 471.508 Q 857.317 472.955 857.759 474.712 Q 858.201 476.469 859.125 478.043 Q 860.048 479.618 861.406 479.961 Q 862.764 480.304 863.820 480.044 Q 864.877 479.785 866.037 479.090 "></path>
    <path id="STROKE_c9a6d11d-f256-4b32-88a0-56fa61cc231d" opacity="1.000" fill="none" stroke="#000000" stroke-width="1.591" stroke-opacity="1.000" stroke-linecap="round" stroke-linejoin="round" d="M 877.908 471.285 Q 878.415 471.344 878.459 471.292 Q 879.610 470.790 879.604 470.826 Q 881.131 470.579 883.906 473.677 Q 886.680 476.775 885.593 475.716 Q 884.506 474.657 884.771 475.111 Q 884.196 476.094 882.951 476.597 Q 881.705 477.100 880.577 476.797 Q 879.449 476.495 878.985 474.938 Q 878.521 473.380 879.896 471.991 Q 881.272 470.602 883.403 471.016 Q 885.535 471.429 891.307 476.155 Q 891.077 475.259 889.201 472.537 Q 887.324 469.814 886.705 467.028 Q 886.085 464.242 886.160 462.958 Q 886.234 461.675 886.581 460.998 Q 886.927 460.322 887.625 459.844 Q 888.322 459.366 888.771 459.371 Q 889.220 459.375 889.576 459.465 Q 889.932 459.555 890.613 459.897 Q 891.293 460.239 892.255 460.863 "></path>
    <path id="STROKE_d2eaa82f-0c60-42f2-826d-3687999c7b83" opacity="1.000" fill="none" stroke="#000000" stroke-width="1.591" stroke-opacity="1.000" stroke-linecap="round" stroke-linejoin="round" d="M 892.723 467.920 Q 892.808 468.239 890.970 468.775 Q 889.131 469.311 886.834 469.509 "></path>
    <path id="STROKE_280e676c-7858-42ad-bb08-d42eb3cfa896" opacity="1.000" fill="none" stroke="#000000" stroke-width="1.591" stroke-opacity="1.000" stroke-linecap="round" stroke-linejoin="round" d="M 829.538 507.271 L 829.516 507.229 Q 829.261 505.701 829.414 505.971 Q 829.567 506.241 828.758 503.244 Q 827.949 500.246 827.262 498.247 Q 826.575 496.248 826.173 494.886 "></path>
    <path id="STROKE_3fc946bc-6181-457f-ae6f-be7ff2f81616" opacity="1.000" fill="none" stroke="#000000" stroke-width="1.591" stroke-opacity="1.000" stroke-linecap="round" stroke-linejoin="round" d="M 833.791 502.457 Q 833.846 502.622 834.062 503.166 Q 834.279 503.710 834.286 503.723 Q 834.293 503.735 834.954 504.843 Q 835.616 505.951 835.777 506.512 Q 835.749 506.638 834.585 504.420 "></path>
    <path id="STROKE_230455d0-7120-48a8-8140-6806547676ab" opacity="1.000" fill="none" stroke="#000000" stroke-width="1.591" stroke-opacity="1.000" stroke-linecap="round" stroke-linejoin="round" d="M 830.005 496.989 Q 830.068 497.104 830.273 497.300 Q 830.477 497.496 832.015 497.597 "></path>
    <path id="STROKE_a0c0a447-2ee7-4cff-9083-934077ac9f5a" opacity="1.000" fill="none" stroke="#000000" stroke-width="1.591" stroke-opacity="1.000" stroke-linecap="round" stroke-linejoin="round" d="M 843.792 506.383 L 843.818 506.829 Q 843.796 506.817 843.684 506.481 Q 843.572 506.145 843.567 506.106 Q 843.563 506.066 843.393 505.599 Q 843.223 505.131 841.624 500.801 Q 840.024 496.470 839.858 491.672 Q 840.394 491.160 843.932 493.064 "></path>
    <path id="STROKE_33d6f0ad-628b-437f-9480-aa55f260d153" opacity="1.000" fill="none" stroke="#000000" stroke-width="1.591" stroke-opacity="1.000" stroke-linecap="round" stroke-linejoin="round" d="M 846.222 499.700 Q 846.572 501.187 838.194 501.323 Q 838.102 501.271 838.324 500.915 "></path>
    <path id="STROKE_e08a4325-b063-444b-99e9-a1f5c9b03e43" opacity="1.000" fill="none" stroke="#000000" stroke-width="1.591" stroke-opacity="1.000" stroke-linecap="round" stroke-linejoin="round" d="M 850.475 500.962 Q 851.132 502.182 851.202 502.241 Q 851.273 502.300 851.422 502.361 Q 851.571 502.421 852.750 502.360 Q 853.930 502.299 854.703 501.582 Q 855.477 500.865 855.600 500.358 Q 855.723 499.852 855.730 499.468 Q 855.738 499.084 855.365 498.786 Q 854.992 498.488 854.581 498.293 Q 854.171 498.097 853.692 497.988 Q 853.213 497.879 853.155 497.858 Q 853.097 497.836 852.063 497.899 Q 851.029 497.963 849.952 498.800 Q 848.875 499.637 848.582 501.113 Q 848.290 502.589 848.444 503.855 Q 848.598 505.120 849.293 506.533 Q 849.989 507.946 851.401 508.450 Q 852.812 508.955 854.833 508.403 Q 856.854 507.851 859.121 506.757 "></path>
    <path id="STROKE_434fbedf-4388-4290-bebb-c7819ae3d158" opacity="1.000" fill="none" stroke="#000000" stroke-width="1.591" stroke-opacity="1.000" stroke-linecap="round" stroke-linejoin="round" d="M 642.555 916.949 Q 642.592 916.966 643.476 916.293 Q 644.359 915.619 645.437 915.109 Q 646.514 914.599 647.143 914.372 Q 647.772 914.144 648.152 914.078 Q 648.533 914.011 649.083 913.994 Q 649.633 913.978 650.333 914.189 Q 651.032 914.400 651.283 914.594 Q 651.534 914.787 651.910 916.058 Q 652.286 917.330 651.418 919.158 Q 650.549 920.986 649.371 921.900 Q 648.192 922.814 647.093 922.923 Q 645.994 923.032 645.152 922.659 Q 644.309 922.285 643.642 920.857 Q 642.974 919.428 643.071 918.218 Q 643.168 917.008 643.540 916.082 Q 643.912 915.155 644.625 914.527 Q 645.339 913.899 646.387 913.351 "></path>
    <path id="STROKE_e211b0da-c133-4d17-8fb9-d914694dc5fb" opacity="1.000" fill="none" stroke="#000000" stroke-width="1.591" stroke-opacity="1.000" stroke-linecap="round" stroke-linejoin="round" d="M 662.978 913.351 Q 663.498 913.181 663.548 913.121 Q 663.798 912.899 665.367 912.334 Q 666.936 911.769 667.858 911.626 Q 668.779 911.482 669.473 911.440 Q 670.168 911.398 671.026 911.537 Q 671.883 911.675 672.526 912.051 Q 673.169 912.427 673.368 912.628 Q 673.568 912.829 673.997 913.655 Q 674.426 914.481 674.360 915.843 Q 674.295 917.204 673.552 918.634 Q 672.808 920.064 671.364 921.179 Q 669.919 922.293 667.966 922.638 Q 666.012 922.982 664.366 921.855 Q 662.721 920.728 662.011 919.452 Q 661.301 918.175 661.063 917.034 Q 660.825 915.893 660.961 914.720 Q 661.096 913.547 661.482 912.369 "></path>
    <path id="STROKE_69649f2b-e209-4318-9198-f3fbeacd38a0" opacity="1.000" fill="none" stroke="#000000" stroke-width="1.591" stroke-opacity="1.000" stroke-linecap="round" stroke-linejoin="round" d="M 655.080 935.457 Q 655.445 935.269 655.162 935.296 Q 654.880 935.323 656.355 934.937 Q 657.830 934.552 659.003 934.321 Q 660.175 934.090 660.901 934.072 Q 661.627 934.054 662.233 934.153 Q 662.838 934.252 663.224 934.368 Q 663.610 934.483 663.980 934.628 Q 664.350 934.774 664.733 935.015 Q 665.116 935.255 665.514 935.763 Q 665.911 936.270 666.161 936.976 Q 666.410 937.682 666.010 939.308 Q 665.610 940.935 664.320 942.369 Q 663.029 943.803 661.468 944.676 Q 659.907 945.549 658.541 945.587 Q 657.174 945.625 656.496 945.356 Q 655.818 945.087 655.066 944.481 Q 654.314 943.875 653.439 942.093 Q 652.565 940.311 652.760 937.968 Q 652.954 935.625 653.911 933.073 "></path>
    <path id="STROKE_63ba656e-2ed4-49fe-94c1-03764ebed76b" opacity="1.000" fill="none" stroke="#000000" stroke-width="1.591" stroke-opacity="1.000" stroke-linecap="round" stroke-linejoin="round" d="M 1024.513 922.651 Q 1024.869 922.699 1027.174 922.574 Q 1029.478 922.449 1030.768 922.595 Q 1032.058 922.740 1032.410 922.835 Q 1032.762 922.930 1033.420 923.324 Q 1034.078 923.719 1034.043 924.340 Q 1034.009 924.961 1032.762 926.482 Q 1031.515 928.004 1030.097 928.662 Q 1028.680 929.321 1027.499 929.468 Q 1026.318 929.615 1025.196 928.683 Q 1024.074 927.750 1023.977 926.341 Q 1023.880 924.932 1024.761 923.526 Q 1025.641 922.120 1027.130 920.969 "></path>
    <path id="STROKE_034c3f6f-70c9-44b1-a827-1b3f6e6d7c72" opacity="1.000" fill="none" stroke="#000000" stroke-width="1.591" stroke-opacity="1.000" stroke-linecap="round" stroke-linejoin="round" d="M 1040.355 918.772 L 1040.774 917.721 Q 1040.964 917.256 1041.084 917.033 Q 1041.204 916.810 1041.404 916.526 Q 1041.603 916.242 1041.652 916.173 Q 1041.700 916.105 1041.809 916.000 Q 1041.918 915.896 1042.430 915.675 Q 1042.941 915.455 1043.509 915.506 Q 1044.077 915.557 1044.579 915.710 Q 1045.082 915.864 1045.509 916.030 Q 1045.936 916.197 1046.789 916.769 Q 1047.643 917.342 1048.262 917.895 Q 1048.881 918.448 1049.233 918.852 Q 1049.586 919.256 1049.771 919.552 Q 1049.956 919.848 1050.146 920.319 Q 1050.336 920.791 1050.329 921.302 Q 1050.322 921.813 1050.264 921.965 Q 1050.207 922.117 1050.026 922.468 Q 1049.845 922.820 1049.697 922.979 Q 1049.549 923.137 1049.000 923.569 Q 1048.452 924.001 1048.374 924.026 Q 1048.295 924.050 1047.983 924.322 Q 1047.670 924.595 1045.515 925.443 Q 1043.359 926.292 1041.687 926.430 Q 1040.014 926.568 1039.163 926.380 Q 1038.312 926.191 1037.941 926.027 Q 1037.571 925.863 1036.870 925.060 Q 1036.168 924.256 1036.081 923.252 Q 1035.993 922.248 1036.192 921.092 Q 1036.391 919.936 1037.285 918.542 Q 1038.179 917.148 1039.561 915.688 "></path>
    <path id="STROKE_f2a611db-2f6a-4725-8eba-0fa25e5a74a9" opacity="1.000" fill="none" stroke="#000000" stroke-width="1.591" stroke-opacity="1.000" stroke-linecap="round" stroke-linejoin="round" d="M 1038.533 929.568 Q 1038.213 929.726 1039.548 929.508 Q 1040.882 929.289 1042.215 929.092 Q 1043.548 928.895 1044.469 929.140 Q 1045.389 929.385 1045.712 929.850 Q 1046.034 930.314 1046.086 930.787 Q 1046.138 931.259 1045.996 931.957 Q 1045.855 932.655 1045.817 932.694 Q 1045.780 932.733 1044.836 934.143 Q 1043.891 935.553 1041.980 936.530 Q 1040.069 937.507 1038.655 937.465 Q 1037.241 937.422 1036.103 936.616 Q 1034.965 935.810 1034.651 934.112 Q 1034.336 932.415 1034.560 930.456 "></path>
    <path id="STROKE_ba6e5c00-4ecc-4367-893f-a107a0baa7c7" opacity="1.000" fill="none" stroke="#000000" stroke-width="1.591" stroke-opacity="1.000" stroke-linecap="round" stroke-linejoin="round" d="M 808.063 542.374 Q 808.214 541.980 809.246 541.043 Q 810.277 540.106 811.149 539.662 Q 812.020 539.219 812.646 539.277 Q 813.271 539.335 813.471 539.334 Q 813.671 539.334 814.604 540.152 Q 815.537 540.971 816.076 541.789 Q 816.615 542.607 817.018 544.083 Q 817.421 545.559 817.044 547.114 Q 816.667 548.670 815.541 549.629 Q 814.416 550.588 813.524 550.839 Q 812.633 551.090 812.111 551.023 Q 811.588 550.957 811.120 550.782 Q 810.651 550.607 810.063 550.149 Q 809.476 549.692 809.010 548.985 Q 808.545 548.278 808.297 547.806 Q 808.049 547.334 807.883 546.806 Q 807.717 546.279 807.519 545.619 Q 807.321 544.959 808.001 543.843 Q 808.682 542.727 810.026 541.673 "></path>
    <path id="STROKE_305e207d-6d3e-4ba0-b747-16bb5247eb39" opacity="1.000" fill="none" stroke="#000000" stroke-width="1.591" stroke-opacity="1.000" stroke-linecap="round" stroke-linejoin="round" d="M 821.569 536.626 Q 821.423 536.903 823.420 536.970 Q 825.418 537.036 826.573 537.092 Q 827.727 537.147 828.645 537.615 Q 829.562 538.083 829.743 539.691 Q 829.925 541.299 829.554 542.558 Q 829.184 543.816 828.351 545.083 Q 827.518 546.350 826.488 547.015 Q 825.457 547.680 824.081 547.530 Q 822.704 547.380 821.753 546.585 Q 820.801 545.790 820.268 544.939 Q 819.736 544.087 819.316 542.612 Q 818.895 541.136 818.881 540.135 Q 818.868 539.133 819.046 538.168 "></path>
    <path id="STROKE_cb6551a2-08ce-4792-9adf-9afe0b91ea8b" opacity="1.000" fill="none" stroke="#000000" stroke-width="1.591" stroke-opacity="1.000" stroke-linecap="round" stroke-linejoin="round" d="M 820.541 554.245 Q 820.573 554.130 820.767 553.463 Q 820.962 552.795 821.594 552.445 Q 822.227 552.094 822.460 552.107 Q 822.693 552.119 823.243 552.297 Q 823.793 552.474 824.862 553.160 Q 825.931 553.846 826.597 555.437 Q 827.262 557.028 826.428 558.244 Q 825.594 559.459 823.924 560.146 Q 822.253 560.833 820.469 560.562 Q 818.686 560.291 817.797 559.245 Q 816.908 558.200 817.125 556.476 Q 817.341 554.753 818.345 552.936 "></path>
    <path id="STROKE_c96a2ab4-a2d5-44d3-be72-7793c146da6d" opacity="1.000" fill="none" stroke="#45b046" stroke-width="1.591" stroke-opacity="1.000" stroke-linecap="round" stroke-linejoin="round" d="M 802.926 736.212 Q 802.914 736.220 803.265 736.126 Q 803.274 736.053 802.082 736.131 Q 800.889 736.208 799.510 736.391 Q 798.131 736.573 797.479 736.699 Q 796.827 736.824 795.874 737.031 Q 794.921 737.238 794.433 737.962 Q 793.945 738.687 793.669 739.372 Q 793.393 740.057 793.111 742.817 Q 792.829 745.576 793.234 749.801 Q 793.638 754.025 794.084 756.443 Q 794.529 758.862 794.831 761.752 Q 795.132 764.642 795.238 766.977 Q 795.344 769.312 795.374 771.946 Q 795.404 774.580 795.466 776.623 Q 795.528 778.666 795.598 780.134 Q 795.669 781.602 795.813 783.620 Q 795.957 785.638 796.003 787.119 Q 796.049 788.599 796.036 789.404 Q 796.022 790.209 796.124 790.804 Q 796.226 791.399 796.449 791.752 Q 796.672 792.106 796.689 792.111 Q 796.706 792.116 797.037 792.231 Q 797.368 792.345 797.983 792.198 Q 798.598 792.052 798.859 791.956 Q 799.121 791.861 799.530 791.702 Q 799.940 791.543 800.521 791.332 Q 801.102 791.122 801.871 790.930 Q 802.641 790.739 803.844 790.868 Q 805.048 790.997 805.648 791.151 Q 806.248 791.305 807.285 791.401 Q 808.321 791.497 809.453 791.411 "></path>
    <path id="STROKE_3f7f5ecb-2e78-41c5-9f25-5654f8cc4c60" opacity="1.000" fill="none" stroke="#45b046" stroke-width="1.591" stroke-opacity="1.000" stroke-linecap="round" stroke-linejoin="round" d="M 885.448 734.472 Q 885.227 734.558 886.035 734.002 Q 886.844 733.446 887.483 733.168 Q 888.121 732.891 888.678 732.685 Q 889.235 732.479 889.852 732.309 Q 890.468 732.139 890.876 732.035 Q 891.283 731.932 892.183 731.757 Q 893.083 731.582 893.779 731.443 Q 894.475 731.303 895.769 731.113 Q 897.063 730.923 897.755 730.799 Q 898.447 730.676 899.281 730.703 Q 900.116 730.731 900.755 730.962 Q 901.394 731.194 901.995 731.546 Q 902.595 731.898 902.995 733.580 Q 903.393 735.261 903.236 739.385 Q 903.079 743.508 903.050 745.840 Q 903.021 748.172 903.147 751.832 Q 903.272 755.491 903.504 758.477 Q 903.735 761.463 903.828 765.651 Q 903.921 769.839 903.884 773.473 Q 903.847 777.108 903.890 778.771 Q 903.932 780.435 904.033 781.202 Q 904.133 781.970 904.331 782.560 Q 904.528 783.150 904.652 783.451 Q 904.776 783.752 904.911 784.007 Q 905.045 784.262 905.107 784.962 Q 905.169 785.661 905.102 786.074 Q 905.035 786.486 904.803 787.175 Q 904.571 787.864 901.448 788.125 Q 898.326 788.386 894.773 788.637 Q 891.220 788.888 889.164 789.085 Q 887.108 789.281 885.564 789.410 "></path>
    <path id="STROKE_3138937a-9dbb-419d-bcee-73b0e9cca512" opacity="1.000" fill="none" stroke="#45b046" stroke-width="1.591" stroke-opacity="1.000" stroke-linecap="round" stroke-linejoin="round" d="M 905.288 757.793 Q 904.915 757.945 907.474 757.489 Q 910.033 757.032 911.827 756.984 Q 913.621 756.935 915.296 757.173 Q 916.970 757.410 921.630 760.626 Q 926.290 763.842 928.874 765.905 Q 931.459 767.969 934.400 770.718 Q 937.340 773.467 939.135 775.248 Q 940.930 777.029 942.455 779.001 Q 943.980 780.973 946.320 784.060 Q 948.659 787.148 951.424 790.848 Q 954.189 794.549 955.511 796.062 Q 956.833 797.576 960.102 802.230 Q 963.371 806.884 967.821 814.203 Q 972.272 821.522 974.422 825.253 Q 976.573 828.985 977.517 830.850 Q 978.461 832.715 979.671 834.968 Q 980.882 837.222 981.719 838.558 Q 982.557 839.894 985.230 843.259 Q 987.902 846.625 989.369 848.676 Q 990.835 850.727 992.097 851.807 Q 993.358 852.888 994.172 853.313 Q 994.986 853.738 996.425 853.862 Q 997.864 853.987 1000.079 852.731 "></path>
    <path id="STROKE_32011a64-6014-41a0-a602-e13e81c4c321" opacity="1.000" fill="none" stroke="#45b046" stroke-width="1.591" stroke-opacity="1.000" stroke-linecap="round" stroke-linejoin="round" d="M 794.341 762.666 Q 794.504 763.095 789.679 764.538 Q 784.855 765.980 781.123 766.631 Q 777.392 767.282 775.832 767.545 Q 774.273 767.807 771.134 768.567 Q 767.996 769.327 764.591 770.636 Q 761.186 771.945 758.846 773.492 Q 756.506 775.039 753.507 777.653 Q 750.508 780.266 748.099 782.364 Q 745.689 784.461 743.754 787.070 Q 741.819 789.679 739.881 791.979 Q 737.944 794.280 736.850 795.485 Q 735.755 796.689 733.936 799.630 Q 732.116 802.570 727.678 809.242 Q 723.240 815.913 720.958 819.379 Q 718.676 822.846 717.487 824.803 Q 716.299 826.761 714.081 828.639 Q 711.864 830.517 709.866 832.642 Q 707.868 834.766 706.127 836.214 Q 704.386 837.662 701.631 839.028 Q 698.875 840.393 696.989 841.753 Q 695.102 843.114 693.937 843.729 Q 692.772 844.344 692.087 844.578 Q 691.402 844.811 689.978 844.203 "></path>
    <path id="STROKE_312db349-75f3-4d8b-8d39-ad7f71fbc1f2" opacity="1.000" fill="none" stroke="#45b046" stroke-width="1.591" stroke-opacity="1.000" stroke-linecap="round" stroke-linejoin="round" d="M 836.654 727.462 Q 836.911 727.005 836.929 727.001 Q 837.909 726.898 837.687 709.474 Q 837.464 692.051 837.189 682.776 Q 836.913 673.500 836.933 669.842 Q 836.952 666.184 837.093 663.268 Q 837.235 660.351 837.184 653.381 Q 837.133 646.412 836.856 642.616 Q 836.579 638.820 837.052 635.503 Q 837.525 632.186 838.572 627.604 Q 839.619 623.021 839.998 620.592 Q 840.378 618.163 840.596 616.477 Q 840.814 614.790 841.096 613.016 Q 841.378 611.241 841.545 610.621 Q 841.713 610.001 842.353 607.295 Q 842.993 604.589 843.334 602.645 Q 843.675 600.700 844.141 599.443 Q 844.607 598.186 845.700 596.047 Q 845.802 596.023 846.006 596.196 "></path>
    <path id="STROKE_a77f6e56-755a-409c-a521-3ee923f876d4" opacity="1.000" fill="none" stroke="#000000" stroke-width="3.050" stroke-opacity="1.000" stroke-linecap="round" stroke-linejoin="round" d="M 577.000 911.815 Q 577.995 911.068 577.874 911.170 Q 578.054 911.040 578.586 910.640 Q 579.119 910.241 579.533 909.960 Q 579.946 909.680 580.514 909.252 Q 581.082 908.825 583.962 906.866 Q 586.843 904.906 590.671 903.670 Q 594.499 902.433 597.825 902.035 Q 601.150 901.636 605.265 902.029 Q 609.380 902.422 612.168 903.402 Q 614.955 904.382 617.298 905.641 Q 619.641 906.900 622.296 909.619 Q 624.951 912.338 627.707 916.738 Q 630.463 921.138 632.082 925.145 Q 633.701 929.152 634.168 933.072 Q 634.635 936.993 634.273 940.638 Q 633.912 944.284 632.115 947.836 Q 630.319 951.389 628.060 953.903 Q 625.801 956.418 623.679 958.193 Q 621.556 959.967 618.204 961.399 Q 614.852 962.830 610.793 963.146 Q 606.734 963.461 602.773 963.186 Q 598.812 962.910 594.951 961.370 Q 591.090 959.830 588.314 957.874 Q 585.538 955.918 583.069 952.975 Q 580.599 950.033 579.118 946.165 Q 577.638 942.296 577.090 940.131 Q 576.543 937.967 576.211 935.805 Q 575.880 933.644 575.628 930.409 Q 575.375 927.174 575.888 923.701 Q 576.401 920.229 576.907 918.209 Q 577.413 916.190 578.206 914.419 Q 578.999 912.648 580.088 911.238 Q 581.176 909.828 582.795 908.357 "></path>
    <path id="STROKE_b8d025ec-4fad-4a19-9cca-545693e9e27c" opacity="1.000" fill="none" stroke="#000000" stroke-width="1.591" stroke-opacity="1.000" stroke-linecap="round" stroke-linejoin="round" d="M 596.768 924.200 L 596.970 923.240 Q 597.074 922.453 597.718 921.982 Q 598.363 921.512 599.176 921.480 Q 599.989 921.449 600.693 921.805 Q 601.397 922.161 602.018 922.817 Q 602.639 923.473 602.769 923.879 Q 602.899 924.285 602.957 925.242 Q 603.016 926.199 602.900 926.672 Q 602.785 927.145 602.767 927.355 Q 602.749 927.565 602.076 928.754 Q 601.403 929.942 600.000 930.150 Q 598.597 930.357 597.631 929.884 Q 596.666 929.411 596.099 928.832 Q 595.532 928.253 595.193 927.517 Q 594.854 926.781 594.805 926.238 Q 594.755 925.695 594.783 925.517 Q 594.810 925.339 594.922 925.059 Q 595.033 924.779 595.303 924.450 Q 595.572 924.121 596.814 923.554 Q 598.056 922.986 599.899 922.377 "></path>
    <path id="STROKE_b25ba85e-c440-4406-83ea-4ad25b4ef62d" opacity="1.000" fill="none" stroke="#000000" stroke-width="1.591" stroke-opacity="1.000" stroke-linecap="round" stroke-linejoin="round" d="M 605.834 920.321 Q 606.902 920.192 606.853 920.161 Q 606.904 920.105 608.790 920.055 Q 610.676 920.005 611.412 920.591 Q 612.147 921.177 612.566 921.677 Q 612.984 922.178 613.219 923.226 Q 613.455 924.274 613.278 925.253 Q 613.102 926.233 612.360 927.224 Q 611.618 928.216 610.331 928.539 Q 609.043 928.861 607.997 928.555 Q 606.952 928.248 606.277 927.403 Q 605.602 926.557 605.557 925.231 Q 605.512 923.905 605.975 922.564 "></path>
    <path id="STROKE_a82b0856-6b07-4ccb-a26a-992e29b0a4f0" opacity="1.000" fill="none" stroke="#000000" stroke-width="1.591" stroke-opacity="1.000" stroke-linecap="round" stroke-linejoin="round" d="M 594.244 935.229 Q 594.694 934.120 594.723 934.187 Q 595.203 933.659 596.202 933.578 Q 597.201 933.496 597.925 933.640 Q 598.648 933.784 598.959 933.954 Q 599.271 934.123 600.052 934.819 Q 600.834 935.516 601.151 936.419 Q 601.467 937.323 601.253 938.663 Q 601.039 940.002 600.552 940.744 Q 600.064 941.486 599.188 942.007 Q 598.312 942.527 597.308 942.594 Q 596.304 942.660 596.107 942.552 Q 595.910 942.444 595.543 942.281 Q 595.177 942.118 594.718 941.474 Q 594.259 940.830 594.093 940.273 Q 593.926 939.717 593.861 939.245 Q 593.796 938.773 593.799 938.357 Q 593.801 937.941 593.935 937.161 Q 594.068 936.381 594.338 935.416 "></path>
    <path id="STROKE_782f843a-e23b-4021-9037-df3cce7db599" opacity="1.000" fill="none" stroke="#000000" stroke-width="1.591" stroke-opacity="1.000" stroke-linecap="round" stroke-linejoin="round" d="M 605.274 930.649 Q 605.713 930.875 605.770 930.852 L 606.886 930.764 Q 607.990 930.648 608.335 930.660 Q 608.680 930.672 609.091 930.792 Q 609.502 930.912 609.693 931.013 Q 609.884 931.115 610.254 931.499 Q 610.623 931.882 610.756 932.139 Q 610.888 932.396 610.930 932.482 Q 610.972 932.569 611.242 933.400 Q 611.512 934.232 611.341 935.205 Q 611.171 936.178 610.598 936.966 Q 610.025 937.754 608.960 938.208 Q 607.894 938.662 606.397 938.173 Q 604.900 937.684 604.193 935.896 Q 603.485 934.108 604.386 931.210 "></path>
    <path id="STROKE_75cc1936-2124-4649-8467-e956de676e5b" opacity="1.000" fill="none" stroke="#000000" stroke-width="1.591" stroke-opacity="1.000" stroke-linecap="round" stroke-linejoin="round" d="M 614.901 928.219 Q 615.376 928.635 616.944 928.265 Q 618.512 927.895 619.187 928.166 Q 619.863 928.437 620.208 929.045 Q 620.554 929.653 620.604 930.094 Q 620.654 930.536 620.651 930.542 Q 620.649 930.548 620.636 931.098 Q 620.624 931.647 620.145 933.108 Q 619.666 934.569 618.606 935.634 Q 617.546 936.699 616.996 936.939 Q 616.446 937.179 615.116 937.250 Q 613.786 937.322 612.993 936.172 Q 612.200 935.021 612.527 932.620 Q 612.855 930.220 614.106 927.985 "></path>
    <path id="STROKE_caf2270a-82fd-4980-b34a-11c6110ddc10" opacity="1.000" fill="none" stroke="#000000" stroke-width="1.591" stroke-opacity="1.000" stroke-linecap="round" stroke-linejoin="round" d="M 603.077 941.866 Q 603.851 941.608 603.876 941.607 Q 604.469 941.418 606.218 941.265 Q 607.967 941.111 608.592 941.729 Q 609.216 942.347 609.416 943.148 Q 609.615 943.950 609.557 944.948 Q 609.498 945.946 609.224 946.828 Q 608.949 947.709 608.566 948.375 Q 608.183 949.040 607.886 949.354 Q 607.590 949.669 607.058 949.973 Q 606.527 950.277 606.032 950.355 Q 605.536 950.432 605.475 950.431 Q 605.414 950.430 604.297 949.713 Q 603.180 948.995 602.675 946.645 Q 602.169 944.294 603.358 940.838 "></path>
    <path id="STROKE_65f135aa-6491-476a-8647-0047d7fce0f7" opacity="1.000" fill="none" stroke="#000000" stroke-width="3.050" stroke-opacity="1.000" stroke-linecap="round" stroke-linejoin="round" d="M 1064.156 916.676 Q 1064.545 916.262 1064.521 916.272 Q 1064.376 916.709 1065.970 913.531 Q 1067.565 910.353 1068.936 908.619 Q 1070.308 906.885 1071.411 905.778 Q 1072.514 904.670 1074.258 903.387 Q 1076.002 902.103 1078.147 901.673 Q 1080.291 901.243 1082.072 901.444 Q 1083.853 901.645 1084.975 901.872 Q 1086.096 902.100 1088.136 902.695 Q 1090.176 903.291 1091.588 903.837 Q 1093.000 904.383 1095.416 905.100 Q 1097.832 905.817 1098.920 906.297 Q 1100.009 906.778 1101.059 907.197 Q 1102.109 907.615 1104.433 909.337 Q 1106.757 911.059 1108.625 914.799 Q 1110.492 918.540 1111.228 920.629 Q 1111.964 922.719 1112.571 925.589 Q 1113.179 928.458 1112.986 932.098 Q 1112.792 935.737 1112.028 938.440 Q 1111.264 941.144 1109.237 943.627 Q 1107.210 946.109 1104.714 947.618 Q 1102.218 949.126 1099.760 950.476 Q 1097.302 951.825 1094.151 952.879 Q 1091.000 953.933 1088.023 954.436 Q 1085.046 954.939 1081.210 954.887 Q 1077.374 954.836 1073.690 953.762 Q 1070.007 952.688 1067.675 951.523 Q 1065.342 950.358 1063.098 948.594 Q 1060.854 946.830 1059.604 944.840 Q 1058.354 942.849 1057.802 940.963 Q 1057.249 939.077 1057.668 935.879 Q 1058.087 932.680 1058.494 930.688 Q 1058.901 928.695 1060.589 925.162 Q 1062.278 921.629 1063.362 919.570 Q 1064.447 917.512 1065.994 914.530 Q 1067.541 911.548 1069.390 908.684 "></path>
    <path id="STROKE_f9623e3e-f1fd-463a-a50a-41f64048e137" opacity="1.000" fill="none" stroke="#000000" stroke-width="1.591" stroke-opacity="1.000" stroke-linecap="round" stroke-linejoin="round" d="M 1077.008 916.115 Q 1077.000 916.143 1077.406 915.886 Q 1077.811 915.629 1078.898 915.323 Q 1079.985 915.016 1080.603 915.380 Q 1081.220 915.744 1081.477 916.153 Q 1081.735 916.561 1081.745 917.008 Q 1081.755 917.455 1081.718 917.738 Q 1081.682 918.022 1080.939 919.066 Q 1080.196 920.110 1079.129 920.524 Q 1078.062 920.938 1077.133 920.720 Q 1076.204 920.502 1075.622 919.652 Q 1075.041 918.802 1074.858 917.564 "></path>
    <path id="STROKE_6cf799d3-9f5f-4986-9616-385b2626eea4" opacity="1.000" fill="none" stroke="#000000" stroke-width="1.591" stroke-opacity="1.000" stroke-linecap="round" stroke-linejoin="round" d="M 1086.027 912.516 Q 1086.328 912.892 1087.148 913.046 Q 1087.969 913.201 1088.618 913.270 Q 1089.267 913.340 1089.530 913.373 Q 1089.793 913.406 1090.183 913.471 Q 1090.572 913.536 1090.984 913.649 Q 1091.395 913.762 1091.412 913.775 Q 1091.428 913.788 1092.234 914.127 Q 1093.039 914.466 1093.354 914.910 Q 1093.669 915.354 1093.811 916.240 Q 1093.954 917.125 1093.230 918.264 Q 1092.506 919.403 1091.640 920.149 Q 1090.773 920.895 1089.501 921.260 Q 1088.228 921.625 1087.189 921.302 Q 1086.151 920.980 1085.690 920.450 Q 1085.229 919.920 1085.008 919.087 Q 1084.786 918.254 1084.766 918.226 Q 1084.746 918.199 1084.925 917.149 Q 1085.104 916.099 1085.653 914.526 "></path>
    <path id="STROKE_13e892a7-9ede-437c-ac2a-be35dcae0169" opacity="1.000" fill="none" stroke="#000000" stroke-width="1.591" stroke-opacity="1.000" stroke-linecap="round" stroke-linejoin="round" d="M 1072.007 928.453 Q 1072.051 928.665 1071.879 927.982 Q 1071.708 927.298 1072.109 926.811 Q 1072.510 926.323 1073.006 926.221 Q 1073.502 926.118 1074.102 926.174 Q 1074.701 926.229 1075.240 926.360 Q 1075.779 926.492 1076.600 926.847 Q 1077.421 927.203 1077.948 927.997 Q 1078.475 928.792 1078.131 930.059 Q 1077.788 931.326 1076.451 932.684 Q 1075.114 934.042 1074.024 934.338 Q 1072.935 934.634 1072.213 934.685 Q 1071.491 934.737 1070.365 933.840 Q 1069.240 932.943 1069.154 931.200 Q 1069.068 929.457 1069.670 927.425 "></path>
    <path id="STROKE_82393764-4258-4935-a11f-42d1ed4bdb4a" opacity="1.000" fill="none" stroke="#000000" stroke-width="1.591" stroke-opacity="1.000" stroke-linecap="round" stroke-linejoin="round" d="M 1081.214 925.322 Q 1081.417 925.353 1082.032 925.108 Q 1082.647 924.863 1083.818 924.861 Q 1084.989 924.859 1085.467 925.065 Q 1085.945 925.271 1086.153 925.447 Q 1086.361 925.624 1086.658 926.005 Q 1086.955 926.385 1087.052 926.680 Q 1087.149 926.974 1087.219 927.407 Q 1087.290 927.839 1087.280 928.214 Q 1087.271 928.588 1087.202 929.030 Q 1087.134 929.471 1086.896 929.997 Q 1086.657 930.523 1086.218 930.842 Q 1085.779 931.161 1085.129 931.494 Q 1084.479 931.827 1083.232 931.868 Q 1081.985 931.909 1081.156 931.562 Q 1080.327 931.214 1079.811 930.635 Q 1079.296 930.056 1079.153 928.939 Q 1079.010 927.823 1079.366 926.937 Q 1079.723 926.052 1080.372 925.275 "></path>
    <path id="STROKE_648e26cc-962d-45b6-9afe-ded34f1611a2" opacity="1.000" fill="none" stroke="#000000" stroke-width="1.591" stroke-opacity="1.000" stroke-linecap="round" stroke-linejoin="round" d="M 1090.560 925.462 Q 1090.832 925.364 1090.734 925.406 Q 1090.637 925.448 1091.525 924.689 Q 1092.414 923.930 1093.667 923.498 Q 1094.921 923.066 1095.586 923.096 Q 1096.251 923.127 1096.659 923.222 Q 1097.066 923.316 1097.535 923.494 Q 1098.003 923.671 1098.135 923.738 Q 1098.266 923.804 1099.027 924.378 Q 1099.787 924.951 1100.328 926.064 Q 1100.868 927.177 1100.883 927.837 Q 1100.898 928.496 1100.423 929.503 Q 1099.948 930.511 1099.304 931.168 Q 1098.660 931.826 1097.459 932.307 Q 1096.259 932.788 1094.964 932.803 Q 1093.669 932.818 1092.774 932.186 Q 1091.878 931.553 1091.469 930.948 Q 1091.060 930.343 1090.740 929.689 Q 1090.421 929.036 1090.438 927.953 Q 1090.454 926.871 1090.841 925.508 "></path>
    <path id="STROKE_823d87fd-7dbc-445e-958b-eb55fc3cc18f" opacity="1.000" fill="none" stroke="#000000" stroke-width="1.591" stroke-opacity="1.000" stroke-linecap="round" stroke-linejoin="round" d="M 1075.512 939.015 Q 1075.977 938.651 1075.988 938.627 Q 1076.517 938.148 1077.066 937.768 Q 1077.615 937.388 1077.911 937.260 Q 1078.208 937.132 1078.410 937.081 Q 1078.613 937.030 1078.914 936.997 Q 1079.215 936.965 1079.719 937.004 Q 1080.224 937.044 1080.725 937.167 Q 1081.227 937.289 1081.295 937.317 Q 1081.363 937.344 1081.385 937.368 Q 1081.406 937.393 1081.774 937.504 Q 1082.143 937.614 1083.088 938.645 Q 1084.033 939.677 1083.753 940.771 Q 1083.473 941.866 1083.126 942.181 Q 1082.779 942.496 1082.219 942.918 Q 1081.658 943.339 1080.466 943.861 Q 1079.274 944.383 1077.679 944.638 Q 1076.083 944.894 1075.129 944.720 Q 1074.174 944.546 1073.389 944.054 Q 1072.605 943.563 1072.318 942.992 Q 1072.032 942.421 1072.135 941.282 Q 1072.238 940.142 1072.755 938.828 "></path>
    <path id="STROKE_16623312-77b7-4748-afd3-9bb241ff7cb3" opacity="1.000" fill="none" stroke="#000000" stroke-width="1.591" stroke-opacity="1.000" stroke-linecap="round" stroke-linejoin="round" d="M 1087.196 935.183 Q 1087.504 935.199 1087.411 935.216 Q 1087.318 935.234 1088.559 934.840 Q 1089.801 934.446 1091.094 934.526 Q 1092.386 934.605 1092.988 934.991 Q 1093.589 935.377 1093.959 936.357 Q 1094.329 937.336 1094.210 938.157 Q 1094.091 938.977 1093.893 939.395 Q 1093.695 939.813 1093.295 940.419 Q 1092.895 941.024 1092.152 941.555 Q 1091.410 942.086 1090.819 942.255 Q 1090.228 942.423 1089.342 942.294 Q 1088.456 942.165 1087.689 941.609 Q 1086.923 941.053 1086.443 940.121 Q 1085.963 939.188 1085.928 937.617 Q 1085.892 936.045 1086.121 934.108 "></path>
    <path id="STROKE_f29cce56-2958-4c3b-98cd-a51b5adf1307" opacity="1.000" fill="none" stroke="#000000" stroke-width="3.050" stroke-opacity="1.000" stroke-linecap="round" stroke-linejoin="round" d="M 848.213 529.998 Q 848.707 529.367 848.681 529.389 Q 848.695 529.418 849.976 526.946 Q 851.258 524.473 852.323 523.176 Q 853.388 521.880 854.114 521.242 Q 854.840 520.604 856.009 519.910 Q 857.177 519.217 858.113 518.592 Q 859.049 517.968 861.851 517.313 Q 864.654 516.659 866.501 516.507 Q 868.349 516.354 870.052 516.320 Q 871.756 516.287 873.492 516.361 Q 875.228 516.434 877.656 516.877 Q 880.084 517.320 882.552 518.423 Q 885.021 519.526 887.046 522.138 Q 889.070 524.750 890.464 528.348 Q 891.858 531.945 892.441 536.605 Q 893.024 541.265 892.776 545.528 Q 892.527 549.792 891.611 553.003 Q 890.696 556.214 889.705 558.550 Q 888.714 560.885 886.348 563.316 Q 883.981 565.747 880.850 567.588 Q 877.719 569.430 874.300 570.952 Q 870.880 572.475 867.318 572.854 Q 863.756 573.233 861.232 572.899 Q 858.708 572.565 856.460 571.872 Q 854.212 571.179 851.531 569.208 Q 848.849 567.236 847.203 565.571 Q 845.557 563.906 844.301 562.046 Q 843.045 560.185 842.114 557.086 Q 841.183 553.986 840.725 551.607 Q 840.267 549.227 840.627 545.692 Q 840.987 542.157 841.559 540.098 Q 842.130 538.038 842.794 536.319 Q 843.458 534.599 844.333 532.921 Q 845.208 531.244 846.940 528.863 Q 848.673 526.481 850.283 524.469 Q 851.893 522.458 853.003 521.401 Q 854.114 520.344 854.958 519.734 Q 855.802 519.125 856.770 518.513 "></path>
    <path id="STROKE_42663b56-478b-445a-b216-aabdcdc94f27" opacity="1.000" fill="none" stroke="#000000" stroke-width="1.591" stroke-opacity="1.000" stroke-linecap="round" stroke-linejoin="round" d="M 853.385 539.734 Q 853.259 539.824 854.391 538.682 Q 855.523 537.540 856.706 536.978 Q 857.889 536.416 858.667 536.410 Q 859.445 536.405 860.299 536.708 Q 861.154 537.012 861.471 538.038 Q 861.788 539.063 861.828 539.928 Q 861.868 540.793 861.224 542.229 Q 860.579 543.665 859.283 544.967 Q 857.988 546.270 856.599 546.492 Q 855.211 546.715 854.521 546.710 Q 853.830 546.705 853.259 546.330 Q 852.688 545.955 852.090 545.313 Q 851.492 544.671 851.490 543.316 Q 851.487 541.960 851.709 541.013 Q 851.932 540.066 852.167 539.472 Q 852.403 538.878 852.482 538.613 Q 852.562 538.349 853.393 537.296 Q 854.225 536.243 855.477 535.208 "></path>
    <path id="STROKE_5bbb8906-fd12-47d5-b652-ab61883212c8" opacity="1.000" fill="none" stroke="#000000" stroke-width="1.591" stroke-opacity="1.000" stroke-linecap="round" stroke-linejoin="round" d="M 866.733 529.352 Q 867.879 529.753 867.677 529.677 Q 867.476 529.601 868.586 529.961 Q 869.695 530.321 870.463 530.629 Q 871.231 530.937 871.832 531.195 Q 872.434 531.453 873.255 531.811 Q 874.075 532.169 874.646 532.632 Q 875.217 533.096 875.466 533.404 Q 875.714 533.712 875.807 533.895 Q 875.900 534.077 875.768 535.212 Q 875.635 536.346 874.591 538.092 Q 873.548 539.837 872.324 540.684 Q 871.100 541.530 869.915 542.073 Q 868.731 542.616 867.080 542.219 Q 865.430 541.822 864.546 540.078 Q 863.663 538.335 863.464 536.910 Q 863.265 535.484 863.450 534.008 Q 863.634 532.532 864.147 531.063 "></path>
    <path id="STROKE_23ddd54a-e110-4508-830d-13f29ddeb911" opacity="1.000" fill="none" stroke="#000000" stroke-width="1.591" stroke-opacity="1.000" stroke-linecap="round" stroke-linejoin="round" d="M 855.439 552.778 L 856.061 552.427 Q 856.174 552.340 857.725 551.712 Q 859.276 551.084 860.754 551.086 Q 862.231 551.088 862.834 551.992 Q 863.437 552.896 863.619 553.780 Q 863.802 554.663 863.518 555.949 Q 863.235 557.236 862.311 558.337 Q 861.388 559.438 860.558 559.815 Q 859.728 560.193 858.991 560.337 Q 858.254 560.480 857.335 560.157 Q 856.417 559.834 855.890 559.320 Q 855.364 558.807 854.824 557.612 Q 854.284 556.418 854.438 554.701 Q 854.592 552.984 855.211 551.256 "></path>
    <path id="STROKE_46a2cb9b-3d06-4185-9ba8-04ef2a94cd0c" opacity="1.000" fill="none" stroke="#000000" stroke-width="1.591" stroke-opacity="1.000" stroke-linecap="round" stroke-linejoin="round" d="M 867.456 549.051 Q 868.576 549.032 868.608 548.994 Q 868.739 548.972 870.380 548.323 Q 872.022 547.673 873.697 547.694 Q 875.372 547.714 876.606 548.416 Q 877.840 549.119 878.639 550.241 Q 879.437 551.364 879.820 553.098 Q 880.203 554.833 879.912 555.740 Q 879.622 556.647 879.261 557.266 Q 878.901 557.884 877.888 558.568 Q 876.875 559.251 875.170 559.602 Q 873.465 559.952 871.915 559.386 Q 870.365 558.820 869.366 557.914 Q 868.368 557.009 867.518 555.047 Q 866.669 553.085 866.668 551.110 Q 866.667 549.136 867.256 547.977 Q 867.846 546.819 868.825 545.932 "></path>
  </g>
</svg>