<?xml version="1.0" encoding="UTF-8" standalone="yes"?>
<svg xmlns="http://www.w3.org/2000/svg" xmlns:xlink="http://www.w3.org/1999/xlink" width="643.325pt" height="582.560pt" version="1.1" viewBox="-300.568 403.230 643.325 582.560">
  <!--
	Exported with Concepts: Smarter Sketching
	Version: 2024.11.2 on Microsoft Windows NT 10.0.26100.0
	https://concepts.app/
	-->
  <title>Drawing</title>
  <desc>Drawing exported from Concepts: Smarter Sketching</desc>
  <defs></defs>
  <g id="Pen" opacity="1.000">
    <path id="STROKE_e8315dc3-684b-4413-a548-c353328c8d59" opacity="1.000" fill="none" stroke="#ffffff" stroke-width="3.952" stroke-opacity="1.000" stroke-linecap="round" stroke-linejoin="round" d="M -278.696 856.483 Q -278.694 856.491 -277.186 851.732 Q -275.678 846.973 -273.161 841.127 Q -270.644 835.280 -268.710 831.892 Q -266.775 828.503 -263.147 824.463 Q -259.519 820.422 -254.582 817.416 Q -249.646 814.410 -245.134 812.247 Q -240.623 810.084 -234.574 808.111 Q -228.526 806.139 -222.887 805.111 Q -217.248 804.083 -211.157 803.532 Q -205.065 802.981 -198.365 803.177 Q -191.666 803.373 -186.014 804.495 Q -180.362 805.616 -174.704 807.952 Q -169.045 810.289 -163.941 813.713 Q -158.837 817.137 -154.221 821.697 Q -149.606 826.256 -145.516 832.380 Q -141.426 838.504 -138.042 845.642 Q -134.659 852.781 -132.877 856.723 Q -131.095 860.665 -129.009 867.289 Q -126.923 873.913 -125.774 880.196 Q -124.624 886.478 -124.455 893.799 Q -124.286 901.120 -125.328 907.819 Q -126.371 914.517 -128.427 919.980 Q -130.484 925.443 -132.264 929.152 Q -134.043 932.861 -138.530 938.823 Q -143.016 944.786 -146.203 948.040 Q -149.389 951.294 -153.009 954.435 Q -156.628 957.577 -161.340 960.478 Q -166.051 963.380 -169.051 964.811 Q -172.050 966.243 -178.296 968.518 Q -184.541 970.793 -192.943 972.588 Q -201.344 974.382 -208.519 974.803 Q -215.695 975.224 -221.995 974.702 Q -228.296 974.180 -235.047 972.375 Q -241.799 970.570 -246.586 968.084 Q -251.374 965.599 -253.914 963.852 Q -256.454 962.106 -259.878 959.353 Q -263.301 956.601 -268.398 950.138 Q -273.496 943.675 -277.548 937.163 Q -281.600 930.652 -283.970 924.260 Q -286.340 917.868 -287.474 914.243 Q -288.608 910.617 -289.511 904.701 Q -290.415 898.785 -290.404 893.042 Q -290.393 887.299 -289.068 881.248 Q -287.743 875.197 -286.247 870.974 Q -284.751 866.751 -280.856 860.349 Q -276.960 853.947 -273.261 849.225 Q -269.561 844.503 -266.695 840.745 Q -263.829 836.987 -262.287 834.439 Q -260.746 831.891 -259.445 829.285 "></path>
    <path id="STROKE_a2a467aa-b7a3-467c-914d-59e921553996" opacity="1.000" fill="none" stroke="#ffffff" stroke-width="3.952" stroke-opacity="1.000" stroke-linecap="round" stroke-linejoin="round" d="M 187.824 819.394 Q 188.064 819.121 188.486 818.680 Q 188.909 818.240 189.659 817.493 Q 190.409 816.747 190.873 816.241 Q 191.337 815.735 196.092 811.570 Q 200.846 807.405 203.798 805.194 Q 206.751 802.983 209.693 800.893 Q 212.634 798.803 218.346 795.776 Q 224.058 792.748 232.614 790.836 Q 241.170 788.923 245.762 788.090 Q 250.355 787.257 256.864 787.084 Q 263.373 786.912 269.633 788.028 Q 275.892 789.144 280.708 791.430 Q 285.524 793.716 288.104 795.322 Q 290.683 796.927 295.440 801.033 Q 300.197 805.139 305.679 812.273 Q 311.161 819.407 315.159 827.108 Q 319.156 834.808 321.108 839.353 Q 323.059 843.899 326.066 853.087 Q 329.073 862.275 330.809 869.532 Q 332.546 876.789 333.099 883.157 Q 333.653 889.525 333.557 893.367 Q 333.462 897.209 333.008 902.791 Q 332.555 908.374 329.749 916.877 Q 326.944 925.379 324.510 930.312 Q 322.075 935.245 320.476 938.178 Q 318.876 941.110 316.052 945.253 Q 313.228 949.395 308.050 954.615 Q 302.873 959.834 299.109 962.856 Q 295.345 965.878 289.929 969.018 Q 284.513 972.158 276.313 974.170 Q 268.113 976.182 257.253 976.872 Q 246.394 977.561 237.924 976.823 Q 229.453 976.085 224.907 975.508 Q 220.361 974.931 211.699 972.729 Q 203.037 970.528 196.309 967.891 Q 189.580 965.254 183.663 961.396 Q 177.746 957.539 173.288 953.644 Q 168.829 949.750 165.162 944.717 Q 161.495 939.684 158.984 934.085 Q 156.474 928.486 154.731 922.051 Q 152.988 915.616 152.432 907.814 Q 151.876 900.012 152.759 892.185 Q 153.643 884.358 154.250 880.905 Q 154.857 877.452 156.221 871.542 Q 157.585 865.632 160.301 858.240 Q 163.016 850.847 166.316 844.986 Q 169.615 839.125 173.470 834.155 Q 177.325 829.185 181.494 825.160 Q 185.664 821.134 188.493 819.053 Q 191.323 816.971 196.086 814.221 Q 200.850 811.471 206.498 808.680 "></path>
    <path id="STROKE_aa6159f8-b7d3-4c09-aa0d-e44625a382de" opacity="1.000" fill="none" stroke="#ffffff" stroke-width="3.952" stroke-opacity="1.000" stroke-linecap="round" stroke-linejoin="round" d="M 12.961 419.584 Q 13.283 419.491 13.379 419.426 Q 13.475 419.362 18.015 417.517 Q 22.555 415.671 28.789 414.788 Q 35.023 413.904 38.290 413.575 Q 41.556 413.246 45.459 413.513 Q 49.361 413.781 52.765 415.077 Q 56.170 416.372 58.614 418.005 Q 61.059 419.637 64.414 422.390 Q 67.770 425.143 71.764 429.027 Q 75.758 432.911 78.056 435.743 Q 80.354 438.576 81.753 440.720 Q 83.151 442.865 83.997 444.048 Q 84.842 445.230 87.247 449.361 Q 89.652 453.492 91.744 459.753 Q 93.836 466.014 94.926 473.430 Q 96.016 480.846 96.044 487.103 Q 96.071 493.359 95.326 500.144 Q 94.582 506.929 92.949 512.384 Q 91.315 517.839 90.088 520.902 Q 88.860 523.965 85.360 529.705 Q 81.860 535.445 79.079 539.270 Q 76.297 543.096 72.961 546.437 Q 69.626 549.778 65.056 553.909 Q 60.486 558.039 56.799 560.633 Q 53.111 563.226 48.462 565.658 Q 43.813 568.089 39.574 570.401 Q 35.336 572.713 29.843 574.351 Q 24.349 575.990 20.523 576.522 Q 16.697 577.055 12.770 577.092 Q 8.843 577.128 5.281 576.881 Q 1.719 576.633 -3.738 575.569 Q -9.194 574.504 -14.098 572.696 Q -19.002 570.887 -22.376 569.096 Q -25.750 567.306 -27.444 566.306 Q -29.139 565.307 -30.422 564.503 Q -31.705 563.699 -32.997 562.893 Q -34.290 562.087 -37.644 558.434 Q -40.998 554.781 -42.889 551.822 Q -44.780 548.862 -46.595 546.114 Q -48.410 543.365 -50.275 539.012 Q -52.140 534.660 -53.156 531.385 Q -54.173 528.110 -55.093 522.671 Q -56.014 517.232 -56.314 513.942 Q -56.613 510.652 -56.764 504.817 Q -56.915 498.981 -56.154 493.085 Q -55.393 487.189 -54.514 483.304 Q -53.634 479.419 -52.769 476.278 Q -51.904 473.136 -50.064 468.594 Q -48.223 464.052 -46.202 460.073 Q -44.182 456.095 -41.557 452.321 Q -38.932 448.548 -37.361 446.578 Q -35.790 444.608 -32.579 441.029 Q -29.368 437.450 -25.410 434.389 Q -21.452 431.328 -15.999 429.145 Q -10.546 426.962 -7.077 425.968 Q -3.608 424.974 2.145 424.038 Q 7.899 423.102 13.197 422.507 Q 18.495 421.912 21.211 421.533 Q 23.927 421.154 26.058 420.713 Q 28.189 420.273 32.776 418.743 "></path>
    <path id="STROKE_b276d106-6d3b-488c-afb6-21ebb8d848b5" opacity="1.000" fill="none" stroke="#ffffff" stroke-width="3.952" stroke-opacity="1.000" stroke-linecap="round" stroke-linejoin="round" d="M 61.564 811.971 Q 61.859 812.388 46.544 814.814 Q 31.229 817.240 21.423 818.432 Q 11.618 819.624 7.291 820.062 Q 2.964 820.500 -0.693 820.908 Q -4.351 821.317 -9.338 821.817 Q -14.326 822.316 -17.929 822.081 Q -21.532 821.846 -23.435 821.742 Q -25.339 821.638 -27.801 821.199 Q -30.264 820.761 -31.500 820.123 Q -32.737 819.485 -33.579 818.930 Q -34.420 818.376 -35.544 816.938 Q -36.667 815.501 -37.481 813.951 Q -38.296 812.401 -38.538 807.797 Q -38.780 803.192 -37.995 795.906 Q -37.210 788.620 -36.882 782.363 Q -36.555 776.105 -36.849 767.992 Q -37.143 759.879 -37.845 753.266 Q -38.547 746.653 -39.760 739.301 Q -40.972 731.950 -42.091 724.291 Q -43.210 716.632 -43.651 712.691 Q -44.091 708.751 -44.310 705.762 Q -44.528 702.773 -44.674 697.585 Q -44.819 692.397 -44.720 688.981 Q -44.621 685.566 -44.189 683.559 Q -43.757 681.552 -42.772 679.147 Q -41.788 676.742 -36.814 674.843 Q -31.841 672.944 -27.334 671.782 Q -22.827 670.620 -16.749 668.845 Q -10.671 667.070 -2.948 665.080 Q 4.775 663.090 9.018 662.119 Q 13.261 661.149 19.617 660.599 Q 25.974 660.050 34.156 660.529 Q 42.338 661.008 47.544 661.264 Q 52.750 661.520 56.689 661.537 Q 60.629 661.555 62.572 661.579 Q 64.515 661.604 65.373 661.787 Q 66.230 661.971 66.908 662.379 Q 67.586 662.787 67.813 663.195 Q 68.041 663.603 68.054 663.684 Q 68.068 663.765 68.693 664.945 Q 69.317 666.124 69.615 682.528 Q 69.913 698.933 69.506 712.917 Q 69.099 726.901 68.758 739.993 Q 68.417 753.085 68.227 760.876 Q 68.037 768.668 68.074 777.199 Q 68.111 785.731 68.445 791.226 Q 68.780 796.722 69.531 801.936 Q 70.282 807.151 69.767 811.697 Q 69.523 811.797 69.072 810.967 Q 68.620 810.137 68.107 808.559 "></path>
    <path id="STROKE_04cbd2a0-e872-4dcc-b608-66395c757402" opacity="1.000" fill="none" stroke="#ffffff" stroke-width="3.952" stroke-opacity="1.000" stroke-linecap="round" stroke-linejoin="round" d="M 48.152 685.085 Q 48.405 685.255 40.134 685.977 Q 31.863 686.699 21.729 687.476 Q 11.594 688.254 4.359 688.841 Q -2.876 689.429 -6.580 689.813 Q -10.285 690.198 -12.490 690.457 Q -14.694 690.716 -18.816 691.009 Q -22.938 691.302 -32.485 692.600 Q -32.468 692.593 -28.633 691.815 "></path>
    <path id="STROKE_526cbaf3-61cc-435a-af9a-07074affa38f" opacity="1.000" fill="none" stroke="#ffffff" stroke-width="3.952" stroke-opacity="1.000" stroke-linecap="round" stroke-linejoin="round" d="M 47.404 703.966 Q 47.409 704.352 35.104 705.114 Q 22.799 705.876 13.470 706.385 Q 4.142 706.893 -0.992 707.095 Q -6.126 707.296 -25.584 709.714 Q -25.517 709.933 -12.322 707.752 "></path>
    <path id="STROKE_7394856e-0b46-4f31-85be-1a462e0d715a" opacity="1.000" fill="none" stroke="#ffffff" stroke-width="3.952" stroke-opacity="1.000" stroke-linecap="round" stroke-linejoin="round" d="M 45.768 725.417 Q 45.588 725.462 34.529 725.708 Q 23.471 725.955 15.133 726.797 Q 6.794 727.639 3.080 728.118 Q -0.635 728.596 -6.046 729.347 Q -11.457 730.099 -14.722 730.688 Q -17.986 731.278 -22.488 731.048 Q -22.526 730.864 -22.510 730.745 "></path>
    <path id="STROKE_e7a10d06-f758-4388-a87a-bfec918a9877" opacity="1.000" fill="none" stroke="#ffffff" stroke-width="3.952" stroke-opacity="1.000" stroke-linecap="round" stroke-linejoin="round" d="M 44.600 742.663 Q 44.693 744.128 30.094 744.931 Q 15.494 745.735 6.656 746.271 Q -2.183 746.806 -6.847 747.354 Q -11.512 747.903 -20.070 749.650 Q -20.075 749.627 -20.034 749.579 "></path>
    <path id="STROKE_badafe1d-0c14-4b7e-b489-1ff00e1c051b" opacity="1.000" fill="none" stroke="#ffffff" stroke-width="3.952" stroke-opacity="1.000" stroke-linecap="round" stroke-linejoin="round" d="M 41.656 762.151 Q 41.178 762.313 38.808 762.805 Q 36.439 763.298 29.778 764.129 Q 23.118 764.960 19.238 765.323 Q 15.358 765.686 12.673 765.959 Q 9.987 766.233 -18.996 767.711 L -19.005 767.713 "></path>
    <path id="STROKE_dfcc3cab-84b3-4632-af64-c537a58e7ebd" opacity="1.000" fill="none" stroke="#ffffff" stroke-width="3.952" stroke-opacity="1.000" stroke-linecap="round" stroke-linejoin="round" d="M 42.263 783.602 Q 41.757 783.952 27.975 784.560 Q 14.192 785.167 6.274 785.754 Q -1.643 786.340 -5.737 786.895 Q -9.831 787.450 -14.397 788.518 L -13.818 788.323 "></path>
    <path id="STROKE_eed741f4-c16e-4991-872d-6e0f97d5f8b0" opacity="1.000" fill="none" stroke="#ffffff" stroke-width="3.952" stroke-opacity="1.000" stroke-linecap="round" stroke-linejoin="round" d="M 50.628 797.576 Q 50.471 797.996 38.233 799.087 Q 25.994 800.179 19.237 800.626 Q 12.480 801.073 9.267 801.422 Q 6.054 801.770 1.857 802.132 Q -2.339 802.495 -4.766 802.765 Q -7.192 803.036 -8.526 803.248 Q -9.860 803.460 -10.602 803.549 Q -11.343 803.639 -11.676 803.688 Q -12.009 803.737 -12.687 803.563 Q -12.664 803.423 -12.603 803.325 "></path>
    <path id="STROKE_acb9619b-8639-47b3-9f7f-12af5a3af569" opacity="1.000" fill="none" stroke="#ffffff" stroke-width="1.591" stroke-opacity="1.000" stroke-linecap="round" stroke-linejoin="round" d="M -247.359 850.532 Q -247.959 851.179 -247.989 851.193 Q -248.439 851.525 -248.462 851.526 Q -249.231 851.972 -250.490 853.095 Q -251.750 854.218 -252.595 855.144 Q -253.440 856.071 -254.040 856.890 Q -254.640 857.710 -254.993 858.194 Q -255.347 858.677 -256.117 860.405 Q -256.888 862.132 -257.178 863.643 Q -257.468 865.154 -257.516 865.932 Q -257.564 866.710 -257.418 867.780 Q -257.272 868.850 -256.935 869.767 Q -256.599 870.685 -256.156 871.240 Q -255.713 871.796 -255.158 872.362 Q -254.604 872.928 -252.451 873.264 Q -250.298 873.600 -243.667 871.423 "></path>
    <path id="STROKE_a935164d-0130-4ce2-9518-f552f948ec08" opacity="1.000" fill="none" stroke="#ffffff" stroke-width="1.591" stroke-opacity="1.000" stroke-linecap="round" stroke-linejoin="round" d="M -248.434 862.823 Q -249.110 863.369 -249.292 863.509 Q -249.474 863.648 -249.499 863.658 Q -249.523 863.668 -249.871 863.956 Q -250.219 864.244 -256.273 865.844 Q -256.335 865.780 -256.285 865.627 "></path>
    <path id="STROKE_92b9ee1c-e1f2-4f2a-97d4-7d0914575c39" opacity="1.000" fill="none" stroke="#ffffff" stroke-width="1.591" stroke-opacity="1.000" stroke-linecap="round" stroke-linejoin="round" d="M -239.507 863.057 Q -239.643 863.520 -240.532 864.950 Q -241.421 866.381 -241.346 867.889 Q -241.271 869.397 -240.927 869.929 Q -240.582 870.461 -240.360 870.731 Q -240.138 871.000 -239.175 871.298 Q -238.212 871.595 -237.292 871.396 Q -236.372 871.197 -235.725 870.911 Q -235.079 870.624 -234.320 870.207 "></path>
    <path id="STROKE_4b79a52b-b8cf-4f9d-af12-c5de9175049b" opacity="1.000" fill="none" stroke="#ffffff" stroke-width="1.591" stroke-opacity="1.000" stroke-linecap="round" stroke-linejoin="round" d="M -230.815 862.216 Q -230.108 862.718 -230.080 862.707 Q -229.271 863.046 -227.997 863.411 Q -226.723 863.775 -226.088 864.209 Q -225.453 864.644 -225.481 864.648 Q -225.509 864.653 -224.955 865.632 Q -224.400 866.611 -225.630 867.797 Q -226.860 868.983 -227.722 869.276 Q -228.583 869.570 -229.116 869.792 Q -229.648 870.014 -230.876 870.047 Q -232.103 870.081 -232.682 869.396 Q -233.260 868.712 -233.357 868.233 Q -233.454 867.755 -232.959 866.372 Q -232.463 864.990 -232.093 864.400 Q -231.722 863.810 -230.827 863.039 Q -229.933 862.269 -228.197 861.493 Q -226.461 860.717 -224.685 861.098 Q -222.908 861.480 -222.393 861.959 Q -221.878 862.438 -221.432 863.130 Q -220.987 863.822 -220.840 864.124 Q -220.694 864.426 -220.685 864.438 Q -220.676 864.451 -220.526 864.841 Q -220.376 865.232 -220.288 865.518 Q -220.201 865.805 -220.116 866.104 Q -220.031 866.404 -220.005 866.370 Q -219.979 866.337 -219.937 867.297 Q -219.895 868.257 -220.017 868.968 Q -220.140 869.678 -220.125 870.134 L -220.100 870.145 L -219.760 869.802 Q -219.531 869.500 -219.173 868.244 Q -218.815 866.988 -218.597 865.991 Q -218.379 864.995 -218.281 864.525 Q -218.184 864.055 -218.108 863.829 Q -218.032 863.603 -217.836 863.175 Q -217.640 862.746 -217.353 862.292 Q -217.066 861.837 -216.761 861.558 Q -216.455 861.279 -216.090 861.274 Q -215.725 861.270 -215.470 861.340 Q -215.216 861.410 -215.208 861.440 Q -215.200 861.469 -215.049 861.555 Q -214.897 861.640 -213.958 863.429 Q -213.018 865.219 -212.046 867.804 Q -211.952 867.690 -211.852 867.094 Q -211.751 866.498 -211.668 866.044 Q -211.585 865.590 -211.487 865.156 Q -211.389 864.721 -211.328 864.072 Q -211.266 863.424 -210.802 862.875 Q -210.337 862.327 -209.873 862.058 Q -209.408 861.788 -209.110 861.775 Q -208.812 861.762 -208.790 861.776 Q -208.768 861.790 -208.315 861.788 Q -207.862 861.786 -206.145 862.022 Q -204.428 862.259 -203.719 862.674 Q -203.010 863.088 -202.724 863.441 Q -202.438 863.793 -202.876 865.119 Q -203.314 866.445 -205.038 867.227 Q -206.761 868.010 -208.015 868.126 Q -209.269 868.241 -209.911 867.915 Q -210.553 867.589 -210.869 867.054 Q -211.185 866.519 -211.198 866.153 Q -211.211 865.786 -210.955 865.039 Q -210.698 864.291 -210.491 863.938 Q -210.283 863.585 -209.378 862.747 Q -208.472 861.909 -207.544 861.397 Q -206.616 860.885 -205.678 860.689 Q -204.740 860.493 -203.959 860.465 Q -203.177 860.436 -202.725 860.521 Q -202.273 860.606 -201.651 860.845 Q -201.028 861.085 -200.585 861.341 Q -200.143 861.597 -199.619 861.994 Q -199.095 862.390 -198.734 862.935 Q -198.374 863.480 -198.315 863.615 Q -198.255 863.751 -198.207 863.915 Q -198.159 864.079 -198.141 864.204 Q -198.123 864.329 -198.137 864.377 Q -198.150 864.425 -198.105 864.274 Q -198.059 864.122 -197.925 863.791 Q -197.792 863.460 -197.599 863.071 Q -197.407 862.682 -197.103 862.169 Q -196.799 861.657 -196.469 861.153 Q -196.140 860.649 -195.752 860.178 Q -195.364 859.707 -195.357 859.707 Q -195.350 859.707 -195.348 859.676 Q -195.347 859.644 -194.761 859.334 Q -194.176 859.025 -193.647 859.098 Q -193.119 859.171 -192.365 859.752 Q -191.611 860.334 -191.317 860.672 Q -191.024 861.011 -190.781 861.337 Q -190.539 861.664 -190.261 862.116 Q -189.983 862.568 -189.518 863.370 Q -189.053 864.173 -188.875 864.495 Q -188.696 864.817 -188.402 865.128 Q -188.107 865.439 -187.726 865.272 Q -187.345 865.105 -187.042 864.619 Q -186.740 864.133 -186.519 863.630 Q -186.299 863.127 -186.155 862.814 Q -186.011 862.501 -185.870 862.169 Q -185.730 861.837 -185.484 861.232 Q -185.238 860.627 -185.124 860.446 Q -185.009 860.264 -184.647 860.031 Q -184.285 859.798 -184.270 859.811 Q -184.255 859.824 -184.124 859.879 Q -183.992 859.935 -183.677 860.226 Q -183.362 860.517 -182.972 861.051 Q -182.581 861.584 -182.367 861.943 Q -182.153 862.301 -181.815 862.977 Q -181.478 863.652 -181.332 863.901 Q -181.187 864.149 -181.113 864.231 Q -181.039 864.313 -180.758 864.394 Q -180.487 864.045 -180.431 863.510 Q -180.376 862.975 -180.196 862.087 Q -180.017 861.199 -179.861 860.674 Q -179.706 860.149 -179.189 859.332 Q -178.672 858.514 -177.889 858.664 Q -177.106 858.814 -176.676 859.261 Q -176.245 859.709 -176.235 859.716 Q -176.224 859.724 -175.840 860.227 Q -175.456 860.729 -175.135 861.220 Q -174.814 861.710 -174.466 862.902 L -174.454 863.010 "></path>
    <path id="STROKE_b6522912-9030-44d9-b1db-4e5357e256ce" opacity="1.000" fill="none" stroke="#ffffff" stroke-width="1.591" stroke-opacity="1.000" stroke-linecap="round" stroke-linejoin="round" d="M -180.015 849.597 Q -179.585 850.791 -178.099 851.934 "></path>
    <path id="STROKE_9b4cfe81-7bad-4b96-92c5-f01228f3660a" opacity="1.000" fill="none" stroke="#ffffff" stroke-width="1.591" stroke-opacity="1.000" stroke-linecap="round" stroke-linejoin="round" d="M -166.415 853.850 Q -167.361 855.445 -167.285 855.183 Q -167.721 855.522 -168.880 856.637 Q -170.039 857.752 -170.331 858.568 Q -170.623 859.384 -170.598 860.119 Q -170.573 860.855 -170.298 861.236 Q -170.023 861.617 -169.714 861.873 Q -169.405 862.128 -169.152 862.324 Q -168.898 862.521 -167.962 862.828 Q -167.026 863.136 -166.405 863.187 Q -165.785 863.239 -165.137 863.176 Q -164.490 863.114 -163.611 862.917 "></path>
    <path id="STROKE_2ec03336-845f-4d58-8702-b7e7fcc24cb1" opacity="1.000" fill="none" stroke="#ffffff" stroke-width="1.591" stroke-opacity="1.000" stroke-linecap="round" stroke-linejoin="round" d="M -158.003 853.617 Q -158.026 854.000 -158.866 854.674 Q -159.707 855.349 -163.722 856.667 Q -163.407 856.870 -160.596 857.995 Q -157.786 859.121 -156.731 859.743 Q -155.676 860.365 -154.920 861.222 Q -154.163 862.078 -154.450 862.912 Q -154.737 863.745 -155.621 864.214 Q -156.505 864.684 -157.442 864.880 "></path>
    <path id="STROKE_4eaedc2d-6204-4edd-a029-a5add104fb36" opacity="1.000" fill="none" stroke="#ffffff" stroke-width="1.591" stroke-opacity="1.000" stroke-linecap="round" stroke-linejoin="round" d="M 183.296 858.804 Q 183.391 858.841 183.504 857.887 Q 183.617 856.934 183.681 856.044 Q 183.744 855.154 183.743 854.453 Q 183.742 853.753 183.767 853.104 Q 183.792 852.455 183.538 850.282 Q 183.284 848.109 183.415 844.793 Q 183.546 841.476 183.829 839.394 Q 184.111 837.312 185.396 835.960 Q 185.770 835.548 186.405 838.421 Q 187.040 841.294 187.612 843.376 Q 188.184 845.457 188.754 846.526 Q 189.324 847.596 189.835 848.031 Q 190.346 848.466 190.873 848.509 Q 191.401 848.552 191.946 848.008 Q 192.492 847.465 192.928 846.577 Q 193.365 845.688 193.696 844.817 Q 194.028 843.946 194.140 843.403 Q 194.253 842.860 196.298 838.597 Q 196.422 838.320 197.199 839.082 Q 197.976 839.844 198.500 840.876 Q 199.025 841.908 199.463 843.168 Q 199.901 844.428 200.083 845.148 Q 200.265 845.869 200.541 846.853 Q 200.817 847.837 201.345 850.112 Q 201.873 852.387 202.120 853.908 Q 202.368 855.429 202.504 856.701 "></path>
    <path id="STROKE_00a1c81a-6b37-41f5-bd24-a81334d582f9" opacity="1.000" fill="none" stroke="#ffffff" stroke-width="1.591" stroke-opacity="1.000" stroke-linecap="round" stroke-linejoin="round" d="M 206.570 846.606 Q 206.552 846.614 206.628 847.332 Q 206.704 848.050 206.255 848.771 Q 205.806 849.491 205.030 849.866 Q 204.254 850.241 203.970 850.557 Q 203.686 850.874 203.685 850.894 Q 203.684 850.914 203.447 851.446 Q 203.210 851.979 203.370 853.166 Q 203.530 854.353 203.724 854.888 Q 203.918 855.422 204.267 855.869 Q 204.617 856.317 204.649 856.360 Q 204.681 856.403 205.278 856.164 Q 205.876 855.925 205.967 855.656 Q 206.058 855.388 206.292 854.419 Q 206.527 853.450 206.522 853.314 Q 206.518 853.177 206.534 852.880 Q 206.550 852.583 206.551 852.385 Q 206.552 852.188 206.534 851.857 Q 206.516 851.526 207.113 850.026 Q 207.582 850.286 207.532 850.295 Q 207.179 849.854 210.408 855.746 L 210.542 855.813 "></path>
    <path id="STROKE_67307aa6-7d90-481b-ac77-bda99f8fb476" opacity="1.000" fill="none" stroke="#ffffff" stroke-width="1.591" stroke-opacity="1.000" stroke-linecap="round" stroke-linejoin="round" d="M 212.037 849.270 Q 212.092 849.509 211.945 849.162 Q 211.797 848.815 213.797 854.805 Q 213.958 854.795 214.272 854.400 Q 214.586 854.006 214.859 853.528 Q 215.131 853.051 215.437 852.392 Q 215.743 851.734 215.842 851.112 Q 215.941 850.490 218.454 847.251 Q 218.763 847.130 219.120 848.365 Q 219.477 849.599 219.674 851.133 Q 219.871 852.667 220.122 855.503 L 220.169 855.486 "></path>
    <path id="STROKE_6c6da4af-7346-471c-8a13-783de8df4853" opacity="1.000" fill="none" stroke="#ffffff" stroke-width="1.591" stroke-opacity="1.000" stroke-linecap="round" stroke-linejoin="round" d="M 222.179 845.952 Q 222.164 845.959 223.056 848.646 Q 223.947 851.334 224.303 852.544 Q 224.658 853.754 225.183 855.477 Q 225.328 855.445 225.677 853.617 Q 226.027 851.790 226.180 850.809 Q 226.334 849.828 226.446 849.327 Q 226.558 848.826 226.642 848.523 Q 226.726 848.219 226.808 848.003 Q 226.890 847.786 227.202 847.222 Q 227.513 846.657 227.635 846.531 Q 227.757 846.404 227.851 846.446 Q 228.482 846.786 229.087 849.711 Q 229.692 852.636 229.758 852.955 Q 229.824 853.273 229.992 853.742 Q 230.159 854.211 230.270 854.319 Q 230.562 854.084 230.582 854.047 Q 230.601 854.010 230.682 853.878 Q 230.762 853.747 230.757 853.780 Q 230.752 853.814 231.164 852.893 Q 231.577 851.971 232.081 851.097 Q 232.585 850.223 232.868 849.848 Q 233.151 849.474 233.692 849.039 Q 234.232 848.605 234.479 848.511 Q 234.726 848.416 234.741 848.419 Q 234.755 848.422 234.960 848.379 Q 235.165 848.336 235.653 848.377 Q 236.140 848.417 236.500 848.494 Q 236.859 848.571 236.869 848.569 Q 236.879 848.567 237.395 848.596 Q 237.911 848.626 238.218 848.586 Q 238.526 848.546 239.037 848.325 Q 239.548 848.103 239.930 847.536 Q 240.311 846.969 240.327 846.858 Q 240.344 846.747 240.429 846.325 Q 240.514 845.904 240.147 845.060 Q 239.780 844.216 239.322 843.842 Q 238.865 843.468 238.894 843.486 Q 238.924 843.503 238.254 843.302 Q 237.584 843.102 236.952 843.399 Q 236.319 843.696 235.816 845.673 Q 235.313 847.651 235.409 848.975 Q 235.504 850.299 235.671 851.220 Q 235.839 852.141 236.402 853.056 Q 236.964 853.971 237.427 854.120 Q 237.889 854.268 238.283 854.257 Q 238.677 854.246 238.825 854.197 Q 238.973 854.149 239.399 853.887 Q 239.825 853.626 239.914 853.539 Q 240.003 853.452 240.301 853.130 Q 240.600 852.809 240.777 852.538 Q 240.955 852.267 241.197 851.833 Q 241.438 851.398 241.636 850.992 Q 241.833 850.587 242.012 850.130 Q 242.191 849.672 242.444 849.011 Q 242.698 848.350 242.818 848.167 Q 242.939 847.984 243.221 847.903 Q 243.504 847.822 244.342 848.947 Q 245.179 850.072 245.713 851.089 Q 246.247 852.105 246.792 853.097 L 246.814 853.096 Q 246.862 852.413 246.852 852.391 Q 246.777 851.103 246.851 850.428 Q 246.926 849.754 247.054 849.218 Q 247.183 848.682 247.488 847.908 Q 247.793 847.135 248.117 846.593 Q 248.441 846.050 248.730 845.749 Q 249.019 845.448 249.198 845.334 Q 249.377 845.220 249.377 845.193 Q 249.378 845.166 250.239 845.168 Q 251.101 845.169 251.718 845.514 Q 252.336 845.859 252.563 846.046 Q 252.789 846.232 252.843 846.266 Q 252.896 846.299 253.033 846.610 Q 253.170 846.920 253.272 847.294 Q 253.374 847.668 253.385 847.912 Q 253.396 848.156 253.417 848.400 Q 253.438 848.644 253.516 849.585 Q 253.594 850.526 253.704 851.208 Q 253.813 851.889 253.885 852.257 Q 253.957 852.626 254.057 853.010 L 254.098 853.102 "></path>
    <path id="STROKE_ea22ddbb-8fa4-45f8-b1af-a39063b23ae8" opacity="1.000" fill="none" stroke="#ffffff" stroke-width="1.591" stroke-opacity="1.000" stroke-linecap="round" stroke-linejoin="round" d="M 250.873 837.914 Q 251.133 838.699 251.125 838.705 Q 251.118 838.711 251.358 839.288 Q 251.599 839.865 251.717 839.981 Q 251.835 840.096 252.509 840.110 "></path>
    <path id="STROKE_252617e9-db71-4a1b-a767-595810f9ec86" opacity="1.000" fill="none" stroke="#ffffff" stroke-width="1.591" stroke-opacity="1.000" stroke-linecap="round" stroke-linejoin="round" d="M 261.669 844.129 Q 261.962 844.746 260.438 845.051 Q 258.914 845.356 258.089 845.940 Q 257.265 846.524 257.231 847.390 Q 257.196 848.256 257.722 848.904 Q 258.248 849.552 259.310 850.199 Q 260.372 850.845 261.198 851.101 Q 262.025 851.357 264.392 853.535 Q 264.384 854.989 259.987 854.037 "></path>
    <path id="STROKE_2c64f58e-a12b-4454-bf55-4af2ec24f162" opacity="1.000" fill="none" stroke="#ffffff" stroke-width="1.591" stroke-opacity="1.000" stroke-linecap="round" stroke-linejoin="round" d="M 264.426 844.971 Q 264.750 846.155 268.580 852.910 Q 269.043 852.458 269.040 852.434 Q 269.038 852.409 269.151 851.961 Q 269.265 851.512 269.325 851.157 Q 269.385 850.802 269.730 849.364 Q 270.076 847.925 270.407 846.770 Q 270.738 845.615 271.235 845.201 Q 271.732 844.788 271.737 844.814 Q 271.742 844.840 271.914 844.969 Q 272.087 845.099 272.162 845.189 Q 272.236 845.280 272.548 845.776 Q 272.859 846.273 272.925 846.400 Q 272.991 846.526 273.511 847.682 Q 274.031 848.838 274.279 849.327 Q 274.527 849.815 274.769 850.089 Q 275.010 850.362 275.116 850.390 Q 275.223 850.417 275.310 850.402 Q 275.397 850.388 275.454 850.353 Q 275.511 850.319 275.706 849.915 Q 275.901 849.512 275.900 849.495 Q 275.899 849.479 276.022 848.993 Q 276.145 848.507 276.199 848.162 Q 276.253 847.817 276.770 846.627 Q 277.287 845.436 277.916 844.823 Q 278.545 844.210 279.119 844.011 Q 279.694 843.812 280.070 843.874 Q 280.447 843.935 280.744 844.094 Q 281.041 844.253 281.256 844.514 Q 281.471 844.775 281.597 844.789 Q 281.722 844.803 282.421 847.287 Q 283.121 849.771 283.260 852.635 "></path>
    <path id="STROKE_160bdd05-aff0-4a63-8c44-b76328e62e3f" opacity="1.000" fill="none" stroke="#ffffff" stroke-width="1.591" stroke-opacity="1.000" stroke-linecap="round" stroke-linejoin="round" d="M 293.121 840.297 Q 293.204 840.929 293.074 841.725 Q 292.943 842.521 292.874 842.630 Q 292.804 842.740 292.790 842.750 Q 292.777 842.761 292.438 843.204 Q 292.100 843.647 287.499 845.954 Q 288.550 846.903 290.446 847.721 Q 292.343 848.539 293.989 849.416 Q 295.635 850.293 296.382 851.020 Q 297.128 851.747 297.378 852.271 Q 297.629 852.795 297.743 853.214 Q 297.857 853.632 297.650 854.434 Q 297.443 855.237 297.136 855.556 Q 296.830 855.876 296.066 856.210 Q 295.303 856.543 294.570 856.514 "></path>
    <path id="STROKE_ae70b3e8-bb4e-4d24-b534-8642cb6bfff8" opacity="1.000" fill="none" stroke="#ffffff" stroke-width="1.591" stroke-opacity="1.000" stroke-linecap="round" stroke-linejoin="round" d="M -21.399 467.072 Q -21.322 466.562 -21.347 466.484 Q -21.276 465.188 -23.027 460.638 Q -24.778 456.088 -25.521 453.696 Q -26.265 451.304 -26.398 450.222 Q -26.531 449.141 -25.934 447.925 Q -25.338 446.709 -24.016 446.943 Q -22.695 447.177 -22.147 447.404 Q -21.599 447.630 -21.587 447.647 Q -21.574 447.664 -20.684 448.244 Q -19.795 448.823 -19.633 449.355 Q -19.470 449.888 -19.752 450.899 Q -20.034 451.910 -21.679 453.838 Q -23.323 455.766 -25.278 457.491 "></path>
    <path id="STROKE_f1a840b2-3bed-4129-a1db-e73e6e93779f" opacity="1.000" fill="none" stroke="#ffffff" stroke-width="1.591" stroke-opacity="1.000" stroke-linecap="round" stroke-linejoin="round" d="M -17.941 458.099 Q -17.749 458.549 -17.294 460.936 Q -16.840 463.324 -16.257 464.334 Q -15.674 465.344 -15.356 465.679 Q -15.039 466.014 -14.723 466.124 Q -14.408 466.234 -14.049 466.105 Q -13.691 465.977 -13.369 465.726 Q -13.048 465.475 -12.653 464.996 Q -12.258 464.517 -12.079 464.115 Q -11.900 463.712 -11.693 463.197 Q -11.486 462.682 -11.492 462.672 Q -11.498 462.661 -10.867 462.267 Q -10.157 462.565 -8.768 465.611 Q -8.752 465.612 -7.442 464.263 Q -7.391 464.188 -5.905 465.248 Q -5.985 464.897 -5.966 464.923 Q -5.896 465.247 -6.047 463.866 Q -6.198 462.484 -5.906 461.278 Q -5.613 460.072 -5.380 459.848 Q -5.147 459.624 -4.761 459.569 Q -4.376 459.515 -4.412 459.523 Q -4.448 459.532 -3.863 459.558 Q -3.278 459.583 -1.073 462.703 Q 1.132 465.823 3.161 473.979 Q 3.209 473.053 1.978 468.203 Q 0.748 463.353 0.493 458.255 Q 0.802 457.894 2.638 457.759 Q 4.474 457.625 6.000 458.322 Q 7.526 459.020 8.299 459.648 Q 9.071 460.275 9.492 460.700 Q 9.913 461.125 10.109 462.142 Q 10.305 463.160 9.853 463.778 Q 9.401 464.397 7.842 465.235 Q 6.282 466.073 5.260 465.983 Q 4.238 465.893 3.398 465.462 Q 2.557 465.031 1.874 464.314 "></path>
    <path id="STROKE_03b49c00-6c94-4933-9fcb-0dc7e4436ce0" opacity="1.000" fill="none" stroke="#ffffff" stroke-width="1.591" stroke-opacity="1.000" stroke-linecap="round" stroke-linejoin="round" d="M 4.117 457.959 Q 4.442 457.698 6.179 456.951 Q 7.915 456.204 10.236 455.862 Q 12.557 455.519 13.984 456.251 Q 15.411 456.984 15.985 458.159 Q 16.559 459.334 16.337 460.037 Q 16.114 460.739 15.811 460.975 Q 15.509 461.212 13.801 461.785 Q 12.093 462.358 10.962 461.974 Q 9.830 461.589 9.199 461.105 Q 8.568 460.621 8.448 460.195 Q 8.328 459.769 8.370 459.174 "></path>
    <path id="STROKE_52e5f19e-a702-4948-8908-d1f6096afca5" opacity="1.000" fill="none" stroke="#ffffff" stroke-width="1.591" stroke-opacity="1.000" stroke-linecap="round" stroke-linejoin="round" d="M 21.503 452.491 Q 21.193 453.080 20.943 453.374 Q 20.694 453.667 20.455 453.840 Q 20.215 454.013 19.698 454.356 Q 19.181 454.700 18.946 454.835 Q 18.712 454.970 18.172 455.313 Q 17.632 455.656 15.832 457.000 Q 15.767 457.133 24.987 461.835 Q 25.102 462.564 20.661 463.613 "></path>
    <path id="STROKE_413d656d-98c6-4fb8-befd-6ec5d91e9159" opacity="1.000" fill="none" stroke="#ffffff" stroke-width="1.591" stroke-opacity="1.000" stroke-linecap="round" stroke-linejoin="round" d="M 23.559 458.566 Q 23.492 458.545 23.999 458.784 Q 24.505 459.024 25.630 458.766 Q 26.754 458.508 27.384 458.153 Q 28.015 457.798 28.173 457.706 Q 28.332 457.613 28.934 457.023 Q 29.536 456.433 29.600 456.084 Q 29.665 455.736 29.757 455.699 Q 29.848 455.661 28.424 455.332 Q 27.000 455.002 26.297 454.987 Q 25.593 454.972 25.350 454.988 Q 25.107 455.005 24.638 455.169 Q 24.170 455.333 23.944 456.780 Q 23.718 458.227 24.160 459.984 Q 24.602 461.741 25.525 463.315 Q 26.449 464.889 27.807 465.232 Q 29.165 465.575 30.221 465.316 Q 31.278 465.056 32.438 464.361 "></path>
    <path id="STROKE_3f0e8577-cfe3-4fc9-90d8-77779bd69499" opacity="1.000" fill="none" stroke="#ffffff" stroke-width="1.591" stroke-opacity="1.000" stroke-linecap="round" stroke-linejoin="round" d="M 44.309 456.556 Q 44.816 456.616 44.860 456.564 Q 46.011 456.061 46.005 456.097 Q 47.532 455.850 50.307 458.949 Q 53.081 462.047 51.994 460.988 Q 50.907 459.929 51.172 460.383 Q 50.597 461.365 49.352 461.868 Q 48.106 462.371 46.978 462.069 Q 45.850 461.766 45.386 460.209 Q 44.922 458.652 46.297 457.262 Q 47.673 455.873 49.804 456.287 Q 51.935 456.701 57.708 461.426 Q 57.478 460.531 55.602 457.808 Q 53.725 455.086 53.106 452.299 Q 52.486 449.513 52.560 448.230 Q 52.635 446.946 52.981 446.270 Q 53.328 445.593 54.026 445.116 Q 54.723 444.638 55.172 444.642 Q 55.621 444.646 55.977 444.737 Q 56.333 444.827 57.013 445.169 Q 57.694 445.511 58.656 446.135 "></path>
    <path id="STROKE_febd2308-9327-4555-851a-afa4d81b74e5" opacity="1.000" fill="none" stroke="#ffffff" stroke-width="1.591" stroke-opacity="1.000" stroke-linecap="round" stroke-linejoin="round" d="M 59.123 453.192 Q 59.209 453.510 57.371 454.046 Q 55.532 454.583 53.235 454.781 "></path>
    <path id="STROKE_ac4aea4d-ac53-496b-8c24-901533d8eb5b" opacity="1.000" fill="none" stroke="#ffffff" stroke-width="1.591" stroke-opacity="1.000" stroke-linecap="round" stroke-linejoin="round" d="M -4.061 492.542 L -4.083 492.500 Q -4.338 490.973 -4.185 491.243 Q -4.032 491.513 -4.841 488.515 Q -5.650 485.517 -6.337 483.518 Q -7.024 481.519 -7.426 480.158 "></path>
    <path id="STROKE_ffa160ff-f305-4fa1-a598-c8194d5fa662" opacity="1.000" fill="none" stroke="#ffffff" stroke-width="1.591" stroke-opacity="1.000" stroke-linecap="round" stroke-linejoin="round" d="M 0.192 487.729 Q 0.247 487.894 0.463 488.438 Q 0.680 488.982 0.687 488.994 Q 0.694 489.006 1.355 490.114 Q 2.017 491.223 2.178 491.784 Q 2.150 491.910 0.986 489.692 "></path>
    <path id="STROKE_c2864f20-32a5-4970-ab64-1434cb1f49cb" opacity="1.000" fill="none" stroke="#ffffff" stroke-width="1.591" stroke-opacity="1.000" stroke-linecap="round" stroke-linejoin="round" d="M -3.594 482.261 Q -3.531 482.375 -3.327 482.571 Q -3.122 482.767 -1.584 482.868 "></path>
    <path id="STROKE_3561aa2c-fc7b-4dfc-b2ac-a0fa2d621e07" opacity="1.000" fill="none" stroke="#ffffff" stroke-width="1.591" stroke-opacity="1.000" stroke-linecap="round" stroke-linejoin="round" d="M 10.193 491.654 L 10.219 492.100 Q 10.197 492.088 10.085 491.753 Q 9.973 491.417 9.968 491.377 Q 9.964 491.338 9.794 490.870 Q 9.624 490.403 8.025 486.072 Q 6.425 481.742 6.259 476.944 Q 6.795 476.431 10.333 478.335 "></path>
    <path id="STROKE_c96570b1-38cb-449b-8f5f-96164c150e3a" opacity="1.000" fill="none" stroke="#ffffff" stroke-width="1.591" stroke-opacity="1.000" stroke-linecap="round" stroke-linejoin="round" d="M 12.623 484.971 Q 12.973 486.459 4.595 486.594 Q 4.502 486.542 4.725 486.186 "></path>
    <path id="STROKE_1690a8ac-bfd3-4ce1-8d25-1dbb3947bfdb" opacity="1.000" fill="none" stroke="#ffffff" stroke-width="1.591" stroke-opacity="1.000" stroke-linecap="round" stroke-linejoin="round" d="M 16.876 486.233 Q 17.532 487.453 17.603 487.512 Q 17.674 487.571 17.823 487.632 Q 17.971 487.692 19.151 487.632 Q 20.331 487.571 21.104 486.853 Q 21.878 486.136 22.001 485.630 Q 22.124 485.123 22.131 484.739 Q 22.138 484.355 21.766 484.057 Q 21.393 483.759 20.982 483.564 Q 20.571 483.369 20.093 483.260 Q 19.614 483.151 19.556 483.129 Q 19.498 483.108 18.464 483.171 Q 17.430 483.234 16.353 484.071 Q 15.276 484.909 14.983 486.385 Q 14.690 487.861 14.844 489.126 Q 14.998 490.391 15.694 491.804 Q 16.390 493.217 17.801 493.722 Q 19.213 494.226 21.234 493.674 Q 23.255 493.122 25.522 492.028 "></path>
    <path id="STROKE_dc633fdb-a814-45ca-9f02-d4c265bbf25a" opacity="1.000" fill="none" stroke="#ffffff" stroke-width="1.591" stroke-opacity="1.000" stroke-linecap="round" stroke-linejoin="round" d="M -191.044 902.221 Q -191.007 902.238 -190.124 901.564 Q -189.240 900.891 -188.163 900.381 Q -187.085 899.871 -186.456 899.643 Q -185.828 899.416 -185.447 899.349 Q -185.066 899.282 -184.516 899.266 Q -183.966 899.249 -183.267 899.460 Q -182.567 899.672 -182.316 899.865 Q -182.065 900.058 -181.689 901.330 Q -181.313 902.601 -182.181 904.429 Q -183.050 906.258 -184.228 907.172 Q -185.407 908.085 -186.506 908.194 Q -187.605 908.303 -188.447 907.930 Q -189.290 907.557 -189.957 906.128 Q -190.625 904.699 -190.528 903.490 Q -190.431 902.280 -190.059 901.353 Q -189.687 900.427 -188.974 899.799 Q -188.260 899.171 -187.212 898.622 "></path>
    <path id="STROKE_d300a8d9-3ccd-47a6-a789-046e2bd78d03" opacity="1.000" fill="none" stroke="#ffffff" stroke-width="1.591" stroke-opacity="1.000" stroke-linecap="round" stroke-linejoin="round" d="M -170.621 898.622 Q -170.102 898.452 -170.051 898.393 Q -169.801 898.171 -168.232 897.605 Q -166.663 897.040 -165.742 896.897 Q -164.820 896.754 -164.126 896.712 Q -163.431 896.670 -162.574 896.808 Q -161.716 896.947 -161.073 897.323 Q -160.430 897.698 -160.231 897.899 Q -160.031 898.100 -159.602 898.926 Q -159.173 899.752 -159.239 901.114 Q -159.304 902.476 -160.048 903.906 Q -160.791 905.335 -162.236 906.450 Q -163.680 907.565 -165.634 907.909 Q -167.587 908.254 -169.233 907.127 Q -170.879 906.000 -171.588 904.723 Q -172.298 903.447 -172.536 902.306 Q -172.774 901.164 -172.638 899.991 Q -172.503 898.818 -172.117 897.641 "></path>
    <path id="STROKE_d1d468ae-2a57-4e26-b66a-21d9d0627480" opacity="1.000" fill="none" stroke="#ffffff" stroke-width="1.591" stroke-opacity="1.000" stroke-linecap="round" stroke-linejoin="round" d="M -178.519 920.728 Q -178.154 920.540 -178.437 920.567 Q -178.719 920.594 -177.244 920.209 Q -175.769 919.823 -174.597 919.592 Q -173.424 919.362 -172.698 919.343 Q -171.972 919.325 -171.366 919.424 Q -170.761 919.524 -170.375 919.639 Q -169.989 919.754 -169.619 919.900 Q -169.249 920.045 -168.866 920.286 Q -168.483 920.527 -168.085 921.034 Q -167.688 921.542 -167.438 922.247 Q -167.189 922.953 -167.589 924.580 Q -167.989 926.206 -169.280 927.640 Q -170.570 929.075 -172.131 929.948 Q -173.692 930.820 -175.059 930.859 Q -176.425 930.897 -177.103 930.628 Q -177.782 930.359 -178.534 929.753 Q -179.285 929.146 -180.160 927.365 Q -181.034 925.583 -180.839 923.240 Q -180.645 920.897 -179.688 918.344 "></path>
    <path id="STROKE_5cc3f355-e083-434b-896f-681b07c03d9f" opacity="1.000" fill="none" stroke="#ffffff" stroke-width="1.591" stroke-opacity="1.000" stroke-linecap="round" stroke-linejoin="round" d="M 190.914 907.923 Q 191.270 907.971 193.575 907.845 Q 195.879 907.720 197.169 907.866 Q 198.459 908.012 198.811 908.107 Q 199.163 908.201 199.821 908.596 Q 200.479 908.990 200.444 909.611 Q 200.410 910.232 199.163 911.754 Q 197.916 913.276 196.498 913.934 Q 195.081 914.592 193.900 914.740 Q 192.719 914.887 191.597 913.954 Q 190.475 913.021 190.378 911.612 Q 190.281 910.203 191.162 908.797 Q 192.042 907.391 193.531 906.240 "></path>
    <path id="STROKE_302bd0a3-adc7-4121-b7c3-bd63fd4b2ee8" opacity="1.000" fill="none" stroke="#ffffff" stroke-width="1.591" stroke-opacity="1.000" stroke-linecap="round" stroke-linejoin="round" d="M 206.756 904.044 L 207.175 902.992 Q 207.365 902.528 207.485 902.305 Q 207.605 902.082 207.805 901.797 Q 208.004 901.513 208.053 901.445 Q 208.101 901.376 208.210 901.272 Q 208.319 901.167 208.831 900.947 Q 209.342 900.726 209.910 900.777 Q 210.478 900.828 210.980 900.982 Q 211.483 901.135 211.910 901.302 Q 212.337 901.468 213.190 902.041 Q 214.044 902.613 214.663 903.166 Q 215.282 903.719 215.634 904.123 Q 215.987 904.528 216.172 904.823 Q 216.357 905.119 216.547 905.591 Q 216.737 906.062 216.730 906.573 Q 216.722 907.085 216.665 907.237 Q 216.608 907.388 216.427 907.740 Q 216.246 908.091 216.098 908.250 Q 215.950 908.409 215.401 908.841 Q 214.853 909.272 214.775 909.297 Q 214.696 909.322 214.384 909.594 Q 214.071 909.866 211.915 910.715 Q 209.760 911.564 208.088 911.702 Q 206.415 911.840 205.564 911.651 Q 204.712 911.462 204.342 911.299 Q 203.972 911.135 203.271 910.331 Q 202.569 909.528 202.482 908.524 Q 202.394 907.520 202.593 906.363 Q 202.792 905.207 203.686 903.813 Q 204.580 902.420 205.962 900.959 "></path>
    <path id="STROKE_3182799a-7f88-4dec-a2bb-26f53fbca3cd" opacity="1.000" fill="none" stroke="#ffffff" stroke-width="1.591" stroke-opacity="1.000" stroke-linecap="round" stroke-linejoin="round" d="M 204.934 914.839 Q 204.614 914.997 205.949 914.779 Q 207.283 914.561 208.616 914.364 Q 209.949 914.166 210.869 914.411 Q 211.790 914.657 212.112 915.121 Q 212.435 915.586 212.487 916.058 Q 212.539 916.531 212.397 917.228 Q 212.256 917.926 212.218 917.965 Q 212.181 918.004 211.237 919.414 Q 210.292 920.825 208.381 921.802 Q 206.470 922.779 205.056 922.736 Q 203.642 922.693 202.504 921.887 Q 201.366 921.082 201.052 919.384 Q 200.737 917.686 200.961 915.727 "></path>
    <path id="STROKE_0fad9dd1-7c15-4640-92d8-0e22e0669676" opacity="1.000" fill="none" stroke="#ffffff" stroke-width="1.591" stroke-opacity="1.000" stroke-linecap="round" stroke-linejoin="round" d="M -25.536 527.646 Q -25.385 527.252 -24.353 526.314 Q -23.322 525.377 -22.450 524.934 Q -21.579 524.490 -20.954 524.548 Q -20.328 524.606 -20.129 524.606 Q -19.929 524.605 -18.995 525.424 Q -18.062 526.242 -17.523 527.060 Q -16.984 527.879 -16.581 529.355 Q -16.179 530.831 -16.556 532.386 Q -16.933 533.941 -18.058 534.900 Q -19.183 535.859 -20.075 536.110 Q -20.966 536.361 -21.489 536.295 Q -22.011 536.228 -22.480 536.053 Q -22.948 535.878 -23.536 535.421 Q -24.124 534.963 -24.589 534.256 Q -25.054 533.549 -25.302 533.077 Q -25.551 532.605 -25.716 532.078 Q -25.882 531.550 -26.080 530.890 Q -26.279 530.231 -25.598 529.115 Q -24.918 527.999 -23.573 526.945 "></path>
    <path id="STROKE_20f9d224-cec1-4f6d-beec-ecb99cb3801e" opacity="1.000" fill="none" stroke="#ffffff" stroke-width="1.591" stroke-opacity="1.000" stroke-linecap="round" stroke-linejoin="round" d="M -12.030 521.897 Q -12.177 522.175 -10.179 522.241 Q -8.181 522.308 -7.026 522.363 Q -5.872 522.418 -4.955 522.886 Q -4.037 523.354 -3.856 524.962 Q -3.675 526.571 -4.045 527.829 Q -4.415 529.088 -5.248 530.355 Q -6.081 531.622 -7.111 532.287 Q -8.142 532.952 -9.518 532.802 Q -10.895 532.651 -11.847 531.857 Q -12.799 531.062 -13.331 530.210 Q -13.863 529.359 -14.284 527.883 Q -14.704 526.408 -14.718 525.406 Q -14.731 524.404 -14.554 523.440 "></path>
    <path id="STROKE_8dc59c4e-b357-4272-b6d7-31784aa578ca" opacity="1.000" fill="none" stroke="#ffffff" stroke-width="1.591" stroke-opacity="1.000" stroke-linecap="round" stroke-linejoin="round" d="M -13.058 539.516 Q -13.027 539.402 -12.832 538.734 Q -12.637 538.066 -12.005 537.716 Q -11.372 537.366 -11.139 537.378 Q -10.906 537.391 -10.356 537.568 Q -9.806 537.745 -8.737 538.431 Q -7.668 539.117 -7.003 540.708 Q -6.337 542.299 -7.171 543.515 Q -8.005 544.731 -9.675 545.418 Q -11.346 546.105 -13.130 545.833 Q -14.914 545.562 -15.802 544.517 Q -16.691 543.471 -16.475 541.747 Q -16.258 540.024 -15.255 538.208 "></path>
    <path id="STROKE_cf0042aa-7176-41eb-940e-98ba08efe482" opacity="1.000" fill="none" stroke="#79ca42" stroke-width="1.591" stroke-opacity="1.000" stroke-linecap="round" stroke-linejoin="round" d="M -30.673 721.484 Q -30.685 721.491 -30.335 721.397 Q -30.325 721.325 -31.518 721.402 Q -32.710 721.480 -34.089 721.662 Q -35.468 721.845 -36.120 721.970 Q -36.772 722.096 -37.725 722.303 Q -38.678 722.510 -39.166 723.234 Q -39.654 723.958 -39.930 724.643 Q -40.206 725.328 -40.488 728.088 Q -40.770 730.848 -40.366 735.072 Q -39.962 739.296 -39.516 741.715 Q -39.070 744.133 -38.768 747.023 Q -38.467 749.913 -38.361 752.248 Q -38.255 754.583 -38.225 757.217 Q -38.196 759.852 -38.134 761.894 Q -38.071 763.937 -38.001 765.405 Q -37.930 766.873 -37.786 768.891 Q -37.642 770.909 -37.596 772.390 Q -37.550 773.871 -37.564 774.676 Q -37.577 775.481 -37.475 776.076 Q -37.373 776.671 -37.150 777.024 Q -36.927 777.377 -36.910 777.382 Q -36.893 777.388 -36.562 777.502 Q -36.231 777.616 -35.616 777.470 Q -35.001 777.323 -34.740 777.228 Q -34.478 777.132 -34.069 776.973 Q -33.659 776.814 -33.078 776.604 Q -32.497 776.394 -31.728 776.202 Q -30.958 776.010 -29.755 776.139 Q -28.551 776.268 -27.951 776.422 Q -27.351 776.576 -26.314 776.672 Q -25.278 776.768 -24.146 776.683 "></path>
    <path id="STROKE_9b3a48fb-5a16-43c3-81b3-a951d03da687" opacity="1.000" fill="none" stroke="#79ca42" stroke-width="1.591" stroke-opacity="1.000" stroke-linecap="round" stroke-linejoin="round" d="M 51.849 719.743 Q 51.628 719.829 52.436 719.273 Q 53.244 718.717 53.883 718.440 Q 54.522 718.163 55.079 717.957 Q 55.636 717.751 56.252 717.580 Q 56.869 717.410 57.276 717.307 Q 57.684 717.203 58.584 717.028 Q 59.484 716.853 60.180 716.714 Q 60.876 716.575 62.170 716.385 Q 63.464 716.194 64.156 716.071 Q 64.848 715.947 65.682 715.975 Q 66.517 716.002 67.156 716.234 Q 67.795 716.465 68.396 716.818 Q 68.996 717.170 69.395 718.851 Q 69.794 720.532 69.637 724.656 Q 69.479 728.780 69.451 731.112 Q 69.422 733.443 69.548 737.103 Q 69.673 740.763 69.905 743.748 Q 70.136 746.734 70.229 750.922 Q 70.322 755.110 70.285 758.745 Q 70.248 762.379 70.291 764.043 Q 70.333 765.706 70.434 766.474 Q 70.534 767.241 70.732 767.831 Q 70.929 768.422 71.053 768.723 Q 71.177 769.023 71.312 769.279 Q 71.446 769.534 71.508 770.233 Q 71.570 770.933 71.503 771.345 Q 71.436 771.757 71.204 772.446 Q 70.972 773.135 67.849 773.396 Q 64.726 773.658 61.173 773.909 Q 57.621 774.160 55.565 774.356 Q 53.509 774.553 51.965 774.681 "></path>
    <path id="STROKE_ac6c02f7-fc2d-4941-855b-50fd5e0f94cd" opacity="1.000" fill="none" stroke="#79ca42" stroke-width="1.591" stroke-opacity="1.000" stroke-linecap="round" stroke-linejoin="round" d="M 71.689 743.064 Q 71.316 743.217 73.875 742.760 Q 76.434 742.304 78.228 742.255 Q 80.022 742.206 81.696 742.444 Q 83.371 742.682 88.031 745.898 Q 92.690 749.114 95.275 751.177 Q 97.860 753.240 100.800 755.989 Q 103.741 758.738 105.536 760.519 Q 107.331 762.300 108.856 764.272 Q 110.381 766.244 112.720 769.332 Q 115.060 772.419 117.825 776.120 Q 120.589 779.820 121.912 781.334 Q 123.234 782.848 126.503 787.502 Q 129.771 792.155 134.222 799.474 Q 138.673 806.793 140.823 810.525 Q 142.974 814.256 143.918 816.121 Q 144.862 817.986 146.072 820.240 Q 147.283 822.493 148.120 823.829 Q 148.958 825.166 151.631 828.531 Q 154.303 831.896 155.769 833.947 Q 157.236 835.999 158.497 837.079 Q 159.759 838.159 160.573 838.584 Q 161.387 839.009 162.826 839.134 Q 164.265 839.258 166.480 838.002 "></path>
    <path id="STROKE_57355e88-a1b7-4361-94c8-9e3e1289534e" opacity="1.000" fill="none" stroke="#79ca42" stroke-width="1.591" stroke-opacity="1.000" stroke-linecap="round" stroke-linejoin="round" d="M -39.258 747.937 Q -39.095 748.367 -43.920 749.809 Q -48.744 751.252 -52.476 751.903 Q -56.208 752.554 -57.767 752.816 Q -59.326 753.078 -62.465 753.839 Q -65.604 754.599 -69.008 755.908 Q -72.413 757.217 -74.753 758.764 Q -77.093 760.311 -80.092 762.924 Q -83.091 765.537 -85.501 767.635 Q -87.910 769.733 -89.845 772.342 Q -91.780 774.950 -93.718 777.251 Q -95.655 779.551 -96.749 780.756 Q -97.844 781.961 -99.664 784.901 Q -101.483 787.842 -105.921 794.513 Q -110.359 801.185 -112.641 804.651 Q -114.923 808.117 -116.112 810.075 Q -117.301 812.032 -119.518 813.910 Q -121.735 815.789 -123.733 817.913 Q -125.731 820.038 -127.472 821.486 Q -129.213 822.934 -131.968 824.299 Q -134.724 825.665 -136.610 827.025 Q -138.497 828.385 -139.662 829.000 Q -140.827 829.615 -141.512 829.849 Q -142.197 830.083 -143.622 829.474 "></path>
    <path id="STROKE_cc7a2729-4181-4692-8abf-b37a9ae312e7" opacity="1.000" fill="none" stroke="#79ca42" stroke-width="1.591" stroke-opacity="1.000" stroke-linecap="round" stroke-linejoin="round" d="M 3.055 712.733 Q 3.311 712.276 3.330 712.272 Q 4.310 712.169 4.087 694.746 Q 3.865 677.323 3.590 668.047 Q 3.314 658.771 3.334 655.114 Q 3.353 651.456 3.494 648.539 Q 3.636 645.622 3.585 638.653 Q 3.534 631.683 3.257 627.887 Q 2.980 624.091 3.453 620.774 Q 3.926 617.457 4.973 612.875 Q 6.020 608.293 6.399 605.864 Q 6.779 603.435 6.997 601.748 Q 7.215 600.062 7.497 598.287 Q 7.779 596.513 7.946 595.893 Q 8.113 595.272 8.754 592.567 Q 9.394 589.861 9.735 587.916 Q 10.076 585.971 10.542 584.714 Q 11.008 583.458 12.101 581.318 Q 12.203 581.294 12.407 581.468 "></path>
    <path id="STROKE_75697237-2264-4f3d-9790-4d2bd0a20484" opacity="1.000" fill="none" stroke="#ffffff" stroke-width="3.050" stroke-opacity="1.000" stroke-linecap="round" stroke-linejoin="round" d="M -256.600 897.087 Q -255.604 896.340 -255.725 896.441 Q -255.545 896.311 -255.013 895.912 Q -254.480 895.512 -254.067 895.232 Q -253.653 894.951 -253.085 894.524 Q -252.517 894.096 -249.637 892.137 Q -246.757 890.178 -242.928 888.941 Q -239.100 887.704 -235.775 887.306 Q -232.449 886.908 -228.334 887.301 Q -224.219 887.694 -221.431 888.674 Q -218.644 889.654 -216.301 890.913 Q -213.958 892.172 -211.303 894.891 Q -208.648 897.609 -205.892 902.009 Q -203.136 906.409 -201.517 910.416 Q -199.899 914.423 -199.431 918.344 Q -198.964 922.265 -199.326 925.910 Q -199.687 929.555 -201.484 933.108 Q -203.280 936.660 -205.539 939.175 Q -207.798 941.690 -209.921 943.464 Q -212.043 945.239 -215.395 946.670 Q -218.747 948.101 -222.806 948.417 Q -226.865 948.733 -230.826 948.457 Q -234.787 948.182 -238.648 946.642 Q -242.509 945.102 -245.285 943.145 Q -248.061 941.189 -250.530 938.247 Q -253.000 935.305 -254.481 931.436 Q -255.961 927.568 -256.509 925.403 Q -257.056 923.238 -257.388 921.077 Q -257.719 918.916 -257.972 915.681 Q -258.224 912.445 -257.711 908.973 Q -257.198 905.500 -256.692 903.481 Q -256.186 901.462 -255.393 899.690 Q -254.600 897.919 -253.511 896.509 Q -252.423 895.099 -250.805 893.628 "></path>
    <path id="STROKE_074d54f2-e9c8-4109-b0d0-fc43f00c0b98" opacity="1.000" fill="none" stroke="#ffffff" stroke-width="1.591" stroke-opacity="1.000" stroke-linecap="round" stroke-linejoin="round" d="M -236.831 909.471 L -236.630 908.511 Q -236.526 907.724 -235.881 907.254 Q -235.236 906.783 -234.423 906.752 Q -233.610 906.720 -232.906 907.076 Q -232.202 907.433 -231.581 908.089 Q -230.960 908.745 -230.830 909.151 Q -230.700 909.557 -230.642 910.513 Q -230.583 911.470 -230.699 911.943 Q -230.814 912.417 -230.832 912.627 Q -230.850 912.836 -231.523 914.025 Q -232.196 915.214 -233.599 915.421 Q -235.003 915.628 -235.968 915.155 Q -236.933 914.682 -237.500 914.103 Q -238.067 913.524 -238.406 912.788 Q -238.745 912.052 -238.794 911.509 Q -238.844 910.966 -238.816 910.788 Q -238.789 910.610 -238.677 910.330 Q -238.566 910.050 -238.296 909.721 Q -238.027 909.393 -236.785 908.825 Q -235.543 908.257 -233.700 907.649 "></path>
    <path id="STROKE_8f8c4a19-ebb4-4d53-bd01-c03fa4f27d9a" opacity="1.000" fill="none" stroke="#ffffff" stroke-width="1.591" stroke-opacity="1.000" stroke-linecap="round" stroke-linejoin="round" d="M -227.765 905.592 Q -226.697 905.463 -226.746 905.433 Q -226.695 905.376 -224.809 905.326 Q -222.923 905.277 -222.188 905.863 Q -221.452 906.448 -221.033 906.949 Q -220.615 907.449 -220.380 908.497 Q -220.144 909.546 -220.321 910.525 Q -220.498 911.504 -221.239 912.496 Q -221.981 913.488 -223.269 913.810 Q -224.556 914.133 -225.602 913.826 Q -226.647 913.520 -227.322 912.674 Q -227.998 911.829 -228.043 910.502 Q -228.088 909.176 -227.624 907.836 "></path>
    <path id="STROKE_eaa65639-21d8-4f52-90c1-1400d1f1f37b" opacity="1.000" fill="none" stroke="#ffffff" stroke-width="1.591" stroke-opacity="1.000" stroke-linecap="round" stroke-linejoin="round" d="M -239.355 920.501 Q -238.905 919.391 -238.876 919.458 Q -238.396 918.930 -237.397 918.849 Q -236.398 918.768 -235.675 918.912 Q -234.951 919.056 -234.640 919.225 Q -234.329 919.395 -233.547 920.091 Q -232.765 920.787 -232.449 921.691 Q -232.132 922.595 -232.346 923.934 Q -232.560 925.273 -233.047 926.016 Q -233.535 926.758 -234.411 927.278 Q -235.288 927.799 -236.292 927.865 Q -237.295 927.931 -237.492 927.823 Q -237.689 927.716 -238.056 927.552 Q -238.422 927.389 -238.881 926.745 Q -239.340 926.101 -239.506 925.545 Q -239.673 924.988 -239.738 924.516 Q -239.803 924.045 -239.801 923.629 Q -239.798 923.212 -239.665 922.432 Q -239.532 921.652 -239.261 920.688 "></path>
    <path id="STROKE_2a793acd-a5d9-41b9-8680-5e00c3aba97f" opacity="1.000" fill="none" stroke="#ffffff" stroke-width="1.591" stroke-opacity="1.000" stroke-linecap="round" stroke-linejoin="round" d="M -228.325 915.921 Q -227.886 916.146 -227.829 916.124 L -226.713 916.035 Q -225.609 915.920 -225.264 915.932 Q -224.919 915.944 -224.508 916.063 Q -224.098 916.183 -223.906 916.285 Q -223.715 916.387 -223.345 916.770 Q -222.976 917.154 -222.844 917.410 Q -222.712 917.667 -222.669 917.754 Q -222.627 917.840 -222.357 918.672 Q -222.087 919.503 -222.258 920.476 Q -222.428 921.449 -223.001 922.237 Q -223.574 923.026 -224.640 923.480 Q -225.705 923.933 -227.202 923.444 Q -228.699 922.955 -229.406 921.167 Q -230.114 919.379 -229.213 916.482 "></path>
    <path id="STROKE_5f299848-9ce5-4012-be47-9a3072116f8a" opacity="1.000" fill="none" stroke="#ffffff" stroke-width="1.591" stroke-opacity="1.000" stroke-linecap="round" stroke-linejoin="round" d="M -218.698 913.491 Q -218.223 913.907 -216.655 913.536 Q -215.087 913.166 -214.412 913.437 Q -213.736 913.708 -213.391 914.316 Q -213.045 914.924 -212.995 915.365 Q -212.945 915.807 -212.948 915.813 Q -212.950 915.820 -212.963 916.369 Q -212.975 916.919 -213.454 918.380 Q -213.933 919.841 -214.993 920.906 Q -216.053 921.970 -216.603 922.210 Q -217.153 922.450 -218.483 922.522 Q -219.813 922.593 -220.606 921.443 Q -221.399 920.293 -221.072 917.892 Q -220.744 915.491 -219.493 913.257 "></path>
    <path id="STROKE_8a9bf686-63d7-4043-8942-e40ff176455e" opacity="1.000" fill="none" stroke="#ffffff" stroke-width="1.591" stroke-opacity="1.000" stroke-linecap="round" stroke-linejoin="round" d="M -230.522 927.137 Q -229.748 926.879 -229.723 926.879 Q -229.130 926.690 -227.381 926.536 Q -225.632 926.382 -225.008 927.000 Q -224.383 927.619 -224.183 928.420 Q -223.984 929.221 -224.042 930.219 Q -224.101 931.218 -224.375 932.099 Q -224.650 932.981 -225.033 933.646 Q -225.416 934.311 -225.713 934.626 Q -226.010 934.940 -226.541 935.245 Q -227.072 935.549 -227.567 935.626 Q -228.063 935.704 -228.124 935.703 Q -228.185 935.702 -229.302 934.984 Q -230.419 934.266 -230.924 931.916 Q -231.430 929.566 -230.242 926.109 "></path>
    <path id="STROKE_1096edf2-1bf6-4e27-9996-a6d0afea6d49" opacity="1.000" fill="none" stroke="#ffffff" stroke-width="3.050" stroke-opacity="1.000" stroke-linecap="round" stroke-linejoin="round" d="M 230.557 901.947 Q 230.946 901.533 230.922 901.543 Q 230.777 901.981 232.371 898.803 Q 233.966 895.625 235.337 893.891 Q 236.709 892.157 237.812 891.049 Q 238.915 889.942 240.659 888.658 Q 242.403 887.375 244.548 886.945 Q 246.692 886.515 248.473 886.715 Q 250.254 886.916 251.376 887.144 Q 252.497 887.371 254.537 887.967 Q 256.577 888.562 257.989 889.108 Q 259.401 889.654 261.817 890.371 Q 264.233 891.088 265.321 891.569 Q 266.409 892.050 267.460 892.468 Q 268.510 892.887 270.834 894.609 Q 273.158 896.330 275.025 900.071 Q 276.893 903.811 277.629 905.901 Q 278.364 907.990 278.972 910.860 Q 279.580 913.730 279.387 917.369 Q 279.193 921.008 278.429 923.712 Q 277.665 926.415 275.638 928.898 Q 273.611 931.381 271.115 932.889 Q 268.618 934.398 266.161 935.747 Q 263.703 937.097 260.552 938.151 Q 257.401 939.205 254.423 939.707 Q 251.446 940.210 247.611 940.159 Q 243.775 940.107 240.091 939.033 Q 236.408 937.959 234.075 936.794 Q 231.743 935.629 229.499 933.866 Q 227.255 932.102 226.005 930.111 Q 224.755 928.120 224.203 926.234 Q 223.650 924.348 224.069 921.150 Q 224.488 917.952 224.895 915.959 Q 225.301 913.966 226.990 910.433 Q 228.679 906.901 229.763 904.842 Q 230.848 902.783 232.395 899.801 Q 233.942 896.819 235.791 893.955 "></path>
    <path id="STROKE_694c304f-d171-46e4-b096-8fe764f8a4be" opacity="1.000" fill="none" stroke="#ffffff" stroke-width="1.591" stroke-opacity="1.000" stroke-linecap="round" stroke-linejoin="round" d="M 243.408 901.386 Q 243.401 901.414 243.806 901.157 Q 244.212 900.900 245.299 900.594 Q 246.386 900.287 247.003 900.651 Q 247.621 901.015 247.878 901.424 Q 248.135 901.833 248.146 902.280 Q 248.156 902.726 248.119 903.010 Q 248.083 903.293 247.340 904.337 Q 246.597 905.382 245.530 905.796 Q 244.463 906.210 243.534 905.991 Q 242.604 905.773 242.023 904.923 Q 241.442 904.073 241.259 902.835 "></path>
    <path id="STROKE_fafe9b9c-5cc1-4706-8aee-e7b6b86563ec" opacity="1.000" fill="none" stroke="#ffffff" stroke-width="1.591" stroke-opacity="1.000" stroke-linecap="round" stroke-linejoin="round" d="M 252.428 897.788 Q 252.728 898.164 253.549 898.318 Q 254.370 898.472 255.019 898.542 Q 255.668 898.611 255.931 898.644 Q 256.194 898.677 256.584 898.742 Q 256.973 898.807 257.384 898.920 Q 257.796 899.033 257.813 899.046 Q 257.829 899.059 258.634 899.398 Q 259.440 899.737 259.755 900.182 Q 260.070 900.626 260.212 901.511 Q 260.355 902.396 259.631 903.535 Q 258.907 904.674 258.040 905.421 Q 257.174 906.167 255.902 906.532 Q 254.629 906.896 253.590 906.574 Q 252.552 906.251 252.091 905.721 Q 251.630 905.191 251.409 904.358 Q 251.187 903.525 251.167 903.498 Q 251.147 903.470 251.326 902.420 Q 251.505 901.371 252.054 899.797 "></path>
    <path id="STROKE_4b353742-1fe9-4954-b879-542d9cb4d7b3" opacity="1.000" fill="none" stroke="#ffffff" stroke-width="1.591" stroke-opacity="1.000" stroke-linecap="round" stroke-linejoin="round" d="M 238.408 913.724 Q 238.452 913.937 238.280 913.253 Q 238.109 912.569 238.510 912.082 Q 238.910 911.595 239.407 911.492 Q 239.903 911.389 240.503 911.445 Q 241.102 911.501 241.641 911.632 Q 242.179 911.763 243.001 912.119 Q 243.822 912.474 244.349 913.269 Q 244.875 914.063 244.532 915.330 Q 244.189 916.597 242.852 917.955 Q 241.514 919.313 240.425 919.609 Q 239.336 919.905 238.614 919.957 Q 237.891 920.008 236.766 919.111 Q 235.641 918.214 235.555 916.471 Q 235.469 914.728 236.071 912.696 "></path>
    <path id="STROKE_21620584-b87a-4a5a-82de-c10853e25b35" opacity="1.000" fill="none" stroke="#ffffff" stroke-width="1.591" stroke-opacity="1.000" stroke-linecap="round" stroke-linejoin="round" d="M 247.615 910.593 Q 247.818 910.624 248.433 910.379 Q 249.048 910.134 250.219 910.132 Q 251.390 910.130 251.868 910.336 Q 252.345 910.542 252.554 910.719 Q 252.762 910.895 253.059 911.276 Q 253.356 911.657 253.453 911.951 Q 253.550 912.246 253.620 912.678 Q 253.690 913.111 253.681 913.485 Q 253.672 913.860 253.603 914.301 Q 253.535 914.742 253.296 915.268 Q 253.058 915.794 252.619 916.113 Q 252.180 916.432 251.530 916.765 Q 250.880 917.098 249.633 917.140 Q 248.386 917.181 247.557 916.833 Q 246.728 916.485 246.212 915.906 Q 245.697 915.327 245.554 914.211 Q 245.410 913.094 245.767 912.209 Q 246.124 911.323 246.773 910.546 "></path>
    <path id="STROKE_e3e9fc7e-1c88-4dd3-95cc-b5e7b8e62b00" opacity="1.000" fill="none" stroke="#ffffff" stroke-width="1.591" stroke-opacity="1.000" stroke-linecap="round" stroke-linejoin="round" d="M 256.961 910.733 Q 257.232 910.636 257.135 910.677 Q 257.038 910.719 257.926 909.960 Q 258.815 909.202 260.068 908.769 Q 261.322 908.337 261.987 908.368 Q 262.652 908.399 263.059 908.493 Q 263.466 908.588 263.935 908.765 Q 264.404 908.943 264.536 909.009 Q 264.667 909.075 265.427 909.649 Q 266.188 910.223 266.729 911.336 Q 267.269 912.449 267.284 913.108 Q 267.299 913.767 266.824 914.775 Q 266.349 915.782 265.705 916.440 Q 265.061 917.098 263.860 917.579 Q 262.659 918.060 261.365 918.075 Q 260.070 918.089 259.174 917.457 Q 258.279 916.825 257.870 916.220 Q 257.460 915.615 257.141 914.961 Q 256.822 914.307 256.839 913.224 Q 256.855 912.142 257.242 910.780 "></path>
    <path id="STROKE_14b90859-7880-43c8-8b6f-a485cda4bd6d" opacity="1.000" fill="none" stroke="#ffffff" stroke-width="1.591" stroke-opacity="1.000" stroke-linecap="round" stroke-linejoin="round" d="M 241.913 924.286 Q 242.378 923.922 242.389 923.899 Q 242.918 923.420 243.467 923.039 Q 244.015 922.659 244.312 922.531 Q 244.609 922.403 244.811 922.352 Q 245.014 922.301 245.315 922.269 Q 245.616 922.236 246.120 922.276 Q 246.625 922.315 247.126 922.438 Q 247.627 922.561 247.696 922.588 Q 247.764 922.615 247.785 922.640 Q 247.807 922.664 248.175 922.775 Q 248.543 922.885 249.489 923.917 Q 250.434 924.948 250.154 926.043 Q 249.874 927.137 249.527 927.452 Q 249.180 927.767 248.619 928.189 Q 248.058 928.611 246.867 929.133 Q 245.675 929.654 244.080 929.909 Q 242.484 930.165 241.530 929.991 Q 240.575 929.817 239.790 929.326 Q 239.006 928.835 238.719 928.264 Q 238.433 927.692 238.536 926.553 Q 238.639 925.414 239.156 924.099 "></path>
    <path id="STROKE_27e3ea7b-f526-4722-a44e-4bc304b9dba7" opacity="1.000" fill="none" stroke="#ffffff" stroke-width="1.591" stroke-opacity="1.000" stroke-linecap="round" stroke-linejoin="round" d="M 253.597 920.454 Q 253.905 920.470 253.812 920.488 Q 253.718 920.505 254.960 920.111 Q 256.202 919.718 257.495 919.797 Q 258.787 919.876 259.388 920.262 Q 259.990 920.648 260.360 921.628 Q 260.730 922.608 260.611 923.428 Q 260.492 924.249 260.294 924.667 Q 260.096 925.085 259.696 925.690 Q 259.296 926.296 258.553 926.826 Q 257.811 927.357 257.220 927.526 Q 256.629 927.695 255.743 927.566 Q 254.857 927.437 254.090 926.881 Q 253.324 926.325 252.844 925.392 Q 252.364 924.460 252.329 922.888 Q 252.293 921.317 252.522 919.379 "></path>
    <path id="STROKE_0982140d-f50d-4659-8ed9-b187bb898f14" opacity="1.000" fill="none" stroke="#ffffff" stroke-width="3.050" stroke-opacity="1.000" stroke-linecap="round" stroke-linejoin="round" d="M 14.614 515.270 Q 15.108 514.639 15.081 514.661 Q 15.096 514.690 16.377 512.217 Q 17.659 509.744 18.724 508.448 Q 19.789 507.151 20.515 506.513 Q 21.241 505.875 22.410 505.182 Q 23.578 504.488 24.514 503.863 Q 25.449 503.239 28.252 502.585 Q 31.054 501.931 32.902 501.778 Q 34.750 501.625 36.453 501.592 Q 38.157 501.559 39.892 501.632 Q 41.628 501.705 44.057 502.149 Q 46.485 502.592 48.953 503.694 Q 51.421 504.797 53.446 507.409 Q 55.471 510.022 56.865 513.619 Q 58.259 517.216 58.842 521.876 Q 59.425 526.536 59.176 530.800 Q 58.928 535.063 58.012 538.275 Q 57.097 541.486 56.106 543.821 Q 55.115 546.157 52.749 548.587 Q 50.382 551.018 47.251 552.860 Q 44.120 554.701 40.701 556.224 Q 37.281 557.746 33.719 558.125 Q 30.157 558.505 27.633 558.171 Q 25.108 557.837 22.861 557.144 Q 20.613 556.451 17.932 554.479 Q 15.250 552.508 13.604 550.843 Q 11.958 549.178 10.702 547.317 Q 9.446 545.456 8.515 542.357 Q 7.584 539.258 7.126 536.878 Q 6.668 534.498 7.028 530.963 Q 7.388 527.428 7.960 525.369 Q 8.531 523.310 9.195 521.590 Q 9.859 519.870 10.734 518.193 Q 11.608 516.516 13.341 514.134 Q 15.074 511.753 16.684 509.741 Q 18.293 507.729 19.404 506.672 Q 20.515 505.615 21.359 505.006 Q 22.203 504.397 23.171 503.785 "></path>
    <path id="STROKE_a111430d-9ab5-439b-b939-465434715ba7" opacity="1.000" fill="none" stroke="#ffffff" stroke-width="1.591" stroke-opacity="1.000" stroke-linecap="round" stroke-linejoin="round" d="M 19.786 525.005 Q 19.659 525.095 20.792 523.953 Q 21.924 522.811 23.107 522.249 Q 24.290 521.688 25.068 521.682 Q 25.846 521.676 26.700 521.980 Q 27.555 522.283 27.872 523.309 Q 28.189 524.335 28.229 525.200 Q 28.269 526.064 27.624 527.500 Q 26.980 528.936 25.684 530.239 Q 24.389 531.541 23.000 531.764 Q 21.611 531.987 20.921 531.981 Q 20.231 531.976 19.660 531.601 Q 19.089 531.227 18.491 530.584 Q 17.893 529.942 17.890 528.587 Q 17.888 527.232 18.110 526.285 Q 18.333 525.337 18.568 524.743 Q 18.804 524.149 18.883 523.885 Q 18.963 523.620 19.794 522.567 Q 20.626 521.514 21.878 520.479 "></path>
    <path id="STROKE_811963ca-5c12-40ad-a9fb-94f4001fcd67" opacity="1.000" fill="none" stroke="#ffffff" stroke-width="1.591" stroke-opacity="1.000" stroke-linecap="round" stroke-linejoin="round" d="M 33.134 514.623 Q 34.280 515.024 34.078 514.948 Q 33.877 514.873 34.986 515.232 Q 36.096 515.592 36.864 515.900 Q 37.632 516.208 38.233 516.466 Q 38.835 516.724 39.655 517.083 Q 40.476 517.441 41.047 517.904 Q 41.618 518.367 41.866 518.675 Q 42.115 518.983 42.208 519.166 Q 42.301 519.349 42.169 520.483 Q 42.036 521.618 40.992 523.363 Q 39.949 525.109 38.725 525.955 Q 37.501 526.802 36.316 527.344 Q 35.132 527.887 33.481 527.490 Q 31.830 527.093 30.947 525.350 Q 30.064 523.606 29.865 522.181 Q 29.666 520.756 29.850 519.280 Q 30.035 517.803 30.548 516.334 "></path>
    <path id="STROKE_e5b35ba7-f883-47d6-b10e-9a16fa26bd2d" opacity="1.000" fill="none" stroke="#ffffff" stroke-width="1.591" stroke-opacity="1.000" stroke-linecap="round" stroke-linejoin="round" d="M 21.840 538.049 L 22.462 537.699 Q 22.575 537.612 24.126 536.984 Q 25.677 536.356 27.155 536.358 Q 28.632 536.359 29.235 537.264 Q 29.838 538.168 30.020 539.051 Q 30.202 539.934 29.919 541.221 Q 29.636 542.507 28.712 543.608 Q 27.789 544.709 26.959 545.087 Q 26.129 545.464 25.392 545.608 Q 24.655 545.752 23.736 545.428 Q 22.817 545.105 22.291 544.592 Q 21.765 544.078 21.225 542.884 Q 20.685 541.689 20.839 539.973 Q 20.993 538.256 21.611 536.528 "></path>
    <path id="STROKE_c3e014d9-dd60-4659-92dd-1badbc35140b" opacity="1.000" fill="none" stroke="#ffffff" stroke-width="1.591" stroke-opacity="1.000" stroke-linecap="round" stroke-linejoin="round" d="M 33.857 534.322 Q 34.977 534.303 35.009 534.265 Q 35.140 534.243 36.781 533.594 Q 38.423 532.945 40.098 532.965 Q 41.773 532.985 43.007 533.688 Q 44.241 534.390 45.039 535.513 Q 45.838 536.635 46.221 538.370 Q 46.604 540.104 46.313 541.011 Q 46.023 541.918 45.662 542.537 Q 45.302 543.156 44.289 543.839 Q 43.276 544.523 41.571 544.873 Q 39.866 545.224 38.316 544.658 Q 36.766 544.091 35.767 543.186 Q 34.769 542.280 33.919 540.318 Q 33.069 538.356 33.069 536.382 Q 33.068 534.407 33.657 533.249 Q 34.246 532.090 35.226 531.204 "></path>
  </g>
</svg>