<?xml version="1.0" encoding="UTF-8" standalone="yes"?>
<svg xmlns="http://www.w3.org/2000/svg" xmlns:xlink="http://www.w3.org/1999/xlink" width="241.213pt" height="235.599pt" version="1.1" viewBox="194.823 712.935 241.213 235.599">
  <!--
	Exported with Concepts: Smarter Sketching
	Version: 2024.11.2 on Microsoft Windows NT 10.0.26100.0
	https://concepts.app/
	-->
  <title>Trash_empty</title>
  <desc>Drawing exported from Concepts: Smarter Sketching</desc>
  <defs></defs>
  <g id="Pen" opacity="1.000">
    <path id="STROKE_5f718069-843a-45ff-8324-2a02610e635e" opacity="1.000" fill="none" stroke="#000000" stroke-width="3.952" stroke-opacity="1.000" stroke-linecap="round" stroke-linejoin="round" d="M 351.392 938.713 Q 351.096 939.401 341.820 939.236 Q 332.543 939.072 318.480 938.596 Q 304.417 938.119 297.571 938.139 Q 290.725 938.158 279.424 938.413 Q 268.124 938.669 261.883 938.869 Q 255.642 939.068 248.298 939.028 Q 240.954 938.987 235.445 939.017 Q 229.935 939.048 226.532 939.148 Q 223.129 939.248 220.177 939.381 Q 217.226 939.513 214.767 939.689 Q 212.309 939.865 211.343 939.969 Q 210.378 940.073 209.091 939.995 Q 207.804 939.917 206.542 939.483 Q 205.280 939.050 204.663 937.700 Q 204.047 936.350 203.798 934.875 Q 203.550 933.399 204.140 927.543 Q 204.730 921.687 205.449 915.865 Q 206.168 910.042 206.686 905.336 Q 207.205 900.629 207.375 888.222 Q 207.546 875.815 207.351 867.653 Q 207.156 859.491 207.040 849.873 Q 206.924 840.256 206.901 834.047 Q 206.878 827.839 206.414 820.525 Q 205.950 813.211 205.208 808.071 Q 204.466 802.931 203.958 800.038 Q 203.451 797.145 203.237 794.730 Q 203.023 792.315 202.879 790.752 Q 202.735 789.189 202.777 787.236 Q 202.820 785.283 202.891 783.751 Q 202.962 782.220 203.415 780.390 Q 203.867 778.560 205.126 776.899 Q 206.384 775.238 208.279 774.110 Q 210.174 772.981 217.217 772.625 Q 224.260 772.268 229.331 771.833 Q 234.402 771.397 237.336 770.965 Q 240.270 770.532 244.657 769.876 Q 249.044 769.219 251.667 768.720 Q 254.290 768.220 258.442 767.754 Q 262.594 767.288 266.754 766.834 Q 270.914 766.380 277.481 766.117 Q 284.048 765.855 289.059 765.817 Q 294.069 765.780 298.373 765.906 Q 302.677 766.031 306.284 765.979 Q 309.890 765.927 314.401 765.935 Q 318.911 765.942 323.270 765.648 Q 327.630 765.354 333.297 765.205 Q 338.965 765.055 342.005 765.096 Q 345.044 765.137 348.073 765.407 Q 351.102 765.676 353.313 766.211 Q 355.524 766.745 357.306 767.500 Q 359.089 768.255 361.494 769.522 Q 363.899 770.790 364.108 777.464 Q 364.318 784.139 364.043 787.566 Q 363.768 790.993 363.286 795.875 Q 362.804 800.757 361.997 824.815 Q 361.190 848.872 360.833 861.686 Q 360.476 874.499 360.151 880.282 Q 359.827 886.065 359.697 889.929 Q 359.567 893.794 359.203 899.431 Q 358.839 905.068 358.643 909.603 Q 358.448 914.138 358.302 916.883 Q 358.157 919.628 358.069 922.715 Q 357.982 925.802 357.958 927.391 Q 357.934 928.981 357.936 929.584 Q 357.939 930.187 357.927 930.496 Q 357.915 930.805 357.957 931.866 Q 357.999 932.928 358.059 933.748 Q 358.119 934.568 358.166 935.266 Q 358.213 935.965 358.246 936.533 Q 358.279 937.101 358.254 937.562 Q 358.229 938.022 358.213 938.242 Q 358.197 938.462 358.178 938.686 Q 358.159 938.910 358.139 939.246 Q 358.120 939.581 358.089 939.863 Q 358.059 940.145 358.004 940.515 Q 357.949 940.885 357.959 940.871 Q 357.968 940.857 357.918 941.146 Q 357.868 941.435 357.549 942.319 Q 356.890 941.843 356.898 941.839 Q 356.906 941.835 356.862 941.781 Q 356.817 941.728 356.399 941.306 Q 355.980 940.884 355.971 940.900 Q 355.961 940.916 355.591 940.431 Q 355.220 939.945 355.115 939.587 Q 355.009 939.228 355.038 938.900 "></path>
    <path id="STROKE_a295c13a-d058-408e-affe-4aaf3d575928" opacity="1.000" fill="none" stroke="#000000" stroke-width="3.952" stroke-opacity="1.000" stroke-linecap="round" stroke-linejoin="round" d="M 366.815 770.233 Q 366.740 770.609 367.370 770.190 Q 367.999 769.771 368.546 769.384 Q 369.093 768.996 369.617 768.553 Q 370.141 768.110 370.649 767.660 Q 371.157 767.211 371.612 766.853 Q 372.067 766.494 374.302 764.636 Q 376.537 762.778 378.458 760.835 Q 380.378 758.892 385.404 754.426 Q 390.430 749.959 396.642 745.083 Q 402.854 740.207 406.838 736.686 Q 410.822 733.164 413.507 731.251 Q 416.193 729.338 420.603 725.944 Q 425.014 722.550 429.812 719.199 "></path>
    <path id="STROKE_baef0688-88b5-44a4-8f5f-b16bf5316f36" opacity="1.000" fill="none" stroke="#000000" stroke-width="3.952" stroke-opacity="1.000" stroke-linecap="round" stroke-linejoin="round" d="M 428.831 850.711 Q 429.023 850.830 429.146 850.938 Q 429.169 850.933 428.751 851.359 Q 428.334 851.785 427.525 852.682 Q 426.716 853.578 425.948 854.672 Q 425.179 855.766 425.035 855.821 Q 424.890 855.876 422.688 860.489 Q 420.486 865.102 418.408 869.727 Q 416.331 874.351 412.464 879.048 Q 408.597 883.745 405.866 887.994 Q 403.135 892.243 400.541 895.394 Q 397.946 898.545 394.511 901.985 Q 391.076 905.425 387.783 909.363 Q 384.490 913.302 382.149 915.613 Q 379.807 917.925 378.718 918.870 Q 377.629 919.815 376.968 920.563 Q 376.307 921.312 375.970 921.680 Q 375.633 922.048 375.383 922.310 Q 375.132 922.572 374.441 923.373 Q 373.750 924.175 373.640 924.319 Q 373.530 924.463 373.407 924.629 Q 373.285 924.794 372.636 925.519 Q 371.988 926.243 371.327 926.952 Q 370.665 927.660 369.911 928.451 Q 369.157 929.242 368.692 929.708 Q 368.228 930.174 367.607 930.798 Q 366.986 931.423 366.232 932.261 Q 365.478 933.099 365.157 933.507 Q 364.835 933.916 364.043 934.808 Q 363.251 935.700 362.678 936.258 Q 362.106 936.816 361.375 937.483 Q 360.644 938.150 360.747 938.055 Q 360.851 937.960 360.413 938.420 Q 359.976 938.881 359.795 939.054 Q 359.614 939.227 359.246 939.544 Q 358.878 939.862 358.940 939.821 Q 359.003 939.780 358.398 940.205 Q 358.416 940.229 358.776 940.115 "></path>
    <path id="STROKE_5dfccef9-d37a-4041-8b25-65fc0e0f27f7" opacity="1.000" fill="none" stroke="#000000" stroke-width="3.952" stroke-opacity="1.000" stroke-linecap="round" stroke-linejoin="round" d="M 428.878 849.636 Q 429.455 848.444 429.251 848.554 Q 428.836 848.268 428.475 834.223 Q 428.115 820.177 427.507 810.796 Q 426.899 801.416 426.592 797.371 Q 426.285 793.326 426.398 790.987 Q 426.511 788.648 426.687 781.661 Q 426.863 774.674 426.409 769.530 Q 425.956 764.387 426.206 760.542 Q 426.457 756.698 426.711 752.204 Q 426.964 747.709 427.049 745.532 Q 427.133 743.355 427.289 742.898 Q 427.446 742.442 427.875 739.460 Q 428.304 736.478 428.593 733.697 Q 428.882 730.917 429.010 729.450 Q 429.139 727.984 428.944 726.770 Q 428.749 725.556 428.543 724.529 Q 428.336 723.501 428.350 722.240 Q 428.360 722.248 428.410 722.891 "></path>
    <path id="STROKE_17651f1c-2bdc-4b7a-8d0f-fd9a78de1415" opacity="1.000" fill="none" stroke="#000000" stroke-width="3.952" stroke-opacity="1.000" stroke-linecap="round" stroke-linejoin="round" d="M 425.793 719.152 Q 425.467 719.709 425.446 719.687 Q 425.340 720.806 422.033 720.157 Q 418.725 719.508 414.463 719.428 Q 410.200 719.349 402.911 721.038 Q 395.621 722.728 385.749 724.504 Q 375.878 726.280 369.098 727.278 Q 362.318 728.277 358.421 728.694 Q 354.524 729.111 352.360 729.292 Q 350.195 729.473 344.664 730.085 Q 339.133 730.697 333.260 730.635 Q 327.386 730.573 324.174 730.392 Q 320.962 730.211 316.656 729.810 Q 312.350 729.410 308.884 729.747 Q 305.418 730.084 303.066 729.902 Q 300.714 729.721 298.378 729.725 Q 296.041 729.730 291.536 730.117 Q 287.030 730.504 281.078 730.272 Q 275.126 730.040 272.647 730.141 Q 270.167 730.242 267.932 730.215 Q 265.697 730.188 264.081 730.274 Q 262.465 730.359 260.961 730.397 Q 259.458 730.434 252.242 731.268 Q 252.264 731.301 252.564 731.458 Q 252.256 730.974 247.632 735.013 Q 243.008 739.051 240.044 741.599 Q 237.080 744.147 235.412 745.356 Q 233.744 746.565 231.506 748.592 Q 229.268 750.619 226.940 752.920 Q 224.612 755.222 222.161 757.724 Q 219.709 760.225 215.590 763.416 Q 211.471 766.607 209.769 768.326 Q 208.067 770.045 206.061 772.096 Q 204.054 774.147 201.033 773.949 Q 201.217 773.087 201.843 772.664 "></path>
    <path id="STROKE_69527b1a-0fb1-45b6-bd6d-b73f07279b73" opacity="1.000" fill="none" stroke="#000000" stroke-width="3.952" stroke-opacity="1.000" stroke-linecap="round" stroke-linejoin="round" d="M 255.447 764.672 L 255.497 764.689 Q 255.879 764.446 255.801 761.922 Q 255.723 759.398 255.701 757.808 Q 255.679 756.217 255.669 755.278 Q 255.658 754.338 255.747 751.349 Q 255.836 748.360 255.926 746.637 Q 256.017 744.913 256.038 743.309 Q 256.060 741.706 256.061 740.609 Q 256.062 739.511 256.035 736.995 Q 256.007 734.479 256.188 730.798 L 256.242 730.789 "></path>
    <path id="STROKE_9831227b-0911-4a6a-93ea-65cda925dbb4" opacity="1.000" fill="none" stroke="#000000" stroke-width="3.952" stroke-opacity="1.000" stroke-linecap="round" stroke-linejoin="round" d="M 341.999 912.027 Q 342.021 913.745 341.893 913.294 Q 341.986 914.079 324.216 923.718 Q 324.177 923.024 324.327 923.033 L 324.427 922.963 "></path>
    <path id="STROKE_04655d2d-2020-4edc-90d6-506d638b6ca7" opacity="1.000" fill="none" stroke="#000000" stroke-width="3.952" stroke-opacity="1.000" stroke-linecap="round" stroke-linejoin="round" d="M 344.429 892.959 Q 344.447 893.013 344.456 893.574 Q 344.464 894.136 344.416 894.160 Q 344.368 894.185 344.587 894.241 Q 344.806 894.296 339.869 897.247 Q 334.932 900.198 332.026 901.916 Q 329.120 903.633 327.933 904.816 Q 326.746 905.999 319.474 911.059 Q 312.203 916.120 303.837 921.344 Q 302.750 921.611 307.462 915.205 "></path>
    <path id="STROKE_cc559648-ef5b-4aa8-9865-ffa933119a6d" opacity="1.000" fill="none" stroke="#000000" stroke-width="3.952" stroke-opacity="1.000" stroke-linecap="round" stroke-linejoin="round" d="M 339.989 880.061 Q 339.730 881.190 339.757 881.038 Q 340.184 880.923 337.358 883.724 Q 334.532 886.525 331.272 889.407 Q 328.012 892.290 325.171 894.452 Q 322.329 896.614 320.600 897.684 Q 318.871 898.755 315.864 900.416 Q 312.856 902.077 309.001 905.149 Q 305.146 908.222 299.330 911.636 Q 293.514 915.051 287.834 917.776 "></path>
    <path id="STROKE_5a86f94d-96b7-4c11-b1a2-e8e379cf2032" opacity="1.000" fill="none" stroke="#000000" stroke-width="3.952" stroke-opacity="1.000" stroke-linecap="round" stroke-linejoin="round" d="M 343.541 858.469 Q 343.465 859.420 340.560 863.098 Q 337.655 866.776 324.995 876.445 Q 312.336 886.115 305.623 891.143 Q 298.909 896.170 295.800 898.130 Q 292.690 900.089 288.051 903.865 Q 283.412 907.642 277.814 911.468 Q 272.217 915.295 267.740 918.583 Q 263.264 921.870 260.545 924.035 Q 257.827 926.200 253.835 926.742 Q 253.617 925.117 257.605 921.529 Q 261.594 917.942 267.037 913.850 "></path>
    <path id="STROKE_08a62332-d8c7-411e-a2dd-27e163473b7b" opacity="1.000" fill="none" stroke="#000000" stroke-width="3.952" stroke-opacity="1.000" stroke-linecap="round" stroke-linejoin="round" d="M 330.783 851.786 Q 331.247 852.690 326.153 857.924 Q 321.059 863.158 316.959 866.780 Q 312.859 870.401 309.412 873.240 Q 305.966 876.080 303.860 877.604 Q 301.755 879.129 299.999 880.287 Q 298.243 881.445 294.997 883.825 Q 291.750 886.205 288.297 888.847 Q 284.844 891.489 277.808 895.862 Q 270.772 900.235 266.519 903.127 Q 262.266 906.018 259.891 907.658 Q 257.515 909.298 253.339 912.021 Q 249.163 914.743 241.319 920.125 L 241.269 920.078 Q 241.409 919.734 245.988 916.619 Q 250.566 913.505 255.728 910.205 "></path>
    <path id="STROKE_579a8d26-ce82-4dcd-a100-820d9f8698a4" opacity="1.000" fill="none" stroke="#000000" stroke-width="3.952" stroke-opacity="1.000" stroke-linecap="round" stroke-linejoin="round" d="M 337.139 830.662 Q 337.010 830.912 337.126 830.799 Q 337.242 830.686 336.105 831.955 Q 334.968 833.225 332.228 836.023 Q 329.488 838.821 327.966 840.519 Q 326.444 842.217 321.289 847.503 Q 316.133 852.790 306.920 860.426 Q 297.706 868.062 291.865 872.534 Q 286.023 877.007 282.729 879.101 Q 279.434 881.195 269.851 887.900 Q 260.267 894.606 254.996 898.029 Q 249.725 901.452 243.321 906.401 Q 236.917 911.351 228.598 915.727 Q 228.563 915.104 237.097 908.360 Q 245.631 901.615 252.713 895.979 Q 259.794 890.343 265.869 885.342 "></path>
    <path id="STROKE_71ad94be-ae9b-4b6d-8289-4382f78d8aea" opacity="1.000" fill="none" stroke="#000000" stroke-width="3.952" stroke-opacity="1.000" stroke-linecap="round" stroke-linejoin="round" d="M 338.120 800.331 Q 337.929 800.506 334.240 805.008 Q 330.552 809.509 325.823 814.388 Q 321.095 819.266 317.750 822.374 Q 314.404 825.481 309.927 829.861 Q 305.449 834.241 301.811 837.366 Q 298.173 840.492 291.205 846.773 Q 284.238 853.054 274.761 860.747 Q 265.283 868.440 258.829 873.237 Q 252.374 878.033 248.136 881.012 Q 243.898 883.991 238.296 888.290 Q 232.694 892.590 229.243 895.414 Q 225.793 898.238 221.149 899.688 Q 220.476 899.188 227.033 893.567 "></path>
    <path id="STROKE_f2ff4eec-e3d1-4b57-afac-e75cf1198a29" opacity="1.000" fill="none" stroke="#000000" stroke-width="3.952" stroke-opacity="1.000" stroke-linecap="round" stroke-linejoin="round" d="M 329.241 789.114 Q 328.764 790.146 328.738 790.146 Q 328.288 790.558 326.437 792.819 Q 324.587 795.080 315.954 803.373 Q 307.320 811.666 295.983 821.372 Q 284.645 831.078 277.150 837.039 Q 269.656 842.999 264.450 846.918 Q 259.245 850.836 256.777 852.786 Q 254.310 854.735 251.180 856.835 Q 248.050 858.935 241.937 863.356 Q 235.823 867.777 232.762 870.540 Q 229.700 873.302 226.831 874.729 Q 223.962 876.155 221.238 876.602 "></path>
    <path id="STROKE_56caafb8-d92f-490f-a59f-d799197e4ea8" opacity="1.000" fill="none" stroke="#000000" stroke-width="3.952" stroke-opacity="1.000" stroke-linecap="round" stroke-linejoin="round" d="M 300.265 790.657 Q 300.404 790.685 300.741 790.830 Q 299.948 791.758 292.857 797.857 Q 285.766 803.956 280.887 808.205 Q 276.008 812.454 271.813 816.158 Q 267.617 819.862 265.281 821.655 Q 262.945 823.449 260.646 825.380 Q 258.348 827.311 252.877 831.952 Q 247.406 836.594 242.858 839.807 Q 238.309 843.021 234.351 846.273 Q 230.393 849.526 228.193 851.623 Q 225.993 853.720 223.037 854.093 Q 221.887 853.948 226.379 847.627 "></path>
    <path id="STROKE_ba2f4690-82b1-48c2-a640-bb2ee69fefd2" opacity="1.000" fill="none" stroke="#000000" stroke-width="3.952" stroke-opacity="1.000" stroke-linecap="round" stroke-linejoin="round" d="M 280.871 785.189 Q 281.017 786.364 271.437 793.326 Q 261.856 800.288 255.624 804.753 Q 249.392 809.218 246.373 811.849 Q 243.354 814.481 239.599 817.181 Q 235.843 819.881 231.010 823.233 Q 226.176 826.586 223.707 828.112 Q 221.237 829.637 219.922 830.262 Q 218.608 830.886 217.453 830.568 "></path>
    <path id="STROKE_6a55df9a-5619-4b3b-9794-0f4904bcd908" opacity="1.000" fill="none" stroke="#000000" stroke-width="3.952" stroke-opacity="1.000" stroke-linecap="round" stroke-linejoin="round" d="M 249.465 786.450 Q 250.581 786.805 240.186 795.391 Q 229.791 803.978 218.553 812.820 Q 218.426 812.706 218.387 812.435 "></path>
    <path id="STROKE_a7a545b3-59e4-4d26-8d27-90f8685c35cb" opacity="1.000" fill="none" stroke="#000000" stroke-width="3.952" stroke-opacity="1.000" stroke-linecap="round" stroke-linejoin="round" d="M 232.688 784.114 Q 232.740 785.164 232.681 784.935 Q 232.518 785.219 229.405 787.342 Q 226.292 789.464 222.780 791.404 "></path>
    <path id="STROKE_4f61bfc1-4263-40dc-9725-824e208483c0" opacity="1.000" fill="none" stroke="#000000" stroke-width="3.952" stroke-opacity="1.000" stroke-linecap="round" stroke-linejoin="round" d="M 377.470 900.764 L 377.389 900.838 Q 376.963 900.879 374.717 901.152 Q 372.472 901.425 371.362 901.354 Q 370.253 901.283 369.607 901.171 Q 368.962 901.058 368.759 900.432 Q 368.557 899.806 368.637 898.941 "></path>
    <path id="STROKE_0660ff27-1cdd-49a3-b560-4cdd10c2519c" opacity="1.000" fill="none" stroke="#000000" stroke-width="3.952" stroke-opacity="1.000" stroke-linecap="round" stroke-linejoin="round" d="M 396.771 879.640 Q 397.364 880.571 396.380 881.035 Q 395.396 881.500 389.578 883.015 Q 383.761 884.529 379.520 885.098 Q 375.279 885.666 372.226 884.974 Q 372.267 884.855 372.329 884.781 "></path>
    <path id="STROKE_a7ff2715-c882-488a-bc14-d89b66077c2a" opacity="1.000" fill="none" stroke="#000000" stroke-width="3.952" stroke-opacity="1.000" stroke-linecap="round" stroke-linejoin="round" d="M 404.062 870.433 Q 404.099 870.696 404.123 870.781 Q 404.146 870.867 403.652 871.520 Q 403.159 872.174 401.713 872.630 Q 400.266 873.086 399.292 873.455 Q 398.317 873.823 394.995 874.765 Q 391.673 875.707 385.663 876.894 Q 379.652 878.082 373.685 878.612 "></path>
    <path id="STROKE_961b80ee-83de-4b0e-a94e-6f86eaf66c31" opacity="1.000" fill="none" stroke="#000000" stroke-width="3.952" stroke-opacity="1.000" stroke-linecap="round" stroke-linejoin="round" d="M 413.596 856.786 Q 413.196 857.216 404.810 858.632 Q 396.423 860.048 388.626 861.572 Q 380.828 863.096 373.918 864.685 "></path>
    <path id="STROKE_d2a92969-2420-4932-92c7-d45a9f5fcc75" opacity="1.000" fill="none" stroke="#000000" stroke-width="3.952" stroke-opacity="1.000" stroke-linecap="round" stroke-linejoin="round" d="M 416.680 839.588 Q 416.292 840.280 411.658 841.776 Q 407.024 843.272 400.028 844.922 Q 393.032 846.572 388.207 847.470 Q 383.381 848.368 380.605 848.629 Q 377.829 848.891 375.648 848.701 "></path>
    <path id="STROKE_c39c04ef-d892-4013-89c6-c434155b94df" opacity="1.000" fill="none" stroke="#000000" stroke-width="3.952" stroke-opacity="1.000" stroke-linecap="round" stroke-linejoin="round" d="M 415.792 825.848 Q 416.075 825.576 410.306 826.821 Q 404.537 828.066 401.201 828.972 Q 397.866 829.878 395.246 830.705 Q 392.626 831.533 390.707 832.128 Q 388.789 832.722 385.126 834.049 Q 381.462 835.376 377.927 836.298 Q 374.392 837.221 371.114 837.625 "></path>
    <path id="STROKE_0a5222a0-dfee-47a7-a5f1-6c2237a7b236" opacity="1.000" fill="none" stroke="#000000" stroke-width="3.952" stroke-opacity="1.000" stroke-linecap="round" stroke-linejoin="round" d="M 418.269 805.705 Q 418.093 806.385 413.026 807.928 Q 407.959 809.472 404.600 810.679 Q 401.241 811.887 398.455 812.896 Q 395.670 813.904 389.893 815.779 Q 384.117 817.654 378.311 819.071 "></path>
    <path id="STROKE_32b9d30e-7ad6-4c3c-9f26-3768c8781365" opacity="1.000" fill="none" stroke="#000000" stroke-width="3.952" stroke-opacity="1.000" stroke-linecap="round" stroke-linejoin="round" d="M 411.259 797.620 Q 410.987 797.560 404.592 799.595 Q 398.198 801.630 392.058 803.492 Q 385.918 805.354 382.753 806.189 Q 379.587 807.024 377.295 807.291 Q 375.003 807.558 373.912 807.311 Q 372.820 807.063 372.335 806.530 Q 371.850 805.996 371.862 805.285 "></path>
    <path id="STROKE_d89a397a-1043-431a-8cc1-6739f16ce555" opacity="1.000" fill="none" stroke="#000000" stroke-width="3.952" stroke-opacity="1.000" stroke-linecap="round" stroke-linejoin="round" d="M 413.082 778.319 Q 412.803 779.134 412.721 779.035 Q 412.568 779.127 406.107 781.273 Q 399.646 783.419 395.652 784.498 Q 391.658 785.578 389.674 786.201 Q 387.690 786.823 385.011 787.863 Q 382.331 788.902 380.733 789.146 Q 379.134 789.389 378.031 788.974 "></path>
    <path id="STROKE_4790b13f-5ad3-451c-b494-bf647225c096" opacity="1.000" fill="none" stroke="#000000" stroke-width="3.952" stroke-opacity="1.000" stroke-linecap="round" stroke-linejoin="round" d="M 410.978 766.167 Q 410.711 766.928 410.631 766.929 Q 410.681 767.547 403.211 770.182 Q 395.741 772.817 390.795 774.078 Q 385.849 775.340 382.050 776.262 "></path>
    <path id="STROKE_50517538-3097-441c-b38f-d3cfda528014" opacity="1.000" fill="none" stroke="#000000" stroke-width="3.952" stroke-opacity="1.000" stroke-linecap="round" stroke-linejoin="round" d="M 410.978 756.306 Q 411.255 757.078 411.152 757.067 Q 410.821 757.618 410.786 757.574 Q 411.261 757.349 408.089 759.017 Q 404.917 760.684 402.702 761.577 Q 400.488 762.469 398.610 762.221 Q 398.522 762.052 398.547 761.821 "></path>
    <path id="STROKE_cfef9dd6-5546-49ac-95e8-a8e134188e3d" opacity="1.000" fill="none" stroke="#000000" stroke-width="3.952" stroke-opacity="1.000" stroke-linecap="round" stroke-linejoin="round" d="M 419.344 742.192 Q 419.313 742.109 419.865 742.634 Q 418.933 743.323 418.931 743.332 Q 418.082 744.504 411.726 746.492 "></path>
  </g>
</svg>