<?xml version="1.0" encoding="UTF-8" standalone="yes"?>
<svg xmlns="http://www.w3.org/2000/svg" xmlns:xlink="http://www.w3.org/1999/xlink" width="241.213pt" height="235.599pt" version="1.1" viewBox="-147.246 717.641 241.213 235.599">
  <!--
	Exported with Concepts: Smarter Sketching
	Version: 2024.11.2 on Microsoft Windows NT 10.0.26100.0
	https://concepts.app/
	-->
  <title>Trash_empty</title>
  <desc>Drawing exported from Concepts: Smarter Sketching</desc>
  <defs></defs>
  <g id="Pen" opacity="1.000">
    <path id="STROKE_784e0ac8-0500-4f27-9050-d3b337326570" opacity="1.000" fill="none" stroke="#ffffff" stroke-width="3.952" stroke-opacity="1.000" stroke-linecap="round" stroke-linejoin="round" d="M 9.323 943.420 Q 9.027 944.108 -0.249 943.943 Q -9.526 943.778 -23.589 943.302 Q -37.652 942.826 -44.498 942.845 Q -51.344 942.865 -62.645 943.120 Q -73.945 943.376 -80.186 943.575 Q -86.427 943.775 -93.771 943.734 Q -101.115 943.694 -106.624 943.724 Q -112.134 943.755 -115.537 943.855 Q -118.940 943.955 -121.892 944.087 Q -124.843 944.220 -127.302 944.396 Q -129.760 944.572 -130.726 944.676 Q -131.691 944.780 -132.978 944.702 Q -134.265 944.623 -135.527 944.190 Q -136.789 943.756 -137.406 942.407 Q -138.022 941.057 -138.271 939.581 Q -138.519 938.106 -137.929 932.250 Q -137.339 926.394 -136.620 920.571 Q -135.901 914.749 -135.383 910.042 Q -134.865 905.336 -134.694 892.929 Q -134.523 880.522 -134.718 872.360 Q -134.913 864.198 -135.029 854.580 Q -135.145 844.962 -135.168 838.754 Q -135.191 832.546 -135.655 825.232 Q -136.119 817.918 -136.861 812.778 Q -137.603 807.638 -138.111 804.745 Q -138.618 801.852 -138.832 799.437 Q -139.046 797.021 -139.190 795.458 Q -139.334 793.896 -139.292 791.943 Q -139.250 789.990 -139.178 788.458 Q -139.107 786.926 -138.654 785.096 Q -138.202 783.266 -136.943 781.606 Q -135.685 779.945 -133.790 778.816 Q -131.895 777.688 -124.852 777.331 Q -117.809 776.975 -112.738 776.539 Q -107.667 776.104 -104.733 775.671 Q -101.799 775.239 -97.412 774.583 Q -93.025 773.926 -90.402 773.427 Q -87.779 772.927 -83.627 772.461 Q -79.476 771.995 -75.315 771.541 Q -71.155 771.087 -64.588 770.824 Q -58.021 770.562 -53.010 770.524 Q -48.000 770.487 -43.696 770.612 Q -39.392 770.738 -35.785 770.686 Q -32.179 770.634 -27.668 770.641 Q -23.158 770.649 -18.799 770.355 Q -14.440 770.061 -8.772 769.911 Q -3.104 769.761 -0.064 769.803 Q 2.975 769.844 6.004 770.114 Q 9.033 770.383 11.244 770.917 Q 13.455 771.451 15.237 772.207 Q 17.020 772.962 19.425 774.229 Q 21.830 775.497 22.039 782.171 Q 22.249 788.846 21.974 792.273 Q 21.699 795.700 21.217 800.582 Q 20.735 805.464 19.928 829.521 Q 19.121 853.579 18.764 866.393 Q 18.407 879.206 18.082 884.989 Q 17.758 890.772 17.628 894.636 Q 17.498 898.501 17.134 904.138 Q 16.769 909.775 16.574 914.310 Q 16.379 918.845 16.233 921.590 Q 16.087 924.335 16.000 927.422 Q 15.913 930.509 15.889 932.098 Q 15.865 933.688 15.867 934.291 Q 15.870 934.893 15.858 935.203 Q 15.846 935.512 15.888 936.573 Q 15.930 937.634 15.990 938.454 Q 16.050 939.274 16.097 939.973 Q 16.144 940.671 16.177 941.240 Q 16.210 941.808 16.184 942.268 Q 16.159 942.729 16.144 942.949 Q 16.128 943.169 16.109 943.393 Q 16.089 943.617 16.070 943.952 Q 16.051 944.288 16.020 944.570 Q 15.990 944.852 15.935 945.222 Q 15.880 945.591 15.890 945.578 Q 15.899 945.564 15.849 945.853 Q 15.799 946.142 15.480 947.026 Q 14.821 946.549 14.829 946.546 Q 14.837 946.542 14.793 946.488 Q 14.748 946.434 14.330 946.013 Q 13.911 945.591 13.902 945.607 Q 13.892 945.623 13.522 945.138 Q 13.151 944.652 13.046 944.294 Q 12.940 943.935 12.969 943.607 "></path>
    <path id="STROKE_118f8cf5-d79a-49db-9eb2-3d7cffe9da9e" opacity="1.000" fill="none" stroke="#ffffff" stroke-width="3.952" stroke-opacity="1.000" stroke-linecap="round" stroke-linejoin="round" d="M 24.746 774.940 Q 24.671 775.316 25.301 774.897 Q 25.930 774.478 26.477 774.090 Q 27.024 773.702 27.548 773.259 Q 28.072 772.816 28.580 772.367 Q 29.088 771.918 29.543 771.559 Q 29.998 771.201 32.233 769.343 Q 34.468 767.484 36.388 765.542 Q 38.309 763.599 43.335 759.132 Q 48.360 754.666 54.573 749.790 Q 60.785 744.914 64.769 741.392 Q 68.753 737.870 71.438 735.957 Q 74.124 734.044 78.534 730.651 Q 82.945 727.257 87.743 723.906 "></path>
    <path id="STROKE_557cb4e3-edd6-4de1-9969-ad4ea9703342" opacity="1.000" fill="none" stroke="#ffffff" stroke-width="3.952" stroke-opacity="1.000" stroke-linecap="round" stroke-linejoin="round" d="M 86.762 855.418 Q 86.954 855.537 87.077 855.644 Q 87.100 855.640 86.682 856.066 Q 86.265 856.492 85.456 857.388 Q 84.647 858.284 83.879 859.379 Q 83.110 860.473 82.966 860.528 Q 82.821 860.582 80.619 865.196 Q 78.417 869.809 76.339 874.433 Q 74.261 879.058 70.395 883.755 Q 66.528 888.452 63.797 892.701 Q 61.066 896.950 58.471 900.101 Q 55.877 903.251 52.442 906.691 Q 49.007 910.131 45.714 914.070 Q 42.421 918.008 40.080 920.320 Q 37.738 922.632 36.649 923.577 Q 35.560 924.521 34.899 925.270 Q 34.238 926.018 33.901 926.386 Q 33.564 926.755 33.314 927.016 Q 33.063 927.278 32.372 928.080 Q 31.681 928.882 31.571 929.026 Q 31.461 929.170 31.338 929.335 Q 31.216 929.501 30.567 930.226 Q 29.919 930.950 29.258 931.658 Q 28.596 932.367 27.842 933.158 Q 27.088 933.948 26.623 934.414 Q 26.159 934.880 25.538 935.505 Q 24.917 936.130 24.163 936.967 Q 23.409 937.805 23.088 938.214 Q 22.766 938.623 21.974 939.515 Q 21.182 940.406 20.609 940.965 Q 20.037 941.523 19.306 942.190 Q 18.575 942.857 18.678 942.761 Q 18.782 942.666 18.344 943.127 Q 17.907 943.588 17.726 943.761 Q 17.545 943.934 17.177 944.251 Q 16.809 944.568 16.871 944.528 Q 16.933 944.487 16.329 944.911 Q 16.347 944.936 16.707 944.822 "></path>
    <path id="STROKE_79aeca31-6169-4b07-a829-9dfbef455d7b" opacity="1.000" fill="none" stroke="#ffffff" stroke-width="3.952" stroke-opacity="1.000" stroke-linecap="round" stroke-linejoin="round" d="M 86.809 854.343 Q 87.386 853.151 87.182 853.261 Q 86.767 852.975 86.406 838.929 Q 86.046 824.883 85.438 815.503 Q 84.830 806.123 84.523 802.078 Q 84.216 798.033 84.329 795.694 Q 84.442 793.355 84.618 786.368 Q 84.794 779.380 84.340 774.237 Q 83.887 769.094 84.137 765.249 Q 84.388 761.405 84.641 756.910 Q 84.895 752.416 84.979 750.239 Q 85.064 748.061 85.220 747.605 Q 85.377 747.149 85.806 744.167 Q 86.235 741.184 86.524 738.404 Q 86.813 735.623 86.941 734.157 Q 87.070 732.690 86.875 731.476 Q 86.680 730.263 86.474 729.235 Q 86.267 728.208 86.281 726.947 Q 86.291 726.955 86.341 727.598 "></path>
    <path id="STROKE_6f9bf517-0ab3-404e-b6f0-2965257ccc23" opacity="1.000" fill="none" stroke="#ffffff" stroke-width="3.952" stroke-opacity="1.000" stroke-linecap="round" stroke-linejoin="round" d="M 83.724 723.859 Q 83.398 724.415 83.377 724.394 Q 83.271 725.513 79.964 724.864 Q 76.656 724.215 72.394 724.135 Q 68.131 724.055 60.842 725.745 Q 53.552 727.435 43.680 729.211 Q 33.809 730.987 27.029 731.985 Q 20.249 732.984 16.352 733.401 Q 12.455 733.818 10.291 733.999 Q 8.126 734.180 2.595 734.792 Q -2.936 735.404 -8.809 735.342 Q -14.683 735.280 -17.895 735.099 Q -21.107 734.918 -25.413 734.517 Q -29.719 734.117 -33.185 734.454 Q -36.651 734.791 -39.003 734.609 Q -41.355 734.427 -43.691 734.432 Q -46.028 734.437 -50.533 734.824 Q -55.039 735.210 -60.991 734.979 Q -66.943 734.747 -69.422 734.848 Q -71.902 734.949 -74.137 734.922 Q -76.372 734.895 -77.988 734.980 Q -79.604 735.066 -81.108 735.103 Q -82.611 735.141 -89.827 735.975 Q -89.805 736.008 -89.506 736.165 Q -89.813 735.681 -94.437 739.719 Q -99.061 743.758 -102.025 746.306 Q -104.989 748.853 -106.657 750.062 Q -108.325 751.272 -110.563 753.299 Q -112.801 755.326 -115.129 757.627 Q -117.457 759.929 -119.908 762.430 Q -122.360 764.932 -126.479 768.123 Q -130.598 771.314 -132.300 773.033 Q -134.002 774.752 -136.008 776.803 Q -138.015 778.854 -141.036 778.655 Q -140.852 777.794 -140.226 777.370 "></path>
    <path id="STROKE_2d6a0c35-a67c-47dc-bcbd-9a24d93332ab" opacity="1.000" fill="none" stroke="#ffffff" stroke-width="3.952" stroke-opacity="1.000" stroke-linecap="round" stroke-linejoin="round" d="M -86.622 769.379 L -86.572 769.396 Q -86.190 769.153 -86.268 766.629 Q -86.347 764.105 -86.368 762.514 Q -86.390 760.924 -86.400 759.984 Q -86.411 759.045 -86.322 756.056 Q -86.233 753.067 -86.143 751.343 Q -86.052 749.620 -86.031 748.016 Q -86.009 746.413 -86.008 745.315 Q -86.007 744.218 -86.034 741.702 Q -86.062 739.185 -85.881 735.504 L -85.827 735.496 "></path>
    <path id="STROKE_8ae40969-aaf2-4aa3-8360-513be7dc37c5" opacity="1.000" fill="none" stroke="#ffffff" stroke-width="3.952" stroke-opacity="1.000" stroke-linecap="round" stroke-linejoin="round" d="M -0.070 916.734 Q -0.048 918.452 -0.176 918.000 Q -0.083 918.786 -17.853 928.425 Q -17.892 927.731 -17.742 927.740 L -17.642 927.670 "></path>
    <path id="STROKE_c98150dd-63e6-4cf6-9e9d-3df0737b9b0e" opacity="1.000" fill="none" stroke="#ffffff" stroke-width="3.952" stroke-opacity="1.000" stroke-linecap="round" stroke-linejoin="round" d="M 2.360 897.666 Q 2.378 897.719 2.387 898.281 Q 2.395 898.842 2.347 898.867 Q 2.299 898.892 2.518 898.947 Q 2.737 899.003 -2.200 901.954 Q -7.137 904.905 -10.043 906.622 Q -12.949 908.340 -14.136 909.522 Q -15.323 910.705 -22.595 915.766 Q -29.866 920.827 -38.232 926.051 Q -39.319 926.318 -34.607 919.912 "></path>
    <path id="STROKE_a4988502-632d-4d94-9af4-cd297bfb1793" opacity="1.000" fill="none" stroke="#ffffff" stroke-width="3.952" stroke-opacity="1.000" stroke-linecap="round" stroke-linejoin="round" d="M -2.080 884.767 Q -2.339 885.897 -2.312 885.745 Q -1.885 885.629 -4.711 888.430 Q -7.537 891.231 -10.797 894.114 Q -14.057 896.997 -16.899 899.159 Q -19.740 901.321 -21.469 902.391 Q -23.198 903.462 -26.205 905.123 Q -29.213 906.784 -33.068 909.856 Q -36.923 912.928 -42.739 916.343 Q -48.555 919.757 -54.235 922.482 "></path>
    <path id="STROKE_99550bc1-6d8c-4a68-8826-81a5ea50501f" opacity="1.000" fill="none" stroke="#ffffff" stroke-width="3.952" stroke-opacity="1.000" stroke-linecap="round" stroke-linejoin="round" d="M 1.472 863.176 Q 1.396 864.127 -1.509 867.805 Q -4.414 871.482 -17.074 881.152 Q -29.733 890.822 -36.446 895.849 Q -43.160 900.877 -46.269 902.836 Q -49.379 904.796 -54.018 908.572 Q -58.657 912.349 -64.255 916.175 Q -69.852 920.002 -74.329 923.289 Q -78.806 926.577 -81.524 928.742 Q -84.242 930.907 -88.234 931.449 Q -88.452 929.824 -84.464 926.236 Q -80.475 922.649 -75.032 918.557 "></path>
    <path id="STROKE_752d4621-af28-4db6-a0fa-86a619e68b48" opacity="1.000" fill="none" stroke="#ffffff" stroke-width="3.952" stroke-opacity="1.000" stroke-linecap="round" stroke-linejoin="round" d="M -11.286 856.493 Q -10.822 857.397 -15.916 862.631 Q -21.010 867.865 -25.110 871.486 Q -29.210 875.108 -32.657 877.947 Q -36.103 880.787 -38.209 882.311 Q -40.315 883.836 -42.070 884.994 Q -43.826 886.151 -47.072 888.532 Q -50.319 890.912 -53.772 893.554 Q -57.225 896.195 -64.261 900.569 Q -71.297 904.942 -75.550 907.833 Q -79.803 910.725 -82.179 912.365 Q -84.554 914.005 -88.730 916.727 Q -92.906 919.450 -100.750 924.831 L -100.800 924.785 Q -100.660 924.441 -96.081 921.326 Q -91.503 918.211 -86.341 914.911 "></path>
    <path id="STROKE_aa3e147d-a984-4d3d-9fda-c7d9150bf179" opacity="1.000" fill="none" stroke="#ffffff" stroke-width="3.952" stroke-opacity="1.000" stroke-linecap="round" stroke-linejoin="round" d="M -4.930 835.368 Q -5.059 835.618 -4.943 835.505 Q -4.827 835.392 -5.964 836.662 Q -7.101 837.932 -9.841 840.730 Q -12.581 843.528 -14.103 845.226 Q -15.625 846.924 -20.781 852.210 Q -25.936 857.497 -35.150 865.132 Q -44.363 872.768 -50.205 877.241 Q -56.046 881.714 -59.340 883.808 Q -62.635 885.902 -72.218 892.607 Q -81.802 899.312 -87.073 902.735 Q -92.344 906.158 -98.748 911.108 Q -105.153 916.057 -113.471 920.434 Q -113.506 919.811 -104.972 913.066 Q -96.438 906.322 -89.357 900.686 Q -82.275 895.050 -76.200 890.048 "></path>
    <path id="STROKE_60f591ed-be10-46dd-9383-be4a71d82082" opacity="1.000" fill="none" stroke="#ffffff" stroke-width="3.952" stroke-opacity="1.000" stroke-linecap="round" stroke-linejoin="round" d="M -3.949 805.037 Q -4.140 805.213 -7.829 809.714 Q -11.517 814.216 -16.246 819.094 Q -20.974 823.973 -24.319 827.081 Q -27.665 830.188 -32.142 834.568 Q -36.620 838.948 -40.258 842.073 Q -43.896 845.198 -50.864 851.479 Q -57.831 857.760 -67.308 865.454 Q -76.786 873.147 -83.241 877.943 Q -89.695 882.740 -93.933 885.719 Q -98.171 888.697 -103.773 892.997 Q -109.376 897.297 -112.826 900.121 Q -116.276 902.945 -120.920 904.395 Q -121.593 903.894 -115.036 898.274 "></path>
    <path id="STROKE_239856f1-4685-424e-a3bd-a488acefb809" opacity="1.000" fill="none" stroke="#ffffff" stroke-width="3.952" stroke-opacity="1.000" stroke-linecap="round" stroke-linejoin="round" d="M -12.828 793.821 Q -13.305 794.852 -13.331 794.852 Q -13.781 795.265 -15.632 797.526 Q -17.482 799.787 -26.115 808.080 Q -34.749 816.372 -46.086 826.079 Q -57.424 835.785 -64.919 841.745 Q -72.413 847.706 -77.619 851.624 Q -82.825 855.543 -85.292 857.492 Q -87.759 859.442 -90.889 861.542 Q -94.019 863.641 -100.132 868.063 Q -106.246 872.484 -109.307 875.246 Q -112.369 878.009 -115.238 879.435 Q -118.107 880.862 -120.831 881.309 "></path>
    <path id="STROKE_e66978bc-56d7-4fd3-8af2-df74ff781f9e" opacity="1.000" fill="none" stroke="#ffffff" stroke-width="3.952" stroke-opacity="1.000" stroke-linecap="round" stroke-linejoin="round" d="M -41.804 795.363 Q -41.665 795.392 -41.328 795.536 Q -42.121 796.464 -49.212 802.563 Q -56.304 808.663 -61.182 812.912 Q -66.061 817.161 -70.256 820.865 Q -74.452 824.568 -76.788 826.362 Q -79.124 828.156 -81.423 830.087 Q -83.722 832.018 -89.192 836.659 Q -94.663 841.301 -99.211 844.514 Q -103.760 847.727 -107.718 850.980 Q -111.676 854.233 -113.876 856.330 Q -116.076 858.426 -119.032 858.800 Q -120.182 858.654 -115.690 852.333 "></path>
    <path id="STROKE_0415f6ae-892a-4dbb-a4ea-e9723941c3f8" opacity="1.000" fill="none" stroke="#ffffff" stroke-width="3.952" stroke-opacity="1.000" stroke-linecap="round" stroke-linejoin="round" d="M -61.198 789.895 Q -61.052 791.071 -70.632 798.033 Q -80.213 804.995 -86.445 809.460 Q -92.677 813.924 -95.696 816.556 Q -98.715 819.188 -102.470 821.888 Q -106.226 824.587 -111.059 827.940 Q -115.893 831.293 -118.362 832.818 Q -120.832 834.344 -122.147 834.969 Q -123.461 835.593 -124.616 835.275 "></path>
    <path id="STROKE_28c6e375-cd4a-4e83-8faa-56f9e0aeb317" opacity="1.000" fill="none" stroke="#ffffff" stroke-width="3.952" stroke-opacity="1.000" stroke-linecap="round" stroke-linejoin="round" d="M -92.604 791.157 Q -91.488 791.512 -101.883 800.098 Q -112.278 808.684 -123.516 817.527 Q -123.643 817.412 -123.682 817.142 "></path>
    <path id="STROKE_5f03474c-17c2-454d-9a24-a7ba31d56c55" opacity="1.000" fill="none" stroke="#ffffff" stroke-width="3.952" stroke-opacity="1.000" stroke-linecap="round" stroke-linejoin="round" d="M -109.381 788.820 Q -109.329 789.871 -109.388 789.641 Q -109.551 789.926 -112.664 792.048 Q -115.777 794.171 -119.289 796.111 "></path>
    <path id="STROKE_d3bfc0dd-7883-441c-840f-92df4e75db48" opacity="1.000" fill="none" stroke="#ffffff" stroke-width="3.952" stroke-opacity="1.000" stroke-linecap="round" stroke-linejoin="round" d="M 35.401 905.471 L 35.320 905.545 Q 34.894 905.585 32.648 905.858 Q 30.403 906.132 29.293 906.061 Q 28.184 905.990 27.538 905.877 Q 26.892 905.765 26.690 905.139 Q 26.488 904.513 26.568 903.648 "></path>
    <path id="STROKE_80e4cf76-3568-4286-95a6-3f0dd861375f" opacity="1.000" fill="none" stroke="#ffffff" stroke-width="3.952" stroke-opacity="1.000" stroke-linecap="round" stroke-linejoin="round" d="M 54.702 884.347 Q 55.295 885.277 54.311 885.742 Q 53.327 886.207 47.509 887.721 Q 41.692 889.236 37.451 889.804 Q 33.210 890.372 30.157 889.680 Q 30.198 889.562 30.260 889.487 "></path>
    <path id="STROKE_282449d8-a8b1-45a1-b757-314ae1a0c824" opacity="1.000" fill="none" stroke="#ffffff" stroke-width="3.952" stroke-opacity="1.000" stroke-linecap="round" stroke-linejoin="round" d="M 61.993 875.140 Q 62.030 875.403 62.053 875.488 Q 62.077 875.573 61.583 876.227 Q 61.090 876.880 59.643 877.337 Q 58.197 877.793 57.223 878.161 Q 56.248 878.530 52.926 879.472 Q 49.604 880.414 43.594 881.601 Q 37.583 882.788 31.616 883.318 "></path>
    <path id="STROKE_35b63267-791e-434b-bec1-7a5f1de2e6dc" opacity="1.000" fill="none" stroke="#ffffff" stroke-width="3.952" stroke-opacity="1.000" stroke-linecap="round" stroke-linejoin="round" d="M 71.527 861.493 Q 71.127 861.922 62.740 863.338 Q 54.354 864.754 46.557 866.279 Q 38.759 867.803 31.849 869.391 "></path>
    <path id="STROKE_92efa5f6-5a2e-45de-a184-14a9062e98f5" opacity="1.000" fill="none" stroke="#ffffff" stroke-width="3.952" stroke-opacity="1.000" stroke-linecap="round" stroke-linejoin="round" d="M 74.611 844.295 Q 74.223 844.987 69.589 846.483 Q 64.955 847.979 57.959 849.629 Q 50.963 851.279 46.138 852.177 Q 41.312 853.075 38.536 853.336 Q 35.760 853.598 33.578 853.408 "></path>
    <path id="STROKE_aae353b7-61ba-489c-b907-4e2c397c4eb4" opacity="1.000" fill="none" stroke="#ffffff" stroke-width="3.952" stroke-opacity="1.000" stroke-linecap="round" stroke-linejoin="round" d="M 73.723 830.555 Q 74.006 830.283 68.237 831.528 Q 62.468 832.772 59.132 833.678 Q 55.796 834.584 53.177 835.412 Q 50.557 836.240 48.638 836.834 Q 46.720 837.429 43.057 838.756 Q 39.393 840.082 35.858 841.005 Q 32.323 841.928 29.045 842.332 "></path>
    <path id="STROKE_2f885a0f-20d3-4a88-a4da-fca3b1f34416" opacity="1.000" fill="none" stroke="#ffffff" stroke-width="3.952" stroke-opacity="1.000" stroke-linecap="round" stroke-linejoin="round" d="M 76.200 810.412 Q 76.024 811.092 70.957 812.635 Q 65.890 814.179 62.531 815.386 Q 59.172 816.594 56.386 817.602 Q 53.601 818.611 47.824 820.486 Q 42.048 822.361 36.242 823.778 "></path>
    <path id="STROKE_890c1578-0418-409c-8e09-19088703bd39" opacity="1.000" fill="none" stroke="#ffffff" stroke-width="3.952" stroke-opacity="1.000" stroke-linecap="round" stroke-linejoin="round" d="M 69.190 802.327 Q 68.918 802.267 62.523 804.302 Q 56.129 806.336 49.989 808.199 Q 43.849 810.061 40.684 810.896 Q 37.518 811.731 35.226 811.998 Q 32.934 812.265 31.842 812.017 Q 30.751 811.770 30.266 811.236 Q 29.781 810.703 29.793 809.991 "></path>
    <path id="STROKE_8513fbc1-7b57-4836-b79d-44b4fc4dce8b" opacity="1.000" fill="none" stroke="#ffffff" stroke-width="3.952" stroke-opacity="1.000" stroke-linecap="round" stroke-linejoin="round" d="M 71.012 783.025 Q 70.734 783.841 70.652 783.742 Q 70.499 783.834 64.038 785.980 Q 57.577 788.126 53.583 789.205 Q 49.589 790.285 47.605 790.907 Q 45.621 791.530 42.942 792.569 Q 40.262 793.609 38.664 793.852 Q 37.065 794.096 35.962 793.681 "></path>
    <path id="STROKE_9e7256da-f5be-41c1-9539-7ce673b7e00d" opacity="1.000" fill="none" stroke="#ffffff" stroke-width="3.952" stroke-opacity="1.000" stroke-linecap="round" stroke-linejoin="round" d="M 68.909 770.874 Q 68.642 771.635 68.562 771.636 Q 68.612 772.254 61.142 774.889 Q 53.672 777.523 48.726 778.785 Q 43.779 780.047 39.981 780.969 "></path>
    <path id="STROKE_a73bb696-1954-4a90-8989-5dee9bc960ce" opacity="1.000" fill="none" stroke="#ffffff" stroke-width="3.952" stroke-opacity="1.000" stroke-linecap="round" stroke-linejoin="round" d="M 68.909 761.013 Q 69.186 761.785 69.083 761.774 Q 68.752 762.324 68.717 762.281 Q 69.192 762.056 66.020 763.723 Q 62.847 765.391 60.633 766.283 Q 58.419 767.176 56.541 766.927 Q 56.453 766.758 56.478 766.528 "></path>
    <path id="STROKE_aac53a35-25aa-47e7-b8f3-0a0b162bd99e" opacity="1.000" fill="none" stroke="#ffffff" stroke-width="3.952" stroke-opacity="1.000" stroke-linecap="round" stroke-linejoin="round" d="M 77.275 746.899 Q 77.244 746.816 77.796 747.340 Q 76.864 748.030 76.862 748.039 Q 76.013 749.211 69.657 751.199 "></path>
  </g>
</svg>